<svg width="400" height="115" fill="none" xmlns="http://www.w3.org/2000/svg"><g clip-path="url(#clip0_447_197)" fill="#fff"><path d="M316.932 83.995c-.218 10.067 0 19.55-.073 29.033-.363.438-.654.729-.873 1.021-.291 0-.582.073-.8 0-2.327-.51-5.528-.583-7.637-.073-.437.073-.946.438-1.164.292-1.455-.802-2.764.657-4.074.073-.509-.219-1.018-.511-1.6-.802-.072-1.24-.145-2.408-.145-3.502 0-10.14 0-20.28.073-30.346 0-1.678-.291-3.429.654-5.106.218-.365.218-.876.073-1.313-.8-2.262.291-4.45.073-6.712-.146-2.188-.073-4.303-.073-6.492V46.646c0-1.97.364-4.012-.655-5.909.291-.948.218-1.824 0-2.845-.218-.948-.145-2.043-.145-2.99 0-1.022-.073-2.043 0-3.065.218-1.823 1.164-3.501.873-5.325.363-.219.654-.51.872-.51 5.019-.22 10.038-.073 15.13 0 .946 1.532-.073 3.282.728 4.887 2.036-.875 4.073-1.75 5.891-3.064.873-.583 1.746-.875 2.692-1.24 2.473-.802 4.873-1.532 7.492-1.605.654 0 1.382-.437 2.036-.51.51-.073 1.019.146 1.528 0 1.818-.365 3.564-.365 5.455.219 2.401.729 5.019.948 7.856 1.459.364.291 1.019 1.167 1.819 1.24 1.6.218 2.545 1.24 3.782 1.97 3.419 2.188 6.037 5.616 7.929 9.41.872 1.75 2.109 3.355 3.346 5.252.29 1.094-.146 2.626.654 3.939.364.51.218 1.386.218 2.115 0 2.335-.072 4.669.073 6.93.146 1.678-1.236 8.316-1.818 10.505a23.855 23.855 0 01-1.091 3.21c-.801 1.969-1.31 4.23-2.546 5.835-1.528 2.043-2.837 4.304-4.874 5.982-.363.292-.582.656-.8.802-5.019 2.918-10.329 4.596-15.493 6.566-1.455-.073-2.328.948-3.201 1.75-.436.073-.727.22-1.018.146-3.055-.583-6.11-1.094-9.165-1.896-3.128-.803-6.183-2.262-8.874-4.158-.873-.438-1.819-.876-3.128-1.751zm15.566-50.188c.509-.073 1.091.146 1.528-.438-.801-.583-1.237-.437-1.528.438-.218.146-.873 0-.436.657l.436-.657zm26.841 13.058c.145.218 0 .948.654.437l-.654-.437c-.073-.657.218-1.532-.873-1.751 0-.73.218-1.532-.873-1.75-.146-.22-.218-.366-.364-.584l-.291.291c.219.146.364.22.582.365 0 .73-.073 1.532.873 1.678.073.73-.073 1.532.946 1.75zm-33.824 32.17c.146.291.146.948.728.364l-.655-.438c-.728-.875-.727-.875-1.746-.145.728.073 1.164.145 1.673.218zm.873-38.298c.509 0 1.018-.073 1.673-.146-.873-.73-.873-.73-1.673.146-.509.073-.8.365-.873.875-1.6-.291-2.909.365-4.146 1.386.291.365.582.657.946 1.022 1.018-.657 2.036-1.386 2.982-2.043.073-.073.073-.292.145-.365.655-.073.946-.291.946-.875zm-23.349 60.838c-.873.292-1.018.73-.437 1.532.582-.438.437-1.021.437-1.532.218-.146.873 0 .364-.656-.073.219-.219.437-.364.656zm7.856.876c-.873.437-1.746.875-2.692 1.313.073.656.073 1.167.219 2.042.945-.437 1.673-.802 2.473-1.167a10.93 10.93 0 010-2.188c1.309-.584 1.018-1.459.436-2.408-.8.657-.364 1.605-.436 2.408zm36.369-68.644c-.145-.292-.073-.948-.727-.365.218.146.436.292.727.365.655 1.605 2.109 2.553 3.201 3.574.436-.218.727-.291 1.018-.437-.946-1.095-1.891-2.116-2.619-2.918-.8-.146-1.236-.219-1.6-.219zm-6.692 8.024c-3.128-.73-5.383.438-7.856.584-2.473.146-4.51 1.605-6.91 2.042-1.164 1.095-2.328 2.189-3.346 3.356-.727.875-1.527 1.824-1.746 2.918-.363 1.97-1.018 3.866-1.163 5.836-.146 1.97-.291 4.012.654 5.908.437.803.218 1.97.218 2.772.801 1.605 1.455 2.991 2.037 4.158 2.691 3.064 5.674 5.18 9.456 6.128h8.22c2.327-.73 4.291-1.386 6.401-2.043 1.236-1.677 2.691-3.136 3.564-4.887 1.018-1.97 1.6-4.231 2.327-6.273v-7.368c-.872-3.356-2.327-5.69-4.291-7.806-.364-.437-.655-.948-.946-1.459-1.018-1.677-2.546-2.626-4.437-3.21-.8-.218-1.6-.437-2.182-.656zm-36.587 15.757c-.073.875-.146 1.386-.146 1.97-.291 4.012.582 8.097-.727 12.036-.073.219 0 .656.145.802.509.73.146 1.24 0 1.97-.218.802-.073 1.678-.073 2.334.873.73 1.528 1.313 2.255 1.897.364-.73.364-1.386-.072-2.043-.582-.948.363-1.605.363-2.407-.073-5.325-.073-10.723-.145-16.049 0-.218-.291-.437-.437-.656-.291 0-.582.073-1.163.146zm35.278 23.124c.945-.365 1.455-.656 2.036-.656 1.164-.146 2.255-.073 3.419-.22.218 0 .364-.29.582-.51-.655-.364-1.309-.656-1.891-.948-1.018.656-2.182.51-3.273.584-1.164 0-2.255 0-3.419.072-1.018.073-2.11-.364-3.419.657 2.11.51 4.292-.438 5.965 1.021zm-5.892-51.647c1.236.73 2.255.365 3.2.511.873.073 1.819.292 3.055.438-.581-.949.728-1.313.073-2.116h-4c-.801.365-1.455.657-2.328 1.167zm-28.15 52.742c-.145.218-.364.51-.364.729 0 2.699.073 5.398.146 8.097 0 .073.145.146.291.292.582-3.064.582-6.565-.073-9.118zm13.457-45.01c1.382-1.312 2.327-2.333 3.418-3.355-.436-.219-.654-.291-.872-.364-.146 0-.291 0-.364.072-1.018.73-1.964 1.46-3.055 2.262.218.365.364.656.873 1.386zm-4.656 48.657c.364-1.605.219-2.407.291-3.283.073-.802.291-1.532.51-2.334-.437-.292-.728-.438-1.019-.657-.145.22-.291.292-.291.438 0 1.386-.072 2.845 0 4.231-.072.292.146.584.509 1.605zm33.169-43.623c2.764 3.064 2.764 3.064 3.419 2.772 0-.437.073-1.021.073-1.532-1.019-.583-1.819-1.386-3.492-1.24zm8.22 9.483c.945-2.042-.364-3.063-.8-4.376-1.164 1.677.218 2.699.8 4.376zm-44.08-20.425c.728 1.24 1.164 1.97 1.6 2.626l.291-.146c.364-.948.509-1.823-.218-2.918-.364.073-.8.22-1.673.438zm-1.455 80.534c1.091.657 1.819.73 2.619 0-.073-.292-.073-.729-.146-1.094-.436 0-.727-.073-1.163-.073-.364.292-.8.657-1.31 1.167zm48.663-38.88c.945.437 1.6.656 2.254.947.51-1.313-.145-1.823-1.163-2.188-.364.365-.655.73-1.091 1.24zm-54.991 40.12c.436-.875.8-1.605-.291-2.188-.291.365-.655.729-1.018 1.24.509.365.873.656 1.309.948zm30.55-28.012c-.582-.73-.945-1.75-2.4-.875.727.51 1.018 1.678 2.4.875zm-19.421-22.03c-.436.949-.655 1.605.073 2.262.509-.803.509-1.386-.073-2.262zm-.073 41.58c-.218 1.532-.218 1.532.291 2.262.291-.73.509-1.386-.291-2.262zm29.75-67.33c-.436-.438-.8-.51-1.236-.073.436.583.8.51 1.236.073zm-29.604 64.923c-.437.438-.509.875 0 1.313.436-.438.436-.875 0-1.313zm23.494-63.1a.55.55 0 00-.145-.291c-.218-.073-.436-.146-.727-.146-.073 0-.146.292-.219.51.219.073.437.146.728.146.145 0 .291-.146.363-.218zm-33.023 54.784c.509-.438.509-.875 0-1.313-.509.438-.436.875 0 1.313zm25.313-53.908c-.145-.146-.291-.438-.509-.438-.218 0-.436.146-.655.219.146.146.291.365.437.438.218 0 .436-.146.727-.22zm16.003 38.078c.436.511.872.511 1.309 0-.437-.51-.873-.437-1.309 0zm-33.678-28.522c.072 0 .218-.073.291-.073.072-.219.218-.51.145-.73 0-.072-.364-.145-.509-.218-.073.219-.146.51-.146.73 0 .072.146.218.219.291zm-5.601-20.206c-.073 0-.218-.073-.291-.073-.146.291-.218.583-.364.948.218.073.364.146.582.219 0-.438 0-.73.073-1.095zm10.038 38.589c.509-.438.509-.876 0-1.313-.509.437-.437.875 0 1.313zm-2.328-7.15c-.073-.072-.145-.29-.218-.218-.364.073-.364.292-.073.438.073 0 .218-.146.291-.22zm43.934 5.399c.073-.073.218-.146.291-.219-.073-.073-.145-.219-.291-.292-.073 0-.218.146-.291.22 0 .145.146.218.291.291zm-43.934 1.532a1.006 1.006 0 01-.218-.292c-.073.073-.218.146-.218.219 0 .073.145.146.218.219.073 0 .145-.073.218-.146zm-3.491 5.18c-.073-.074-.146-.147-.219-.293-.072.073-.218.146-.218.22 0 .072.146.145.218.218.073 0 .146-.073.219-.146zm3.491-44.28c-.073-.073-.145-.219-.218-.219-.364.073-.364.292-.073.438.073 0 .218-.146.291-.219zm37.024 46.614c-.073.072-.218.145-.218.218.073.365.291.365.436.073 0-.073-.145-.146-.218-.291zm-34.624.875c-.072.073-.218.146-.218.219.073.365.291.365.437.073 0-.073-.146-.22-.219-.292zm30.26 9.556c-.073.073-.219.146-.219.219.073.365.291.365.437.073 0-.073-.146-.22-.218-.292zm-5.819-46.614a1.007 1.007 0 01-.219-.291.99.99 0 01-.291.219c.073.072.146.218.219.218.145.073.218-.073.291-.146zm-39.134 65.726c-.073.073-.291.146-.218.219.073.365.291.365.436.073 0-.073-.145-.219-.218-.292zm12.293 3.721c-.073-.073-.145-.219-.218-.292-.073.073-.218.146-.218.219 0 .073.145.146.218.291l.218-.218zm-120.382-81.92c2.109 0 4.291-.365 6.401.656.436-.219 1.018-.438 1.6-.656 2.182 1.167 4.655.656 7.128.73 1.019 0 2.037-.074 3.055 0 .364 0 .728.364 1.019.51-.073.364 0 .73-.146.948-1.309 1.386-2.255 2.99-3.128 4.596-1.745 3.355-4.146 6.127-6.255 9.191-.655.948-1.237 1.97-1.964 2.845-1.382 1.678-2.546 3.429-4.001 5.033-2.473 2.773-4.655 5.763-6.837 8.535 0 1.386 1.018 1.897 1.745 2.626 5.31 5.326 5.892 5.91 11.566 13.204 1.891 2.407 3.2 5.033 4.873 7.587 1.237 1.896 2.183 4.012 4.074 5.398.436.291.582 1.02.873 1.604-.219.292-.364.657-.582.949-1.528-.146-3.055-.949-4.583 0-.436.291-1.091.291-1.673.291-1.964.074-4.073-.291-5.892.803h-5.819c-.654-.948-1.309-2.043-2.109-3.064-1.6-2.042-2.982-4.23-5.019-5.909-1.455-2.772-3.928-4.595-5.892-6.857-1.309-1.532-2.691-3.064-3.564-4.814-1.091-2.262-2.691-4.085-4.51-5.69a56.575 56.575 0 01-2.109-2.043c-.364 0-.655.073-.946.073-.145.22-.364.511-.364.73-.072 4.887-.072 9.848-.145 14.735v3.502c-.073 1.167-.146 2.261-.364 3.428-.145 1.094-.509 2.189-.727 3.283-1.455 1.167-1.455 1.167-3.419.438-1.6.656-3.346.51-4.873 1.24-.655.291-1.673-.073-2.474-.22-.509-.072-1.018-.364-1.454-.583-.655.292-1.164.51-1.746.657-.509-.22-1.018-.51-1.746-.803-.291-.948-.654-1.97-1.018-3.064.218-.948.655-1.896.655-2.844 0-.803-.364-1.605-.655-2.626.218-.949.727-1.897.727-3.137-.072-6.639 0-13.277 0-19.988 0-1.459-.218-2.845.582-4.23.291-.439.218-1.095.218-1.679 0-2.626.073-5.179 0-7.805 0-.948-.291-1.897-.436-2.845.145-.292.218-.51.436-.802-.218-.584-.436-1.314-.654-1.97.218-.51.436-1.021.654-1.605-.8-1.75-1.091-3.501 0-5.252-1.091-1.897-.654-3.94-.727-5.982 0-1.167-.145-2.334.8-3.428-.582-1.313-1.455-2.845.073-4.304-1.164-1.897-.8-3.94-.873-5.909 0-1.021.436-1.97.655-2.918.218-.875-.219-1.896-.219-2.845 0-.875.219-1.678.291-2.553.073-.948.073-1.97.146-2.918.436-.219.655-.365.873-.365 4.437 0 8.947-.073 13.384 0 .218 0 .509.22.945.438.146 2.772.146 5.617.146 8.462 0 3.94-.073 7.805-.073 11.745 0 1.677-.218 3.428.655 5.106.363.656.145 1.678.145 2.553.073 6.638.073 13.276.073 19.988 0 .875.073 1.678.073 2.845.582-.365.945-.438 1.236-.73 2.473-2.626 5.383-4.814 7.274-7.951 2.691-2.189 4.219-5.398 7.056-7.44.654-1.679 2.255-2.554 3.346-3.94 1.091-1.313 2.109-2.699 3.2-4.012.218-.438.655-.657 1.019-.948zm-8.438 14.662c-.582 0-.8.292-.873.875-.509.073-.8.365-.873.876-.291.146-.945 0-.436.656.145-.218.291-.437.363-.656.51-.073.801-.365.873-.876.655-.073.946-.364.946-.875.509-.073.8-.365.873-.875 1.527-.51 2.255-1.97 3.418-3.064-1.382-.219-1.382-.219-3.418 1.896v1.168c-.509 0-.8.364-.873.875zm8.656 6.93c-.509 0-.8.292-.873.875-1.455-.073-1.746.365-1.819 1.678-.509.146-1.018.22-1.6.365.146.584.218.948.291 1.386.509-.146.873-.219 1.237-.292.072-.51.145-.875.145-1.313.8-.365 1.455-.875 1.673-1.75.655-.147.873-.438.946-.949.218-.219.873 0 .363-.656-.072.218-.218.437-.363.656zm-36.806 1.094c-.146.22-.364.51-.364.73v10.285c0 .22.291.438.364.657.145-.219.364-.51.364-.73V49.491c.072-.219-.219-.438-.364-.657zm41.17 40.632c-.582-1.313-.946-2.115-1.309-2.918a35.024 35.024 0 01-2.837-1.459c.073.657 0 1.167.145 1.386.946 1.167 1.746 2.626 4.001 2.991zm-8.656-54.273c1.6.146 1.6.146 4.364-2.918l-1.163-1.167c-.655.948-1.019 1.605-1.455 2.116-.509.656-1.091 1.24-1.746 1.97zm-8.51 27.574c-.291 1.46-.437 2.7.218 4.012.509-.583.946-1.02 1.237-1.313.072-2.407.072-2.407-.437-2.845-.218 0-.509.073-1.018.146zm22.331 15.246a291.108 291.108 0 00-2.837-4.085c-.873.584-.728 1.24-.582 1.97.8.948 1.455 2.115 3.419 2.115zm-38.77-76.011c.363.802.727 1.459 1.164 2.261.509-.218.872-.364 1.163-.437-.654-1.897-.654-1.897-2.327-1.824zm43.425 83.963c-.437.51-.728.875-1.019 1.313.873.51 1.528.73 2.183-.22-.291-.364-.728-.656-1.164-1.093zm-18.258-5.18c.655-.73.655-1.24.146-1.605-.218-.145-.728.073-1.746.146.8.73 1.237 1.022 1.6 1.46zm-4.437-11.015c.219.146.437.365.655.438.218.073.509-.146.727-.219-.072-.219-.072-.51-.291-.657-.218-.218-.581-.291-.945-.51-.073.438-.146.656-.146.948zM169.2 24.032l-1.746-1.459c-.218 1.46-.218 1.46 1.746 1.46zm18.548 38.881c-.727-.802-1.455-.656-2.182 0 .727.657 1.455.73 2.182 0zM162.435 22.5c.291-1.532.291-1.532-.218-2.188-.437.656-.437 1.24.218 2.188zm.8 18.091c.582-.73.582-1.459 0-2.188-.582.73-.727 1.459 0 2.188zm-1.6-15.684c.291-.51.436-.875-.291-1.24-.291.438-.436.876.291 1.24zm1.6 18.383c.146-.437.291-.656.364-.875 0-.073-.073-.292-.146-.292-.218 0-.363.073-.582.146.073.219.146.584.364 1.021zm-.873 1.167c-.436.438-.509.876 0 1.313.437-.437.437-.875 0-1.313zm5.965 33.119c-.509.437-.364.802.145 1.094.437-.438.437-.803-.145-1.094zm4.437-21.52c.073-.219.218-.51.291-.73 0-.072-.146-.218-.218-.364-.146.146-.437.292-.437.438.073.291.218.51.364.656zm9.238-1.24c1.236.438 1.527.584 1.818.656 0 0 .146-.364.218-.51-.363-.073-.654-.073-2.036-.146zm-12.73 7.44c.437-.437.51-.802.073-1.312-.582.437-.509.875-.073 1.313zm8.947-3.647c-.072-.073-.145-.219-.218-.291-.073.072-.218.145-.218.218 0 .073.145.22.218.22 0 .072.073-.074.218-.147zm-8.947-5.544a2.83 2.83 0 01-.29.22c.145.437.363.437.509 0 .072 0-.146-.147-.219-.22zm-.072-2.918a.99.99 0 01.291-.218l-.219-.22c-.072.074-.218.147-.218.22 0 0 .146.072.146.218zm29.532-14.37c-.073.073-.219.146-.219.218.073.365.291.365.437.074 0-.074-.146-.22-.218-.292zm-40.443-33.63c-.073-.072-.146-.29-.218-.29-.364.145-.364.29-.073.51.073.073.218-.146.291-.22zm11.202 39.976c-.073-.073-.146-.219-.219-.219-.363.073-.363.292-.072.438.145 0 .218-.146.291-.219zm-.8 43.404c-.073-.073-.146-.292-.219-.292-.363.146-.363.292-.072.51.072 0 .218-.145.291-.218zm-27.568-25.021c-.51 1.459-.873 2.407-1.164 3.356a3.382 3.382 0 01-.728.364c-1.236.292-2.182-.437-3.491-.948-.582.219-1.382.51-2.546.948-4.219 0-8.874-.073-13.457 0-1.964 0-3.928-.073-5.964.584-1.673.584-3.71.51-5.456-.219-1.382-.584-2.691-.438-4.146-.073-1.018.219-2.109.51-3.2.438-2.182-.073-4.219.51-6.256 1.386.364 3.574 2.11 6.42 5.31 8.9.946.51 2.401 1.166 3.928 1.969h10.329c1.818-.73 3.419-1.386 5.383-2.261 1.382-.876 2.545-2.554 3.491-4.45.873-.073 1.746-.22 2.546-.22 1.6 0 3.2.074 4.728 0 1.527 0 3.128.147 4.655-.656.582-.291 1.382-.072 2.11-.072.363.291.654.583 1.018.875-.218.948-.509 1.896-.582 2.188-1.527 2.407-2.837 4.377-4.437 6.857-2.109 2.262-4.873 4.96-8.147 7.15-3.273 2.188-7.128 2.771-10.765 4.376-1.964 0-4.146-.146-6.328 0-4.947.51-9.31-1.094-13.602-3.137-1.164-.51-2.255-1.167-3.565-1.459-1.09-.219-2.109-.802-2.618-2.042-.218-.51-.728-.876-1.237-1.167-4.291-2.7-7.128-6.639-9.165-11.088-.509-1.168-.727-2.408-1.018-3.648-.146-.51-.437-1.094-.437-1.605.219-2.042-1.09-3.793-.945-5.908.218-3.283.072-6.639.072-9.994.51-.657 1.019-1.386 1.528-2.043.364-2.407.873-4.741 2.4-6.784 1.019-1.313 1.819-2.918 2.692-4.377 2.036-3.355 5.528-4.96 8.001-7.732 1.891-1.021 3.71-2.334 5.746-2.918 2.546-.802 5.019-2.261 7.783-2.043 4.074-1.604 8.22-.875 12.366-.729 2.546.073 4.946 1.24 7.274 2.261 1.6.657 3.128 1.386 4.437 2.627 1.018.948 2.4 1.531 4.364 2.699.655.802 1.891 2.188 3.128 3.574 1.527 1.75 2.4 3.866 3.055 6.055.655 2.188 1.382 4.303 2.037 6.492.363 1.094.727 2.188.8 3.283.145 1.604.073 3.21.073 4.741v4.45zm-40.661 22.832c.145.292 0 .949.654.438l-.654-.438c-.146-.218 0-.948-.655-.364.218.073.436.219.655.364zm27.713-1.75c-.727.073-1.527-.22-1.746.875-.218.146-.945 0-.436.657.145-.22.291-.438.364-.657.727-.073 1.6.146 1.818-.875.218-.22.873 0 .364-.657-.146.22-.218.438-.364.657zM83.15 62.476c.145.218 0 .948.654.437-.29-.146-.509-.292-.654-.438-.073-.802.29-1.677-.655-2.553-.145 1.095-.8 2.043.655 2.553zm52.808-16.487c.073.511-.145 1.095.509 1.532.509-.73.364-1.24-.509-1.532 0-.802.291-1.677-.436-2.48-.291 0-.655.073-1.819.146 1.6.584.946 2.116 2.255 2.334zM94.352 72.032c.145.219 0 .875.654.437l-.654-.437c-.437-.803-.8-1.605-1.31-2.626-.436.51-.8.875-1.09 1.24.581 1.094 1.308 1.532 2.4 1.386zm32.877 3.428c-1.163.365-2.4.657-3.564 1.022-.218.072-.363.364-.582.656.146.292.364.584.728 1.24 1.164-1.167 3.055-1.021 3.637-2.772.509-.073 1.091.073 1.527-.584-.8-.51-1.382-.51-1.746.438zm-2.545-30.346c-.073-.51.145-1.167-.728-1.75 0 .875-.291 1.531.728 1.75-.146 1.824 1.236 3.064 1.891 4.596.364.875 1.236 1.459 2.109 2.407.073-.73.291-1.167.146-1.386-1.019-1.386-1.819-2.845-2.619-4.377-.291-.438-1.018-.802-1.527-1.24zm-31.933 4.742c.146.145.218.291.364.291 8.656.511 17.239.146 25.895.146.655 0 1.455.146 2.182-.583.728-2.553-1.309-4.377-1.964-6.274-1.455-1.75-2.982-2.845-4.873-3.574-1.673-.146-3.564.219-4.874-.73-1.382.22-2.327.365-3.273.584-3.055.657-6.183.948-8.656 3.283-.29.291-.727.437-1.091.656-1.018 2.334-3.637 3.502-3.71 6.2zm25.022 9.702c1.964.583 3.71.364 5.529.218.145 0 .218-.145.509-.437-.073-.365-.218-.803-.364-1.24h-4.437c-.436.51-.727.875-1.237 1.459zm-24.44-5.18c-.073-.145-.073-.291-.145-.437-.8-1.386-2.473-.949-3.637-1.678 0 0-.146.219-.218.292-.219.73-.219 1.386.436 1.896 1.091.22 2.328.438 3.564-.073zm33.824-20.863c-.437-.875-.8-1.459-1.091-2.042-1.673-.219-1.673-.219-2.91 1.094 1.237.438 2.182 1.897 4.001.948zm-33.17 50.553c.146-.438.365-.73.292-.875-.727-1.386-1.819-2.408-3.128-3.21-.145-.073-.51.146-.945.219 1.09 1.532 2.4 2.626 3.782 3.866zm36.588-25.313c1.673.292 2.983.584 4.365.073-.218-1.021-.873-1.386-1.746-1.386-.8.292-1.527.657-2.619 1.313zm-1.745-1.386c-.873.438-1.528.803-2.255 1.24.945.657 1.746.511 2.618.365.146 0 .291-.365.51-.656a11.213 11.213 0 00-.873-.949zM88.75 71.156c-.436.146-.8.292-1.236.438.146.51.291.875.437 1.313l1.309-.438c-.218-.437-.364-.875-.51-1.313zm26.623-43.841c.727.583 1.455.583 2.109 0-.654-.584-1.382-.584-2.109 0zm18.767 45.884c-.073-.292-.219-.657-.364-1.167-.509.51-.8.948-1.164 1.313.655.583 1.091.365 1.528-.146zm-15.13-33.994c-.436.657-.291 1.168.145 1.386.219.146.582-.073 1.164-.218-.509-.511-.873-.803-1.309-1.168zm.727 47.124c.437.511.801.511 1.237.073-.436-.583-.8-.51-1.237-.073zM85.914 36.798c.145.146.364.438.51.438.217 0 .435-.146.726-.292-.145-.146-.29-.438-.436-.438-.29 0-.51.146-.8.292zm17.675 46.176a.55.55 0 00-.145-.292c-.218-.073-.437-.219-.727-.146-.073 0-.146.365-.219.51.219.074.437.147.728.147.145 0 .291-.146.363-.22zm12.657-1.824c.436.51.873.584 1.382.073-.509-.656-.946-.51-1.382-.073zM92.169 68.311c.51-.437.51-.802.073-1.24-.509.365-.436.803-.073 1.24zm19.203-13.933c.073-.218.291-.437.291-.656 0-.146-.291-.292-.436-.438-.073.219-.291.438-.218.657-.073.146.218.291.363.437zm-11.565-.145c.655.291.655.291 1.309 0-.218-.146-.436-.365-.654-.365-.219 0-.437.219-.655.364zm-8.51 6.419c.218-.438.363-.73.436-1.094 0-.073-.218-.292-.291-.292-.218.073-.436.219-.51.365.074.291.22.51.365 1.02zm46.189-7.222c-.073-.073-.146-.219-.219-.292a.987.987 0 01-.291.22c.073.072.146.218.219.218.145 0 .218-.073.291-.146zm-6.911 25.094c-.072-.073-.145-.219-.218-.219-.363.073-.363.292-.073.438.073 0 .219-.146.291-.219zm-6.11 5.252c-.072-.073-.145-.219-.218-.219-.364.073-.364.292-.073.438.146 0 .219-.146.291-.219zm-13.165 1.46c-.073.072-.219.145-.219.218.073.365.291.365.437.073 0-.073-.146-.219-.218-.292zm10.547-30.93a.988.988 0 01-.218-.292l-.219.218c.073.073.146.22.219.22.072 0 .145-.147.218-.147zm165.48 14.443c-.582 1.167-1.964 1.897-1.745 3.428-2.11 3.137-4.074 6.42-7.347 8.608-1.673 1.094-3.2 2.407-4.728 3.648-4.583 2.553-9.456 4.668-14.693 6.565h-7.056c-1.309 0-2.546.146-3.782-.584-.728-.364-1.673-.219-2.546-.291h-4.583c-2.909-1.24-5.601-2.554-8.074-4.377-1.745-1.24-3.491-2.48-5.091-3.867-3.346-3.063-5.31-7.075-6.692-11.306-.437-1.46-.873-3.064-.946-4.596-.145-3.72-.073-7.514-.073-11.234 1.091-2.261.728-4.815 1.746-7.076.946-2.261 1.819-4.523 2.619-6.565 1.163-1.24 2.182-2.261 3.055-3.356.873-1.094 1.527-2.407 2.036-3.21 2.837-2.48 5.528-4.376 8.729-5.544 1.091-2.042 2.182-4.085 3.273-6.054 1.091-1.897 1.819-4.085 3.346-5.69 1.6.875 1.673 2.48 2.546 3.574.8 1.022 1.455 2.116 2.255 3.283 1.891.219 3.71.219 5.601 0 1.673-.219 3.346-.584 5.237-1.021 1.455-1.386 2.037-3.429 2.182-5.763.728-.073 1.237-.073 1.746-.146 1.818 3.866 3.782 7.44 6.401 10.723.436.511.655 1.24 1.018 2.043 4.292 2.188 7.056 6.2 10.475 9.483 1.091 1.094 1.818 2.553 2.909 3.72.728.803 1.091 1.97 1.455 3.064 1.091 3.429 2.037 6.857 1.746 10.505-.073 1.459 0 2.917-.073 4.303-.073 1.532.145 3.137-.655 4.596-.436.949-.218 2.189-.291 3.137zm-18.912-30.565c-.145-.219 0-.948-.654-.438l.654.438c.073.51.364.802.873.875.073.51.364.803.873.876.291 1.24 1.237 1.823 2.328 2.553.072-.438.145-.803.218-1.094-.655-1.022-1.382-1.532-2.546-1.46-.073-.51-.364-.802-.873-.875-.073-.51-.364-.802-.873-.875zm-2.618-13.058c-.073-.51-.364-.802-.873-.875a79.77 79.77 0 01-.218-1.605c-.51.073-.873.146-1.673.219.872.584 1.382.948 1.891 1.386.073.51.364.802.873.875.145.22 0 .876.654.438l-.654-.438zM232.191 36.58c.291-.292.51-.656.801-.948.218-.146.436-.365.654-.51l-.218-.22c-.146.22-.291.438-.509.657-.291.292-.582.51-.946.802-.291.292-.509.584-.8.949-.8.364-1.018.802-.436 1.532.582-.365.436-.949.509-1.46.291-.291.582-.583.945-.802zm11.93 43.33c.145.366.145.95.727.366-.218-.146-.436-.292-.727-.365 0-.584-.291-.876-.801-.948-.072-.511-.363-.803-.872-.876-.073-.51-.364-.802-.873-.875-.219-.948-.8-1.46-1.746-1.75-.146-.22 0-.95-.655-.439.219.146.437.292.655.365-.146 1.313.218 1.824 1.746 1.75.072.511.291.803.873.876 0 .51.291.803.872.876 0 .656.291.948.801 1.02zm23.421-48.655c-.145-.219 0-.948-.654-.438l.654.438c.073.219.219.438.291.583l.291-.291c-.145-.146-.363-.22-.582-.292zm15.639 37.349c-.873.292-1.018.802-.436 1.532.509-.438.364-1.021.436-1.532.218-.146.873 0 .364-.656a1.41 1.41 0 00-.364.656zm-8.728-33.045c.145.219 0 .948.654.438l-.654-.438c-1.091-1.678-1.091-1.678-2.474-1.313.582 1.021 1.383 1.386 2.474 1.313zm-43.28 12.182c1.673-1.97 1.673-1.97 1.164-3.501l-1.164 1.167v2.334c-.873.292-1.018.802-.218 1.824a32.03 32.03 0 01.218-1.824zm38.115 36.474c1.309.146 2.11-.876 3.346-1.46-1.746-.583-2.764-.072-3.419 1.387-.509.073-1.091-.073-1.454.51.727.584 1.236.438 1.527-.437zm14.693-34.723c.073.802-.363 1.678.51 2.407.581-1.021.872-1.897-.51-2.407V46.72c-.509-.584-.654-1.386-1.745-1.094.436 1.24.873 2.553 1.309 3.72.073.073.291.073.436.146zm-35.06 25.896c4.656.438 8.438-.73 12.075-2.553 1.382-.73 2.619-1.824 4.001-2.48 2.473-1.022 4.291-2.772 5.309-4.085 2.474-4.596 1.383-8.681 1.601-12.547-1.891-4.669-2.401-5.471-6.256-9.192-3.346-1.896-6.692-3.72-10.256-5.763-.727.73-1.673.949-2.691 1.022-1.819.219-3.71.438-5.383 1.094-4.292 1.678-7.274 4.96-9.092 9.118-.364.876-.219 1.897-.655 2.918a14.796 14.796 0 00-1.309 7.076c.073 1.46 0 2.845 0 4.085.8 1.678 1.6 3.064 2.255 4.45.8 1.824 2.036 3.064 3.855 3.866 2.182 1.094 4.437 2.043 6.546 2.991zm-.072-39.1c-2.983.22-5.529 1.678-8.074 2.189-.946 1.167-1.455 2.115-.219 3.282.873-.437 1.892-.73 2.619-1.313 1.891-1.459 4.001-2.042 6.328-2.261.146 0 .364-.292.509-.51-.291-.438-.582-.73-1.163-1.387zm-18.622 23.781c.073 2.189.873 3.793 2.401 5.034.364-.22.727-.438 1.164-.657-1.164-2.042-.8-4.23-.8-6.273.29-1.168 1.382-2.043.363-3.429-1.745 1.459-2.109 3.647-3.128 5.325zm27.714-26.334c.873-.292 2.182-.73 3.564-1.24-.218-.51-.364-.875-.509-1.24-2.91 1.24-6.037.292-9.02 1.021.073.584.146.949.219 1.386 1.891.073 3.636.073 5.746.073zm-28.95 43.696c-.655 1.094-.582 2.188.145 3.428 1.382.51 2.401 2.043 4.365 2.48-.218-2.407-2.11-3.501-2.764-5.106-.728-.292-1.237-.51-1.746-.802zm43.934-.73c-2.109-.51-2.618 1.167-3.928 1.386-1.382.219-2.691.803-4.073 1.313.145.51.218.876.364 1.24h3.564c1.309-1.167 2.473-2.407 4.073-3.939zm-12.438 8.17c.073-.583 1.018-.583.509-1.459-2.91-.51-5.455.73-8.001 1.97.8.802 1.818.73 2.473.438 1.455-.803 2.982-.584 5.019-.949zm7.928-2.845c-3.2-.73-5.164-.656-7.637.073 2.036.438 3.928.803 6.11 1.24.363-.364.945-.802 1.527-1.313zm-18.33-4.45c-2.837-.437-2.837-.437-3.928.365.437.365.873.73 1.164.949 1.237.219 2.037-.073 2.764-1.313zm-2.328 8.244c2.328-.438 2.328-.438 5.019-2.408-.8 0-1.454-.219-1.891.073-1.018.51-2.473.51-3.128 2.335zm-23.349-37.86c-.291 1.094-.436 2.042.219 3.064.363-.073.727-.073 1.309-.146-.218-.73-.582-1.386-.437-1.97.146-.656.728-1.167 0-1.896-.363.364-.8.729-1.091.948zm22.768-22.687c-.655.51-1.237.949-1.164 1.751.145.219.291.438.436.584.946.073 1.528-.365 1.746-1.386a13.145 13.145 0 00-1.018-.949zm16.366 61.933c-2.255-.803-3.346.219-4.51.875 1.6 1.167 2.619-.292 4.51-.875zm6.91-12.037c.655.51 1.309.438 2.037-.073v-1.094c-.8.292-1.601.292-2.037 1.167zm-36.733-2.553c-.437-.438-.873-.73-1.528-.146.364.365.655.803 1.164 1.313.146-.51.291-.875.364-1.167zm11.856-50.407c0-.072-.072-.291-.072-.291-.219-.073-.51-.22-.728-.22-.073 0-.145.366-.218.511.218.073.509.146.727.146.073.073.219-.073.291-.146zm-8.874 62.444c.437.51.8.364 1.164-.146-.509-.365-.873-.365-1.164.145zm18.476-1.678c-.146-.146-.291-.365-.509-.438-.219 0-.437.146-.655.219.146.146.291.365.436.438.219 0 .437-.146.728-.22zm13.893-6.128c-.436-.51-.873-.584-1.382 0 .509.51.946.438 1.382 0zm7.056-20.352c-.146-.22-.219-.438-.364-.657-.073.073-.291.22-.291.292 0 .292.145.51.218.802l.437-.437zm-39.134-22.979c-.145-.146-.291-.437-.436-.437-.218 0-.509.145-.728.291.146.146.291.438.437.438.218-.073.509-.219.727-.292zm42.48 38.954c-.073-.073-.146-.219-.219-.291-.072.072-.218.145-.218.218 0 .073.146.22.218.22.073.072.146-.074.219-.147zm-14.912 1.532c-.073.073-.218.146-.218.219.073.365.291.365.436.073 0-.146-.145-.219-.218-.292zm-34.623.803c-.073.072-.291.145-.219.218.073.365.291.365.437.073 0-.073-.146-.219-.218-.291zm34.841 11.598c-.072-.073-.218-.292-.218-.292-.364.146-.436.292 0 .511l.218-.219zM233.355 38.33c-.073.073-.291.146-.218.219.073.364.291.364.436.073 0-.073-.145-.22-.218-.292zM62.201 90.78c-4.219-1.095-8.438-.439-12.51-.511-.801 0-1.674.364-2.62.583-.145-.146-.509-.438-.872-.73 1.454-2.334-.146-5.106 1.454-7.513-.509-1.24-1.309-2.626-.218-3.94-.654-1.093-.8-2.188-.145-3.282.582-1.021.218-1.97-.218-2.772.218-.583.509-1.094.581-1.677.073-2.918.219-5.763 0-8.681-.145-2.407-.945-4.742-1.09-7.15-.946-1.458-.437-3.136-.728-4.887-1.455-3.063-3.346-6.054-6.328-8.243-3.783-1.094-3.783-1.02-7.42-.73-2.546.22-4.51 1.46-6.546 2.335-3.928 3.064-6.474 7.003-8.074 12.11.436.948.727 2.48.655 4.084-.073 1.46 0 2.918 0 4.304v9.046c0 1.605.218 3.282-.146 4.742-.364 1.386.364 2.772-.655 3.793.291.656.51 1.021.582 1.167-.29 2.188-.582 4.158-.8 6.127-2.764.438-2.764.438-5.383-.364-3.127.948-4.51 1.021-9.747.438-.8-2.772.655-5.763-1.018-8.244.218-.583.437-1.02.51-1.313-.146-.656-.583-1.24-.437-1.677.436-1.386.073-2.773-.073-4.085-.073-1.46 0-2.918 0-4.304 0-4.45-.145-8.973 0-13.423.073-1.678-.727-3.063-.873-4.668.218-.511.437-1.022.728-1.678-.146-.292-.291-.73-.437-1.094-.436-1.678-.582-3.429.073-5.107.364-1.021.364-1.97.436-2.99 0-2.773 0-5.472.073-8.244 0-1.386.218-2.772.364-4.376-.291-.365-.655-.876-1.164-1.387 2.037-.875 4-1.313 5.965-1.24.582 0 1.236.073 1.745-.146 3.2-1.386 6.474-.583 9.602-.729.873.656.655 1.386.655 2.115 0 1.751.072 3.429.072 5.107 1.019.365 1.31-.51 1.819-.803.509-.291 1.09-.437 1.454-.875 2.62-2.99 6.256-3.793 9.893-4.669 1.382-.364 2.764-.802 4.146-.875 3.2-.146 6.328-.146 9.529 0 1.818.073 3.564.875 5.237 1.678.8.365 1.528.802 2.91 1.459.872.875 2.109 2.334 3.418 3.574 1.019.948 1.673 2.116 2.037 3.283 1.018 3.501 2.182 7.076 2.91 10.723.654 3.137.727 6.274.8 9.41 0 1.022 0 1.97.509 2.918.29.584.29 1.386.29 2.116.073 9.556.073 19.112.073 28.595-.072 1.021 0 1.897-1.018 2.7zM45.835 37.381c.145.218.29.364.364.583.072-.146.218-.219.29-.365-.218-.145-.363-.218-.581-.364a70.644 70.644 0 00-1.382-2.407c-.873-.292-1.528-.292-2.037.291 0 .292-.073.51-.073.876 1.164.51 2.037 1.459 3.419 1.386zM7.138 27.242c.51.73 1.236.51 1.964.584.655.072 1.31.291 1.964.437.582-.583 1.455-1.021.654-2.188H9.175c-.582.364-1.31.802-2.037 1.167zm31.205 1.167c.8-.292 1.455-.438 2.11-.656.508-.146 1.309.364 1.745-.803-1.673-.073-3.128-.219-4.655.073.072.292 0 .438.072.51.146.22.364.438.728.876zM55.727 88.08c2.255.51 2.255.51 4.728.073-2.109-.656-2.109-.656-4.728-.073zm-4.8-19.987c.218-1.97.509-3.283-.51-5.399-.145 2.189-.581 3.502.51 5.398zm7.419-22.177c-.291 2.262-.291 2.262.29 3.21.437-.948.437-1.896-.29-3.21zM4.738 67.51c.581-1.094.581-2.043 0-3.137-.51 1.094-.582 2.043 0 3.137zm41.606-37.057c-.51.875-.655 1.604.073 2.334h1.164c-.51-.875-.8-1.532-1.237-2.334zM4.81 29.357c.219-.437.364-.802.582-1.167.146-.364.291-.656.437-1.094-.437-.073-.655-.073-.946-.073-.655.73-.8 1.459-.073 2.334zm11.64 30.274c-.51-.584-.873-.949-1.31-1.386-.364.583-.582 1.094 0 1.459.291.145.728-.073 1.31-.073zM43.58 40.81c-.29.072-.655.145-1.236.364.581.51.945.875 1.309 1.24.654-.657.436-1.094-.073-1.605zm-15.42-3.356c-.655.656-.364 1.167.145 1.459.218.145.654-.146 1.236-.292-.654-.51-1.018-.876-1.382-1.167zM49.034 86.11c-.145.218-.363.364-.436.51 0 .219.146.438.218.657.146-.146.364-.292.437-.438 0-.146-.146-.365-.219-.73zm7.71-4.304c-.436.437-.508.802 0 1.24.437-.365.437-.803 0-1.24zm2.62-14.809c-.51.438-.51.876 0 1.313.508-.437.436-.875 0-1.313zM5.028 61.162c-.073-.072-.146-.218-.219-.218-.363.073-.363.291-.072.437.072.073.218-.145.29-.218zm54.553-9.483c-.072-.073-.145-.218-.218-.291-.072.073-.218.145-.218.218 0 .073.146.146.218.292 0-.073.073-.146.219-.219zM4.81 68.75c-.072.073-.218.146-.218.219.073.365.291.365.437.073 0-.073-.146-.219-.219-.292zm55.573 4.596a1.005 1.005 0 01-.219-.292c-.072.073-.218.146-.218.219 0 .073.146.219.218.219.073.073.146-.073.219-.146zM5.829 46.427a1.006 1.006 0 01-.219-.292c-.072.073-.218.146-.218.22 0 .072.146.145.218.218.073 0 .146-.073.219-.146zm48.516 41.726a1.008 1.008 0 01-.218-.292c-.073.073-.145.146-.29.22.072.072.145.218.217.218.146 0 .219-.073.291-.146zm343.909.802c-1.237.438-2.255.803-3.564 1.24-2.546-.291-5.456.511-8.22-.656-1.236-.51-2.764-.219-4.437-.365 0-.656-.218-1.386.073-1.75.8-1.168.727-2.48.727-3.794 0-6.93-.145-13.86 0-20.79 0-1.167-1.091-2.115-.291-3.283-.727-1.604-.509-3.355-.581-5.106-.073-1.313.145-2.553-.655-3.793-.291-.438-.218-1.094-.218-1.678V28.7c.582-.364 1.309-.875 2.546-1.677.436-.073 1.6-.292 2.618-.657 1.455-.51 2.764-.364 4.219.438 1.237-.51 2.546-1.24 3.637-.365a61.512 61.512 0 003.855-.51c.364.437.8.875 1.164 1.313-.291.948-.582 1.75-.873 2.699.727 1.605 1.382 3.283.218 5.18-.363.51-.145 1.385-.145 2.115 0 4.303-.073 8.68 0 12.984 0 .876.291 1.678.363 2.553.073.803.437 1.678.146 2.335-.873 1.97-.509 4.012-.509 5.981-.073 8.243 0 16.487 0 24.73-.073 1.094-.073 2.115-.073 3.136zm-7.783-11.744c-.873.292-1.018.802-.436 1.532.581-.365.436-.949.436-1.532.946-.22 1.018-.73.509-1.46-.582.366-.436.95-.509 1.46zm3.564 1.386c.946-1.605 1.819-3.064 1.819-4.888-.073-5.617-.073-11.234-.073-16.778 0-.364-.218-.802-.364-1.24-.145.22-.364.292-.364.365-.072 1.167-.145 2.261-.218 3.428-.072 1.168.146 2.408-.218 3.356-.509 1.24-.582 2.48-.582 3.793 0 3.283-.073 6.639-.073 9.921-.072.657 0 1.313.073 2.043zm-6.11-11.161v5.47c0 .22.218.511.364.803.364-.073.727-.073 1.309-.219v-9.044c0-2.918 0-2.918-.727-4.377-.364 2.189-.146 4.158-.291 6.128-.146.364-.364.73-.655 1.24zm2.328 20.644c-.509-.875-1.019-1.678-1.673-2.48-.218-.292-.728-.365-1.019-.51-.8.583-1.527 1.093-1.382 2.26.437.365 1.019.803 1.382 1.095 1.092 0 1.964.364 2.692-.365zm5.019-42.747c-.655 2.99-.655 3.72 0 6.492.654-2.699.654-3.428 0-6.492zm-11.275-9.921c.655-1.094.582-2.043 0-3.21-.509 1.094-.654 2.116 0 3.21zm0 9.045c-.727.73-.654 1.46 0 2.189.655-.73.655-1.46 0-2.189zm4.292-14.297c.509-.438.582-.876 0-1.313-.509.437-.437.875 0 1.313zm1.018 3.939c-.145.146-.364.292-.436.51 0 .22.145.438.218.657.145-.146.364-.292.436-.438 0-.219-.145-.51-.218-.73zm-5.092 14.079c-.072-.073-.145-.22-.218-.22-.363.074-.363.293-.073.439.146 0 .219-.146.291-.22zm-.363-43.55c1.454-1.532 2.618-3.21 4.8-3.647h3.273c2.328.364 4.219 2.042 6.256 5.763v6.565c-.727 1.094-1.6 2.407-2.473 3.793-3.419.292-6.692.365-10.111.073-1.018-1.094-2.036-2.261-3.564-3.94-.145-.51-.509-1.75-.946-3.063.873-1.678 1.746-3.501 2.765-5.544zm10.983 10.067c-.291.146-.946.073-.436.656l.436-.656c.582 0 .873-.292.873-.876.291-.145.946-.073.364-.656l-.437.656c-.509.073-.8.365-.8.876zm-9.529-2.553c-.145-.22 0-.949-.654-.438l.654.438c-.218 1.386.8 2.261 1.455 3.428.364-.146.727-.219 1.164-.364-.291-1.678-1.309-2.48-2.619-3.064zm7.565-1.386c-1.309.219-2.546.437-3.128 1.97 1.601.656 2.546-.074 3.274-1.168-.073-.219-.073-.51-.146-.802zm-4.728-4.96c.436-.876 1.819-.147 2.037-1.314-.728-.292-1.382-.365-2.11.219 0 .365.073.73.073 1.094zm5.383 2.042c-.437.146-.8.292-1.237.437.146.438.291.803.437 1.24.436-.145.8-.291 1.236-.437-.218-.51-.291-.875-.436-1.24zm-2.037-2.991c.8.365 1.528.656 2.255 1.021.073-.51.073-.73.145-1.021-.8-.73-1.527-.802-2.4 0z"/></g><defs><clipPath id="clip0_447_197"><path fill="#fff" d="M0 0h400v115H0z"/></clipPath></defs></svg>