<svg width="36" height="24" viewBox="0 0 36 24" fill="none" xmlns="http://www.w3.org/2000/svg">
<path d="M14.7909 15.8446C14.8992 16.065 14.9733 16.3006 15.0108 16.5433L14.4417 16.7291C14.1389 16.4891 13.8643 16.2218 13.5435 16.0318C13.2316 15.8469 13.0625 15.4847 12.6898 15.4097L12.551 15.1676C12.1475 14.9481 11.8133 14.605 11.4546 14.2931C11.301 14.1369 11.1571 13.9714 11.0238 13.7975L10.754 13.6454C10.5196 13.4423 10.3097 13.2125 10.1286 12.9607C10.0864 12.8928 10.0318 12.8334 9.96783 12.7854C9.58862 12.53 9.27199 12.1923 9.04159 11.7974C8.93878 11.6129 8.74792 11.4758 8.59077 11.3237C8.44958 11.187 8.29176 11.0667 8.15605 10.9249C8.02034 10.783 7.90138 10.6221 7.75148 10.441L7.6657 10.1782L7.89614 9.91356L8.2801 9.78821C8.39745 9.80174 8.55379 9.81967 8.68187 9.83448C8.98384 10.1094 9.28564 10.3413 9.53306 10.6209C9.78048 10.9006 10.002 11.201 10.327 11.4913L10.4373 11.7313C10.5777 11.8551 10.6914 11.9654 10.8154 12.0627C11.0051 12.2115 11.1234 12.428 11.2971 12.5823C11.4758 12.7411 11.6608 12.8771 11.7847 13.0937C11.8488 13.2056 11.9942 13.2701 12.0995 13.3594C12.6588 13.8335 13.1808 14.3485 13.7451 14.8174C13.9299 14.9617 14.094 15.1308 14.2326 15.32C14.3851 15.5456 14.5932 15.6861 14.7909 15.8446Z" fill="white" stroke="white" stroke-width="0.833333"/>
<path d="M31.9924 4.19985C31.8431 4.70914 31.7053 5.20518 31.5508 5.69571C31.4724 5.98399 31.3692 6.26495 31.2424 6.53545C31.1431 6.72755 31.1009 6.9496 31.0078 7.14561C30.8789 7.41565 30.8473 7.71731 30.694 7.9817C30.5342 8.25738 30.5217 8.59319 30.4026 8.88496C30.2889 9.16381 30.2265 9.45398 30.1335 9.73711C30.0538 9.98186 29.9681 10.2253 29.8746 10.5L29.624 10.7786L29.3201 10.8779L29.1195 10.7815C29.0992 10.741 29.0856 10.6974 29.0794 10.6526C29.1247 10.2778 29.2062 9.9083 29.3229 9.54929C29.5099 8.90147 29.6356 8.23516 29.9121 7.61462C29.9558 7.17399 30.1394 6.77252 30.2675 6.35593C30.4776 5.67345 30.6974 4.99389 30.927 4.31723C31.01 4.07227 31.0602 3.81607 31.243 3.57141C31.3533 3.4691 31.5314 3.45802 31.7226 3.4042C31.8669 3.67543 31.9067 3.95388 31.9924 4.19985Z" fill="white" stroke="white" stroke-width="0.833333"/>
<path d="M21.3082 11.6742L21.1524 11.8976C21.082 11.8872 21.008 11.8988 20.9715 11.8672C20.8072 11.7245 20.6534 11.5695 20.4737 11.3977C20.3652 11.0809 20.2439 10.742 20.1328 10.3997C19.7117 9.10311 19.2929 7.80578 18.8761 6.50774C18.8221 6.33914 18.7199 6.17462 18.8144 5.99881C18.4178 5.53004 18.4429 4.95273 18.3184 4.34903L18.4136 4.17489C18.5728 4.19382 18.7061 4.20959 18.8536 4.22711C18.9126 4.38442 18.9705 4.53186 19.0231 4.68116C19.0966 4.88899 19.1397 5.11287 19.2454 5.30243C19.3384 5.46949 19.4281 5.62541 19.429 5.81989C19.5907 5.94804 19.6133 6.11095 19.5718 6.30542C19.5736 6.38567 19.5939 6.46443 19.631 6.53558C19.7721 6.97454 19.9129 7.4136 20.0569 7.85169C20.1253 8.05948 20.1699 8.2813 20.3806 8.37463L20.3588 8.72117C20.4284 8.81521 20.4918 8.91374 20.5485 9.0161C20.5969 9.12631 20.6359 9.24039 20.6652 9.35713C20.6982 9.47172 20.7625 9.59752 20.7402 9.70293C20.7119 9.83637 20.8359 9.90081 20.8212 10.0289C20.8219 10.1674 20.8501 10.3044 20.9043 10.432C21.0303 10.8328 21.1638 11.2319 21.3082 11.6742Z" fill="white" stroke="white" stroke-width="0.833333"/>
<path d="M6.81485 20.2777C6.98887 20.475 7.25149 20.5797 7.4996 20.7066C8.01582 20.9704 8.5332 21.2319 9.03651 21.4875L9.14597 21.8228C9.08874 21.9611 8.96938 21.9427 8.87846 22.0026C8.44485 21.9575 8.02395 21.8295 7.63866 21.6255C7.45157 21.5229 7.29553 21.3722 7.06825 21.3278C6.87389 21.2847 6.68841 21.2084 6.51996 21.1023C6.14554 20.8754 5.72364 20.7822 5.3233 20.6282C5.10678 20.545 4.86546 20.4702 4.71602 20.2615C4.2734 20.0943 3.91619 19.7481 3.43945 19.6548L3.14604 19.2581L3.36556 18.7803C3.51306 18.7659 3.64592 18.7526 3.84589 18.7333C3.93484 18.7796 4.01974 18.8332 4.0997 18.8936C4.19131 18.9702 4.26485 19.0556 4.40196 19.0602C4.48215 19.0698 4.5575 19.1037 4.61798 19.1572C5.11911 19.5691 5.72906 19.7833 6.29129 20.0833C6.46169 20.1587 6.63654 20.2236 6.81485 20.2777Z" fill="white" stroke="white" stroke-width="0.833333"/>
</svg>
