<svg width="24" height="19" viewBox="0 0 24 19" fill="none" xmlns="http://www.w3.org/2000/svg">
<path d="M15.2649 4.41453L15.3639 4.6792C15.42 4.69133 15.4903 4.70635 15.6158 4.73328C15.753 4.83768 15.8266 5.07574 16.0743 5.1766C16.2514 5.24863 16.3758 5.46622 16.5071 5.63216C16.7988 6.0107 17.1192 6.36623 17.4654 6.69562C17.7185 6.93032 17.9834 7.15669 18.1306 7.48352C18.1644 7.55644 18.2151 7.62028 18.2784 7.66977C18.6295 7.93991 18.8122 8.32952 19.0211 8.70025C19.1393 8.91024 19.2519 9.12337 19.359 9.33964C19.4628 9.5509 19.7059 9.68261 19.7097 9.95078C20.0459 10.5923 20.1098 10.8726 20.2719 11.736C20.3263 12.0253 20.4433 12.2942 20.3213 12.5876C20.4124 12.8621 20.2853 13.1105 20.2364 13.3704C20.1925 13.6013 20.2113 13.8445 20.1652 14.0747C20.1063 14.3084 20.0354 14.5389 19.9528 14.7653C19.8734 15.0193 19.8154 15.276 19.5985 15.4705C19.5085 15.5512 19.4888 15.7104 19.4302 15.851C19.0681 16.1179 18.661 16.3177 18.2284 16.441C17.8586 16.5287 17.4911 16.4284 17.1246 16.4169C16.7705 16.4053 16.5241 16.1046 16.221 15.8941C16.044 15.3456 15.9285 14.7791 15.8767 14.2051C15.8503 13.8391 15.8024 13.4749 15.7333 13.1146C15.6224 12.5152 15.5735 11.9061 15.5874 11.2967C15.5958 11.0077 15.542 10.7175 15.53 10.4272C15.519 10.1655 15.5274 9.90287 15.5248 9.64087C15.5226 9.40445 15.4305 9.17281 15.5131 8.92979C15.5352 8.82648 15.5312 8.71929 15.5013 8.61795C15.4158 8.20242 15.4451 7.77354 15.3501 7.35999C15.255 6.94644 15.2599 6.52181 15.1866 6.10486C15.1271 5.64868 14.9932 5.20535 14.7901 4.79253L15.0519 4.35266C14.9992 4.11984 14.748 4.00303 14.531 3.80677C14.3377 3.83477 14.1342 3.86417 13.9413 3.89216L13.8582 4.15809C13.9459 4.54248 14.158 4.89567 14.1579 5.30342C14.1577 5.67815 14.34 6.01582 14.3641 6.38894C14.3894 6.78394 14.4882 7.1691 14.4953 7.57214C14.5031 7.9917 14.6429 8.40324 14.6291 8.83482C14.6189 9.149 14.685 9.46495 14.696 9.78078C14.6918 9.96974 14.676 10.1583 14.6488 10.3453C14.7636 10.6643 14.8216 11.001 14.8202 11.34C14.8221 12.001 14.8623 12.6674 15.1184 13.2947C15.1052 13.8309 15.3166 14.3295 15.381 14.8544C15.4357 15.3005 15.5513 15.7392 15.6181 16.072C15.8248 16.5589 16.2399 16.6228 16.5267 16.8464C16.8243 17.0782 17.22 17.0422 17.5896 17.0878C17.977 17.1356 18.3275 17.0287 18.6779 17.0153C19.1406 16.8382 19.5623 16.5685 19.9171 16.2227C20.3689 15.6423 20.5833 14.93 20.7792 14.2105C20.8276 14.0325 20.9098 13.8631 20.8568 13.6628C20.8372 13.5585 20.8501 13.4506 20.8937 13.3537C21.1074 12.8423 21.019 12.3073 21.0283 11.7805C21.0172 11.6766 20.9963 11.5739 20.9658 11.474C20.8372 10.762 20.4856 10.1261 20.2723 9.44289C20.219 9.32101 20.1471 9.2081 20.0592 9.1082C20.0134 9.04436 19.9234 8.99942 19.9038 8.93145C19.7955 8.60636 19.6179 8.3087 19.3832 8.0591C19.1595 7.79876 18.9857 7.49093 18.6896 7.29599C18.1418 6.53243 17.3928 5.96717 16.7277 5.31962C16.4132 5.03939 16.076 4.78574 15.7195 4.56124C15.6166 4.4913 15.4725 4.47937 15.2649 4.41453Z" fill="white" stroke="white" stroke-width="0.833333"/>
<path d="M7.83273 3.94288L7.29636 3.77529L6.92913 3.94762C6.71228 4.28212 6.54672 4.62048 6.30394 4.889C6.05814 5.16082 5.84297 5.45864 5.5712 5.71442C5.26874 5.99868 5.02351 6.34977 4.73111 6.65344C4.29288 7.14126 3.77019 7.54597 3.18819 7.84812C2.8372 8.13462 2.59001 8.48383 2.24264 8.74203C2.01217 8.92189 1.8415 9.16726 1.75304 9.4459C1.68688 9.64906 1.61269 9.84987 1.54833 10.0536C1.39628 10.5348 1.23077 11.0142 1.32212 11.6226L1.50517 12.1467L1.88358 12.6667C2.09408 12.7325 2.32472 12.7999 2.55217 12.8766C3.07414 13.0527 3.59137 13.0039 4.11471 12.8736C4.66615 12.7361 5.14259 12.4412 5.58081 12.2214C5.89179 11.9538 6.15325 11.7306 6.413 11.5052C6.90177 11.0587 7.26942 10.4956 7.48164 9.86856C7.55414 9.63923 7.62643 9.40968 7.69687 9.1797C7.7673 8.94972 7.90274 8.71415 7.88713 8.48926C7.86416 8.16063 7.99211 7.86387 7.99106 7.54845C7.98984 7.20638 8.02846 6.85271 7.95571 6.52536C7.86708 6.1257 7.99344 5.73436 7.91831 5.34401C8.07713 4.88867 7.91874 4.45462 7.83273 3.94288ZM4.23534 12.2937C3.73663 12.4199 3.22088 12.4652 2.70779 12.4279C2.49958 12.271 2.2921 12.1141 2.08745 11.9603L1.98169 10.7773L2.27811 10.1342L2.27721 9.9075C2.3599 9.83353 2.43005 9.74666 2.48493 9.65024C2.60288 9.3535 2.8052 9.09782 3.06687 8.9148C3.3252 8.68802 3.61032 8.49372 3.91587 8.33624C4.0784 8.24844 4.23083 8.14317 4.3705 8.02228C4.80939 7.68218 5.22741 7.31743 5.64532 6.95166C5.95168 6.70131 6.22887 6.41725 6.47161 6.10483C6.52261 6.01313 6.59673 5.93637 6.68661 5.88223C6.91173 5.79566 6.95426 5.56219 7.12868 5.39385L7.57314 6.20109C7.49635 7.56721 7.52926 7.73992 7.19896 8.73098C7.09826 8.9783 7.01539 9.2325 6.95097 9.49165C6.88235 9.8743 6.61696 10.1491 6.46178 10.4827C6.37631 10.6657 6.19286 10.8041 6.04927 10.9584C5.81485 11.2106 5.57691 11.46 5.34677 11.7039L4.23534 12.2937Z" fill="white" stroke="white" stroke-width="0.833333"/>
</svg>
