<svg width="286" height="225" viewBox="0 0 286 225" fill="none" xmlns="http://www.w3.org/2000/svg">
<g clip-path="url(#clip0_182_455)">
<path d="M80.9764 176.871C80.763 175.422 80.5434 173.941 80.2928 172.234C79.4636 170.813 79.1301 169.023 79.0488 167.159C78.8102 166.721 78.5675 166.276 78.2602 165.712C78.1248 164.685 78.2434 163.468 77.5089 162.454L77.8385 161.713C77.6001 159.268 76.7442 156.899 76.4516 154.33L76.9582 153.278C76.8487 153.171 76.7372 153.063 76.5871 152.917C76.4787 152.229 76.3932 151.492 76.2362 150.77C76.1248 150.442 75.9764 150.128 75.7938 149.833C75.8241 148.867 76.4038 147.902 75.8421 146.876C75.7375 146.686 76.1307 146.275 76.1421 145.96C76.1871 144.705 76.1712 143.448 76.1802 142.026L77.3115 139.199C77.8095 138.625 78.5235 137.916 79.1 137.11C79.6067 136.437 80.3255 135.956 81.1404 135.743C81.5325 135.617 81.9603 135.589 82.3371 135.432C82.6819 135.264 83.0128 135.069 83.3266 134.849C85.2128 134.816 86.5261 136.145 88.1244 136.297C89.2332 138.126 90.737 139.683 92.5251 140.855C92.5415 141.023 92.5569 141.191 92.5675 141.305C92.8496 141.541 93.1023 141.752 93.3103 141.925C93.3247 142.266 93.3347 142.516 93.3502 142.899C93.6189 143.085 93.954 143.321 94.3717 143.612C94.8113 144.589 95.7944 145.41 95.7319 146.778C96.3328 147.185 96.952 147.605 97.6816 148.1L100.639 152.978L101.918 153.438C101.96 153.637 102.008 153.866 102.085 154.239C103.782 155.5 105.224 157.225 106.929 158.815L107.002 159.437C108.011 160.406 109.027 161.383 110.084 162.395C110.296 162.456 110.537 162.525 110.793 162.598L112.617 161.493C113.541 159.35 113.159 156.948 113.516 154.699C113.308 154.273 113.124 153.892 112.97 153.577L112.993 148.912C112.755 148.464 112.477 147.941 112.21 147.438C112.312 145.741 112.499 144.058 111.593 142.521C111.635 141.686 111.631 140.85 111.581 140.016C111.454 139.499 111.262 139 111.009 138.532L111.153 137.063C110.569 136.32 110.514 135.38 110.463 134.465C110.381 133.13 110.198 131.803 109.914 130.496C109.764 129.783 109.512 129.098 109.671 128.28C109.802 127.605 109.422 126.829 109.269 126.101C109.477 125.614 109.696 125.169 109.857 124.704C110.018 124.238 110.125 123.743 110.266 123.219C110.768 123.159 111.263 123.055 111.747 122.909C112.188 122.698 112.611 122.45 113.009 122.166L114.567 122.491C114.756 122.674 114.933 122.869 115.098 123.075C115.574 123.756 115.843 124.606 116.672 124.976C116.848 126.303 117.519 127.576 116.967 128.777C117.864 130.953 118.125 133.097 118.531 135.227L118.843 135.448C119.066 136.746 119.299 137.977 119.484 139.214C119.683 140.54 119.273 141.886 119.616 143.221C119.931 144.448 119.686 145.697 119.645 146.95C120.231 148.336 120.64 149.727 120.099 151.277C119.975 151.541 119.943 151.84 120.006 152.126C120.069 152.411 120.225 152.668 120.449 152.857C120.69 153.055 120.626 153.627 120.698 154.029C120.786 154.518 120.873 155.009 121.015 155.813C120.958 156.158 120.846 156.821 120.739 157.456C121.186 158.913 121.131 160.477 120.585 161.897C119.819 163.857 118.409 165.43 117.077 167.008C116.458 167.708 115.644 168.205 114.738 168.435C113.275 168.784 112.004 169.701 110.438 169.903L108.572 169.373C108.12 168.999 107.772 168.482 107.347 168.407C106.329 168.229 105.94 167.209 105.057 166.907C103.717 165.076 101.84 163.793 100.244 162.223C99.5648 161.554 99.0771 160.666 98.2002 160.46C97.7732 159.832 97.4421 159.344 97.1326 158.889L95.6629 158.313L92.7273 153.47C92.2493 153.256 91.7186 153.021 91.2683 152.821C90.36 151.504 89.5046 150.255 88.6336 149.016C88.5406 148.917 88.4283 148.839 88.3035 148.785C88.1975 148.362 88.0558 147.949 87.88 147.55C87.6671 147.159 86.9194 147.11 87.1477 146.419C86.7177 146.043 86.3235 145.627 85.9703 145.178C85.6574 144.794 85.2986 144.45 84.902 144.154C84.756 144.017 84.9843 143.605 84.5635 143.619C84.4429 143.65 84.3264 143.695 84.2164 143.753C83.8077 144.408 83.9322 145.303 83.5759 146.042C83.7916 147.482 84.1499 148.883 84.1691 150.288C84.1871 151.605 84.5655 152.912 84.2838 154.217C85.0242 155.37 85.0097 156.783 85.7054 157.957C85.9668 158.398 85.8516 159.109 85.7812 159.682C85.6367 160.682 85.8072 161.702 86.2691 162.602C86.6017 163.255 86.7033 164.025 86.9987 165.061L86.7034 167.036L88.0326 169.229C88.2786 170.133 87.7285 170.843 88.1725 171.633C88.4777 172.176 88.4378 172.903 88.7485 173.528C89.0743 174.185 89.1777 174.951 89.4646 175.978L89.338 177.928C88.4997 178.686 87.3756 179.129 86.7048 180.173C86.5494 180.418 86.3239 180.61 86.0577 180.725C85.7915 180.84 85.4969 180.871 85.2119 180.816L85.1289 180.299L84.2291 180.246C84.2045 180.032 84.1851 179.866 84.1665 179.706C83.6675 179.39 83.1713 179.076 82.6049 178.719C82.0791 178.183 81.9216 177.226 80.9764 176.871Z" fill="white"/>
<path d="M151.967 161.013C151.803 161.619 151.561 162.514 151.284 163.537C151.02 163.718 150.684 163.958 150.336 164.182C149.982 164.41 149.617 164.621 149.291 164.819L147.984 164.955L146.127 164.14C145.637 163.617 145.127 163.073 144.416 162.314C144.343 161.619 144.213 160.599 143.138 160.11C142.892 158.644 142.646 157.179 142.391 155.662L141.767 155.242C141.723 154.986 141.667 154.668 141.61 154.34C141.477 154.26 141.332 154.173 141.1 154.034C140.734 152.878 140.444 151.698 140.232 150.504C140.069 149.353 139.819 148.215 139.482 147.102C139.38 146.614 139.2 146.146 138.949 145.715C138.808 145.505 138.548 145.247 138.589 145.066C138.843 143.926 137.718 143.249 137.688 142.219C137.672 141.717 137.616 141.215 137.572 140.628C137.334 140.184 137.056 139.663 136.747 139.085C136.741 138.433 136.695 137.783 136.611 137.137C136.46 136.496 136.27 135.865 136.042 135.248L135.574 134.968C135.321 134.105 135.143 133.222 135.042 132.329C134.99 131.175 134.787 130.033 134.439 128.932L133.792 128.438L133.693 124.374L134.701 121.63L135.421 120.92L135.877 119.663C136.778 118.955 137.83 118.462 138.951 118.223C140.064 117.917 141.155 117.539 142.218 117.09L143.956 117.548C146.134 118.801 148.181 120.27 150.067 121.931C150.253 122.095 150.603 122.147 150.691 122.336C151.08 123.18 151.865 123.698 152.343 124.458C152.381 124.521 152.356 124.624 152.363 124.737L153.462 125.09C153.693 125.375 154.009 125.763 154.435 126.286C155.489 126.958 156.693 127.721 157.89 128.482C157.922 128.732 157.954 128.98 157.981 129.206C159.123 130.318 160.36 131.303 161.307 132.799C162.392 133.121 163.298 133.968 164.239 134.788C165.236 135.657 166.181 136.634 167.623 137.081L169.23 136.229C169.683 135.56 169.878 134.75 169.779 133.947C169.581 132.197 169.472 130.436 169.327 128.684L168.894 128.415C168.812 127.756 168.73 127.097 168.645 126.415C168.381 125.911 168.108 125.389 167.864 124.924C167.759 123.515 167.66 122.174 167.558 120.808C167.108 119.939 166.484 119.089 166.215 118.139C165.642 116.316 165.179 114.46 164.827 112.582C164.592 111.101 164.327 109.623 163.994 108.161C163.867 107.601 163.514 107.091 163.015 106.029C162.795 105.517 163.378 104.412 163.045 103.335C162.727 102.303 162.562 101.225 162.351 100.26L162.813 98.0272C163.035 97.826 163.288 97.6612 163.562 97.5389C164.132 97.4258 164.716 97.3911 165.384 97.3136L168.044 98.9938C168.289 100.238 168.495 101.381 168.75 102.513C168.871 102.822 169.03 103.115 169.224 103.384L169.089 104.626C169.922 105.836 170.286 107.281 170.628 108.759C170.981 110.287 171.627 111.742 171.937 113.289C172.085 114.026 172.231 114.764 172.396 115.589C172.752 115.876 173.319 116.186 173.283 116.857C173.238 117.698 173.881 118.23 174.158 119.213C174.265 120.359 174.399 121.779 174.55 123.383C175.612 124.86 175.959 126.729 176.122 128.669C176.159 129.113 176.033 129.636 176.481 130.04C176.875 130.396 176.708 130.971 176.797 131.445C177.059 132.833 177.29 134.228 177.573 135.839L176.914 137.195C176.897 137.631 176.871 138.296 176.848 138.902L175.297 140.8L174.083 141.033C172.75 142.703 170.638 143.435 168.835 144.656C167.378 143.611 165.711 144.219 164.092 143.877C164.032 143.695 163.963 143.479 163.895 143.269C163.465 142.91 163.023 142.542 162.588 142.178L161.195 142.467L157.584 139.966C157.529 139.724 157.458 139.411 157.373 139.037L156.039 138.559C155.729 138.13 155.334 137.59 155.021 137.159C153.996 136.378 153.068 135.673 152.142 134.967C152.1 134.727 152.057 134.485 152.014 134.243C151.898 134.128 151.802 133.959 151.663 133.91C150.72 133.563 149.854 133.031 149.118 132.345C147.63 131.013 146.034 129.802 144.517 128.499C143.697 127.795 142.773 127.169 142.468 126.008L141.632 126.242C141.632 128.011 141.951 129.766 142.573 131.423C143.036 132.569 143.157 133.85 143.471 135.061C143.563 135.415 143.854 135.718 143.94 136.073C144.04 136.633 144.107 137.197 144.141 137.764L145.563 140.11C145.941 141.776 146.151 143.373 147.09 144.622C147.302 145.945 147.5 147.18 147.721 148.563L149.305 151.176L149.508 153.425C150.376 154.567 150.508 156.093 150.785 157.469C151.025 157.629 151.163 157.722 151.318 157.826C151.516 158.776 151.71 159.74 151.967 161.013Z" fill="white"/>
<path d="M217.968 24.8482C218.837 25.6771 219.788 26.3112 220.352 27.194C221.004 28.2147 222.42 28.0172 222.835 29.0848C227.128 30.4334 232.666 31.6865 234.573 31.7272L235.624 32.2741C236.831 32.4469 237.827 32.5607 238.812 32.7412C239.466 32.8814 240.129 32.9722 240.797 33.0128C241.727 33.0036 242.641 33.2592 243.432 33.75C243.749 33.961 244.104 34.1075 244.477 34.181C244.85 34.2545 245.234 34.2536 245.606 34.1784C248.071 35.1326 249.935 36.9486 251.912 38.5907C252.393 38.9307 252.759 39.4104 252.959 39.9649C253.112 40.6842 253.784 41.1559 253.727 41.9442C253.741 42.3829 253.8 42.8191 253.903 43.2459C254.056 43.3733 254.245 43.5309 254.457 43.7084C255.357 47.529 255.791 46.6479 255.132 53.5146C254.795 54.3912 254.158 55.1189 253.334 55.5678L252.631 58.1459C252.164 58.4291 251.717 58.7438 251.292 59.0879C250.937 59.4643 250.614 59.8698 250.326 60.3L248.825 60.5896C248.289 60.9145 247.465 61.3496 246.711 61.8847C245.326 62.8689 243.569 63.0197 242.173 63.9645C241.101 63.9336 240.118 64.8112 239.02 64.1795C237.461 65.3155 235.748 64.7437 234.105 64.779C233.609 64.7896 233.102 64.5275 232.612 64.5633C230.619 64.7758 228.613 64.2692 226.955 63.1345C226.485 62.298 226.123 61.4049 225.879 60.4769C226.686 59.6383 227.826 59.2382 228.693 58.6173C230.091 58.2472 231.437 58.373 232.756 58.007C234.013 57.6583 235.412 57.8985 236.714 57.4795C237.082 57.3608 237.543 57.5346 238.042 57.5808C238.332 57.4667 238.611 57.3257 238.875 57.1596C239.758 56.5195 240.792 56.1216 241.877 56.0053C242.867 55.8363 243.809 55.4579 244.641 54.8953C245.134 54.6493 245.643 54.4361 246.164 54.2571L248.212 51.8746L249.116 49.3308C249.119 48.5732 249.123 47.4861 249.129 46.2007C248.844 45.3756 248.005 44.5819 247.96 43.3896C247.941 42.8765 247.399 42.3825 247.107 41.9005C245.74 41.3957 244.421 40.8538 243.067 40.4225C241.781 40.0133 240.459 39.7193 239.169 39.379L237.774 39.8515L236.418 39.2978C235.168 39.4011 233.915 38.7171 232.598 38.6135C231.321 38.5127 230.214 37.8896 228.964 37.7449L227.923 38.0926C227.028 37.995 226.175 37.3923 225.128 37.4374C224.445 37.4693 223.774 37.2474 223.244 36.8146C222.894 36.5806 222.497 36.4277 222.081 36.3669C220.628 35.9733 219.245 35.3535 217.983 34.5301C216.682 33.7587 215.426 32.9135 214.154 32.1029L214.033 31.3721C213.15 30.5975 212.267 29.8436 212.187 28.5213C212.106 28.1103 211.936 27.7218 211.69 27.3825C211.228 26.5775 210.733 25.7908 210.321 25.1104L210.255 23.8983C210.519 23.4015 210.72 22.8732 210.852 22.3259C210.909 21.4968 210.913 20.6649 210.863 19.8351L211.867 17.1888C212.738 16.8853 212.515 15.7219 213.186 15.2319C213.909 14.7021 214.069 13.8169 214.511 13.4036C215.148 13.1178 215.743 13.0378 216.009 12.6986C216.88 11.5648 218.135 10.7898 219.539 10.519C220.199 10.3837 220.79 10.0199 221.208 9.4914C221.769 8.64157 222.643 8.35405 223.455 7.77085L225.718 7.53862C226.937 6.55024 228.498 6.23892 230.087 6.06408C231.256 5.93542 232.362 5.57654 233.946 5.28942C234.409 5.2847 235.244 5.79077 236.226 5.60372C236.562 5.56883 236.902 5.6177 237.216 5.746C237.529 5.8743 237.807 6.07805 238.023 6.33917C238.406 6.73617 239.008 6.92076 239.525 7.20715C239.494 7.85355 240.114 8.26169 240.219 8.92169C240.304 9.47267 240.711 9.97372 240.978 10.5025C240.871 11.0243 240.77 11.5139 240.669 12.0049L239.438 12.7511L236.458 13.0697C235.988 12.9311 235.187 12.6503 234.365 12.4655C233.464 12.2206 232.504 12.3352 231.687 12.785C230.652 13.3822 229.486 13.5208 228.032 13.753C227.434 14.1993 226.787 14.575 226.102 14.8728C225.43 15.1036 224.896 15.5964 224.136 15.6852C223.814 15.7528 223.515 15.8996 223.264 16.1123C223.014 16.3251 222.82 16.5971 222.702 16.9038L220.33 17.7925L218.057 21.304L217.968 24.8482Z" fill="white"/>
<path d="M190.455 64.1128L191.081 64.0779C192.09 62.6244 193.838 62.0805 195.133 61.1017C196.367 60.7774 197.502 60.5298 198.602 60.178C200.256 59.5892 202.048 59.506 203.751 59.9389C203.989 60.0289 204.246 60.058 204.499 60.0235C204.823 59.9395 205.163 59.9331 205.491 60.0047C205.819 60.0764 206.126 60.2241 206.387 60.436C206.681 60.6331 207.196 60.5 207.804 60.5246L213.031 64.2235C213.056 64.3881 213.091 64.629 213.128 64.875C213.495 65.2011 213.882 65.5155 214.231 65.8628C214.581 66.21 214.896 66.5955 215.331 67.0821L215.412 67.6381C216.894 68.9644 217.955 70.6963 218.464 72.6188L218.905 72.9716C219.069 73.4936 219.27 74.0031 219.508 74.496C220.171 75.6749 220.89 76.8222 221.594 77.9779C221.998 78.5193 222.26 79.1535 222.356 79.822C222.468 80.3107 222.672 80.7738 222.957 81.1865C223.266 81.7792 223.74 82.2905 223.742 83.025C223.742 83.4287 224.32 83.5 224.324 84.0256C224.326 84.3119 224.879 84.5783 225.144 84.8871C225.312 85.0796 225.434 85.3081 225.499 85.5549C225.595 85.9326 225.763 86.2881 225.995 86.6015C226.228 86.9391 226.243 87.5324 226.396 88.0123C226.545 88.4806 226.492 89.0013 226.789 89.4509C227.181 90.0031 227.527 90.5861 227.825 91.1942C228.058 91.7147 228.019 92.382 228.319 92.84C228.689 93.4037 228.675 94.0709 229.042 94.632C229.282 95.122 229.455 95.6425 229.555 96.1791C229.481 97.0665 229.433 97.8991 229.336 98.7252C229.248 99.4742 229.105 100.216 229.005 100.843L227.245 102.798L225.382 102.357L224.165 101.334C224.183 100.285 223.297 99.4206 223.304 98.2948C223.311 97.189 222.464 96.285 222.496 95.1603C222.483 95.0765 222.45 94.997 222.401 94.9283C221.838 93.9982 221.413 92.9914 221.139 91.9395C220.936 90.9754 219.967 90.2894 219.915 89.1959C219.908 89.0389 219.533 88.9201 219.374 88.7433C219.133 88.5058 218.942 88.2227 218.811 87.9105C218.681 87.5982 218.614 87.2632 218.615 86.9251C218.467 86.8431 218.325 86.7515 218.189 86.6508C218.062 86.5449 217.965 86.4025 217.844 86.2871C217.476 85.9337 217.6 85.4004 217.291 84.9641C216.892 84.3939 216.842 83.5794 216.606 82.7472C216.645 82.7969 216.61 82.7041 216.55 82.6838C215.692 82.392 216.037 81.5208 215.723 80.9656C215.458 80.496 214.84 80.3775 214.801 79.6087C214.758 78.7688 213.955 78.2121 213.313 77.9259C213.048 77.0989 212.863 76.4603 212.639 75.8357C212.447 75.3008 212.211 74.7817 211.947 74.143C210.962 73.7309 210.82 72.4623 209.798 71.4545C208.263 70.7592 207.187 68.8697 205.153 68.053C201.894 67.8858 201.208 67.9706 198.061 68.982L196.122 72.0205C195.825 72.5576 196.202 73.1626 195.862 73.7367C195.292 74.774 195.06 75.9646 195.199 77.142C195.254 77.884 195.059 78.641 195.057 79.3914C195.105 79.9713 195.194 80.5471 195.325 81.1144C194.748 82.6675 195.273 84.5163 195.318 86.3564C195.344 87.4432 195.546 88.5263 195.694 89.8499C196.833 91.2196 196.396 93.3746 197.448 94.9659L197.266 96.4543C197.506 96.8502 197.813 97.3477 198.112 97.8509C198.416 98.2573 198.662 98.7046 198.841 99.1795C198.99 99.7315 199.294 100.23 199.716 100.616L199.568 102.195L200.578 102.945C200.684 104.966 201.672 106.755 202.687 108.98L202.797 110.365C202.987 110.76 203.201 111.209 203.384 111.592L202.631 114.005L199.857 115.686C199.346 115.458 198.901 115.229 198.432 115.059C198.039 114.916 197.621 114.841 197.165 114.723C196.205 113.072 194.974 111.576 194.416 109.701C193.882 109.486 194.083 108.969 194.042 108.612C193.87 107.096 193.536 105.661 192.629 104.388C192.24 103.837 191.993 103.198 191.91 102.529C191.821 101.891 191.401 101.299 191.115 100.662L190.962 99.1789C189.965 97.5884 189.996 95.8092 189.008 94.4003C188.869 92.6882 188.731 90.9344 188.587 89.1788C188.607 88.7576 188.561 88.3357 188.45 87.9285C187.425 85.568 187.989 82.9405 187.157 80.5547C187.351 79.0816 187.111 77.5575 187.65 76.1093C187.521 75.9527 187.378 75.7797 187.26 75.6362C187.313 74.5216 187.35 73.4344 187.422 72.3497C187.461 71.7694 187.592 71.196 187.629 70.6156C187.672 69.9288 188.317 69.504 188.302 68.7534C188.289 68.0914 188.872 67.5836 189.163 66.9934C189.453 66.4033 189.888 65.9057 189.856 65.1537C189.847 64.8084 190.25 64.4503 190.455 64.1128Z" fill="white"/>
<path d="M36.1782 184.928C36.2154 185.57 36.2449 186.074 36.2753 186.595C35.7311 187.687 35.5284 188.979 34.4574 189.923L33.7107 190.1L31.7257 191.626L30.1498 191.66C30.177 191.207 30.2007 190.8 30.2263 190.391L29.4581 190.415C28.7091 190.116 29.368 189.272 28.8999 188.832L28.0705 188.169L27.8346 185.659C27.9137 185.188 28.0614 184.731 28.2729 184.303C28.9732 183.144 29.3543 181.819 29.3774 180.463C29.4337 179.374 29.6147 178.296 29.917 177.249C30.3953 175.701 30.1776 174.068 30.6277 172.528C30.3727 171.794 30.9943 171.284 31.1377 170.427C30.8554 169.387 31.1522 168.169 31.4371 166.975C31.5885 166.597 31.655 166.191 31.6321 165.784C31.444 164.76 31.7056 163.777 31.9167 162.79C32.1627 161.904 32.3217 160.995 32.3914 160.078C32.4103 159.201 32.9721 158.348 33.2254 157.464C33.5274 156.409 33.9722 155.331 33.958 154.268C33.9433 153.066 34.7341 152.101 34.571 150.858C34.4331 149.81 35.1479 148.766 34.9689 147.632C34.9673 147.293 35.0361 146.958 35.1708 146.647C35.8894 144.21 35.9477 141.691 36.0812 139.183C36.1085 138.684 36.1735 138.187 36.22 137.689C36.3383 136.443 37.0705 135.378 37.142 134.081C37.2055 132.922 37.6794 131.787 38.0077 130.502C39.3374 128.743 39.884 126.59 39.8582 124.273L40.9157 122.024C41.3054 121.721 41.7147 121.852 42.1227 121.963C42.8525 122.164 43.5815 122.369 44.3012 122.57L45.5208 124.582C45.6887 126.335 45.5528 128.103 45.1191 129.808C44.7687 130.933 44.5783 132.101 44.5535 133.28C44.4866 134.038 44.3209 134.783 44.0606 135.497C43.6474 137.035 43.4134 138.617 43.3633 140.21C43.3071 141.897 43.2877 141.896 42.658 143.17C42.5637 144.049 42.4877 144.794 42.4023 145.538C42.3731 145.789 42.2483 146.047 42.2848 146.283C42.4668 147.465 42.1682 148.623 42.1631 149.776C42.1559 150.982 41.8069 152.093 41.6398 153.262L42.5798 154.813C44.4822 155.372 45.5381 157.195 47.2708 158.029C47.3115 158.19 47.35 158.345 47.4186 158.618C47.7904 158.777 48.2475 158.933 48.6659 159.162C49.0178 159.378 49.3562 159.616 49.6791 159.875C49.6399 160.571 50.4117 160.919 50.383 161.611C51.0918 162.047 51.7594 162.633 52.5347 162.885C53.3101 163.138 53.7752 163.701 54.3897 164.106C55.0897 164.566 55.726 165.105 56.3882 165.597C57.0432 166.084 57.3493 166.754 57.9272 167.398C59.3521 168.387 61.0377 169.301 61.5066 171.315L62.3376 171.853C62.568 172.233 62.7941 172.59 63.0037 172.956C63.1693 173.246 63.4546 173.555 63.4395 173.84C63.4137 174.308 63.7413 174.534 63.9173 174.847L63.3008 175.882C62.6484 176.509 61.8228 176.678 61.1452 177.188C60.487 177.052 59.8286 176.915 58.9135 176.726C56.5155 174.891 53.9322 172.915 51.1637 170.797C51.0662 170.657 50.8269 170.313 50.5331 169.892C48.9745 169.623 48.1071 167.953 46.4699 167.66C45.1558 166.648 43.6912 165.828 42.569 164.571C42.2841 164.202 41.9286 163.894 41.5235 163.664C41.1183 163.434 40.6716 163.287 40.2095 163.232C40.0264 163.398 39.8747 163.597 39.7614 163.817C39.0864 166.258 38.4375 168.707 37.8613 170.859C38.0884 171.703 38.2168 172.184 38.3497 172.675C38.0648 174.066 37.4973 175.41 37.6422 176.885C37.6319 177.222 37.5446 177.553 37.3872 177.851C37.1996 178.314 36.9256 178.741 36.7578 179.208C36.6408 179.608 36.5517 180.015 36.4909 180.427C36.6651 181.929 37.1124 183.418 36.1782 184.928Z" fill="white"/>
</g>
<defs>
<clipPath id="clip0_182_455">
<rect width="274.746" height="95.9112" fill="white" transform="translate(285.149 82.4761) rotate(148.779)"/>
</clipPath>
</defs>
</svg>
