<svg version="1.1" id="レイヤー_1" xmlns="http://www.w3.org/2000/svg" x="0" y="0" viewBox="0 0 128 143" xml:space="preserve" enable-background="new 0 0 128 143"><style>.st0{fill:#bcb9b7}.st3{fill:#fff}</style><path class="st0" d="M28.8 30.4L46.9.6l9 19.7m43.3 10.1L81.1.6l-9 19.7"/><defs><filter id="Adobe_OpacityMaskFilter" filterUnits="userSpaceOnUse" x="-.4" y="13.5" width="162.6" height="164.2"><feColorMatrix values="1 0 0 0 0 0 1 0 0 0 0 0 1 0 0 0 0 0 1 0"/></filter></defs><mask maskUnits="userSpaceOnUse" x="-.4" y="13.5" width="162.6" height="164.2" id="mask0_182_302_00000117652099394001097540000012083896086700392853_"><path d="M64 142.4c34.9 0 63.1-28.4 63.1-63.5S98.8 15.4 64 15.4.9 43.9.9 78.9c0 35.1 28.2 63.5 63.1 63.5z" fill="#fff" filter="url(#Adobe_OpacityMaskFilter)"/></mask><g mask="url(#mask0_182_302_00000117652099394001097540000012083896086700392853_)"><path class="st0" d="M64 142.4c34.9 0 63.1-28.4 63.1-63.5S98.8 15.4 64 15.4.9 43.9.9 78.9c0 35.1 28.2 63.5 63.1 63.5z"/><path class="st3" d="M45.8 79c10.5 0 19-8.5 19-19.1 0-10.5-8.5-19.1-19-19.1s-19 8.5-19 19.1c0 10.5 8.5 19.1 19 19.1zm-33 14.1c-.4 0-.8-.1-1.2-.4-.4-.2-.6-.6-.8-1-.2-.4-.2-.8-.1-1.2.1-.4.3-.8.6-1.1l12.2-12.3c.2-.2.4-.4.7-.5.3-.1.5-.2.8-.2.3 0 .6.1.8.2.3.1.5.3.7.5.2.2.4.4.5.7.1.3.2.5.2.8 0 .3-.1.6-.2.8-.1.3-.3.5-.5.7L14.3 92.5c-.2.2-.4.4-.7.5-.2.1-.5.1-.8.1zm53.7-49.9c-.4 0-.8-.1-1.2-.4s-.6-.6-.8-1c-.2-.4-.2-.8-.1-1.2.1-.4.3-.8.6-1.1l12.2-12.3c.4-.4.9-.6 1.5-.6s1.1.2 1.5.6c.4.4.6.9.6 1.5s-.2 1.1-.6 1.5L68 42.6c-.4.4-.9.6-1.5.6zm-33.8 62.3c-.2 0-.4 0-.6-.1-.5-.1-1-.5-1.3-1-.3-.5-.4-1.1-.2-1.6L35.1 86c.1-.5.5-1 1-1.3s1.1-.4 1.6-.2c.5.1 1 .5 1.3 1 .3.5.4 1.1.2 1.6l-4.5 16.8c-.1.5-.4.9-.8 1.1-.3.4-.7.5-1.2.5zm21.7-70.2c-.2 0-.4 0-.6-.1-.5-.1-1-.5-1.3-1-.3-.5-.4-1.1-.2-1.6l4.5-16.8c.1-.3.2-.5.4-.8l.6-.6c.2-.1.5-.2.8-.3.3 0 .6 0 .8.1.3.1.5.2.7.4.2.2.4.4.5.6.1.2.2.5.3.8 0 .3 0 .6-.1.8l-4.5 16.8c-.1.5-.4.9-.8 1.1-.2.5-.6.6-1.1.6zm1.7 71c-.5 0-.9-.2-1.3-.4-.4-.3-.6-.7-.8-1.1L49.5 88c-.1-.5 0-1.1.2-1.6.3-.5.7-.8 1.3-1 .5-.1 1.1-.1 1.6.2.5.3.8.7 1 1.3l4.5 16.8c.1.5.1 1.1-.2 1.6-.3.5-.7.9-1.3 1h-.5zM40 34.6c-.5 0-.9-.2-1.3-.4-.4-.3-.6-.7-.8-1.1l-4.5-16.8c-.1-.3-.1-.6-.1-.8 0-.3.1-.5.3-.8.3-.5.7-.9 1.3-1 .5-.1 1.1-.1 1.6.2.5.3.8.8 1 1.3L42 31.9c.1.5.1 1.1-.2 1.6-.3.5-.7.9-1.3 1-.2 0-.3.1-.5.1zm36.7 60.6c-.3 0-.6-.1-.8-.2-.3-.1-.5-.3-.7-.5L63 82.2c-.2-.2-.4-.4-.5-.7-.1-.3-.2-.5-.2-.8 0-.3.1-.6.2-.8.1-.3.3-.5.5-.7.2-.2.4-.4.7-.5.3-.1.5-.2.8-.2.3 0 .6.1.8.2.3.1.5.3.7.5l12.2 12.3c.3.3.5.7.6 1.1.1.4 0 .8-.1 1.2-.2.4-.4.7-.8 1-.3.2-.8.4-1.2.4zm-49.6-54c-.3 0-.6-.1-.8-.2-.3-.1-.5-.3-.7-.5L13.4 28.2c-.2-.2-.4-.4-.5-.7-.1-.3-.2-.5-.2-.8 0-.3.1-.6.2-.8.1-.3.3-.5.5-.7s.4-.4.7-.5c.3-.1.5-.2.8-.2.3 0 .6.1.8.2.3.1.5.3.7.5l12.2 12.3c.3.3.5.7.6 1.1.1.4 0 .8-.1 1.2-.2.4-.4.7-.8 1-.4.2-.8.4-1.2.4zm62 34c-.2 0-.4 0-.6-.1l-16.7-4.5c-.5-.1-1-.5-1.3-1-.3-.5-.4-1.1-.2-1.6.1-.5.5-1 1-1.3.5-.3 1.1-.4 1.6-.2L89.6 71c.5.1.9.4 1.2.9.3.4.4 1 .3 1.5-.1.5-.3 1-.7 1.3-.3.3-.8.5-1.3.5zM19.2 53.4c-.2 0-.4 0-.6-.1L2 48.8c-.5-.1-1-.5-1.3-1-.3-.5-.4-1.1-.2-1.6.1-.5.5-1 1-1.3.5-.3 1.1-.4 1.6-.2l16.7 4.5c.5.1.9.4 1.2.9.3.4.4 1 .3 1.5s-.3 1-.7 1.3-.8.5-1.4.5zm53.9 2.8c-.5 0-1-.2-1.4-.5-.4-.3-.6-.8-.7-1.3-.1-.5.1-1 .3-1.5.3-.4.7-.7 1.2-.9l16.7-4.5c.5-.1 1.1-.1 1.6.2.5.3.8.8 1 1.3.1.5.1 1.1-.2 1.6-.3.5-.7.9-1.3 1l-16.7 4.5c-.1 0-.3.1-.5.1zM1.8 72.4c-.5 0-1-.2-1.4-.5-.4-.4-.7-.9-.7-1.4-.1-.5 0-1 .3-1.5.3-.4.7-.7 1.2-.9l16.7-4.5c.5-.1 1.1-.1 1.6.2.5.3.8.8 1 1.3.1.5.1 1.1-.2 1.6-.3.5-.7.9-1.3 1L2.3 72.3c-.2.1-.3.1-.5.1zM90.3 171c-8.6 0-17.1-1.7-25-5-7.9-3.3-15.1-8.1-21.2-14.2-.2-.2-.4-.4-.5-.7-.1-.3-.2-.5-.2-.8 0-.3.1-.6.2-.8.1-.3.3-.5.5-.7L133.4 59c.2-.2.4-.4.7-.5.3-.1.5-.2.8-.2s.6.1.8.2c.3.1.5.3.7.5 9.1 9.2 15.4 20.9 17.9 33.6 2.5 12.7 1.2 25.9-3.7 37.9s-13.3 22.2-24 29.4c-10.8 7.2-23.4 11.1-36.3 11.1zm-41.6-20.8c11.6 10.8 26.9 16.7 42.7 16.4 15.8-.3 30.9-6.7 42-18 11.2-11.2 17.6-26.4 17.9-42.3.3-15.9-5.6-31.3-16.3-42.9l-86.3 86.8z"/><path class="st3" d="M97 177.7c-8.6 0-17.1-1.7-25-5-7.9-3.3-15.1-8.1-21.2-14.3-.2-.2-.4-.4-.5-.7s-.2-.5-.2-.8c0-.3.1-.6.2-.8.1-.3.3-.5.5-.7l89.3-89.8c.2-.2.4-.4.7-.5.3-.1.5-.2.8-.2s.6.1.8.2c.3.1.5.3.7.5 9.1 9.2 15.3 20.9 17.9 33.6 2.5 12.7 1.2 25.9-3.7 37.9s-13.3 22.2-24 29.4c-10.8 7.3-23.4 11.2-36.3 11.2zm-41.6-20.8c11.6 10.8 26.9 16.7 42.7 16.5 15.8-.3 30.9-6.7 42.1-18 11.2-11.2 17.6-26.4 17.9-42.3a61.3 61.3 0 00-16.4-42.9l-86.3 86.7z"/></g></svg>