<svg version="1.1" id="レイヤー_1" xmlns="http://www.w3.org/2000/svg" xmlns:xlink="http://www.w3.org/1999/xlink" x="0" y="0" viewBox="0 0 128 143" xml:space="preserve" enable-background="new 0 0 128 143"><style>.st1{fill:#bcb9b7}.st4{fill:#fff}</style><defs><path id="SVGID_1_" d="M.5 0h127v143H.5z"/></defs><clipPath id="SVGID_00000005236985579994797590000002033005349934227370_"><use xlink:href="#SVGID_1_" overflow="visible"/></clipPath><g clip-path="url(#SVGID_00000005236985579994797590000002033005349934227370_)"><path class="st1" d="M64 143c35.1 0 63.5-28.7 63.5-64 0-35.4-28.4-64-63.5-64S.5 43.7.5 79s28.4 64 63.5 64z"/><defs><filter id="Adobe_OpacityMaskFilter" filterUnits="userSpaceOnUse" x="12.6" y="26.2" width="85.8" height="86.5"><feColorMatrix values="1 0 0 0 0 0 1 0 0 0 0 0 1 0 0 0 0 0 1 0"/></filter></defs><mask maskUnits="userSpaceOnUse" x="12.6" y="26.2" width="85.8" height="86.5" id="mask0_182_224_00000109718255287709981640000017032618881936427940_"><path d="M19.1 124.2C7.6 112.2 1.2 96 1.4 79.2 1.6 62.5 8.2 46.5 20 34.6 31.8 22.8 47.6 16 64.3 15.9c16.6-.2 32.6 6.2 44.6 17.8l-89.8 90.5z" fill="#fff" filter="url(#Adobe_OpacityMaskFilter)"/></mask><g mask="url(#mask0_182_224_00000109718255287709981640000017032618881936427940_)"><path class="st4" d="M56.3 88.4c9.9 0 17.9-8.1 17.9-18.1 0-10-8-18.1-17.9-18.1s-17.9 8.1-17.9 18.1c-.1 10 8 18.1 17.9 18.1zm-31.1 13.5c-.4 0-.8-.1-1.2-.4-.4-.2-.6-.6-.8-1-.2-.4-.2-.8-.1-1.2.1-.4.3-.8.6-1.1l11.5-11.6c.4-.4.9-.6 1.5-.6s1.1.2 1.5.6c.4.4.6 1 .6 1.5 0 .6-.2 1.1-.6 1.5l-11.5 11.6c-.2.2-.4.4-.7.5-.3.1-.6.2-.8.2zm50.6-47.2c-.4 0-.8-.1-1.2-.4-.4-.2-.6-.6-.8-1-.2-.4-.2-.8-.1-1.2.1-.4.3-.8.6-1.1l11.5-11.6c.2-.2.4-.4.7-.5.3-.1.5-.2.8-.2.3 0 .6.1.8.2.3.1.5.3.7.5.2.2.4.4.5.7.1.3.2.5.2.8 0 .3-.1.6-.2.8-.1.3-.3.5-.5.7L77.3 54c-.4.4-.9.7-1.5.7zM46.1 95l-4.2 15.9L46 112l4.2-15.9-4.1-1.1zm18.3-47.8c-.2 0-.4 0-.6-.1-.3-.1-.5-.2-.8-.4l-.6-.6c-.1-.2-.2-.5-.3-.8 0-.3 0-.6.1-.8l4.2-15.9c.1-.6.5-1 1-1.3.5-.3 1.1-.4 1.6-.2.6.1 1 .5 1.3 1s.4 1.1.2 1.6l-4.2 15.9c-.1.5-.4.9-.8 1.2-.2.2-.6.4-1.1.4zm-.2 48.6L60 96.9l4.2 15.9 4.1-1.1-4.1-15.9zM50.8 46.5c-.5 0-.9-.2-1.3-.4-.4-.3-.6-.7-.8-1.2L44.5 29c-.1-.3-.1-.6-.1-.9 0-.3.1-.6.3-.8.1-.2.3-.5.6-.6.2-.2.5-.3.8-.4.3-.1.6-.1.8-.1.3 0 .6.1.8.3.2.1.5.3.6.6.2.2.3.5.4.8l4.2 15.9c.1.3.1.6.1.8 0 .3-.1.6-.3.8-.1.2-.3.5-.6.6-.2.2-.5.3-.8.4-.2.1-.4.1-.5.1zm24.6 42l-3 3.1 11.5 11.6 3-3.1-11.5-11.6zM38.6 52.7c-.3 0-.6-.1-.8-.2-.3-.1-.5-.3-.7-.5L25.6 40.5c-.4-.4-.6-1-.6-1.5 0-.6.2-1.1.6-1.5.4-.4.9-.6 1.5-.6s1.1.2 1.5.6L40.1 49c.3.3.5.7.6 1.1s0 .9-.1 1.2c-.2.4-.4.7-.8 1-.3.3-.8.4-1.2.4zm43.3 23.7l-1.1 4.2 15.8 4.3 1.1-4.2-15.8-4.3zM31.2 64.3c-.2 0-.4 0-.6-.1l-15.8-4.3c-.3-.1-.5-.2-.8-.4l-.6-.6c-.1-.2-.2-.5-.3-.8 0-.3 0-.6.1-.8.1-.3.2-.5.4-.8l.6-.6c.2-.1.5-.2.8-.3.3 0 .6 0 .8.1L31.7 60c.5.1.9.5 1.2.9.3.4.4 1 .3 1.5-.1.5-.3 1-.7 1.3-.3.4-.8.6-1.3.6zm66-5.9l-15.8 4.3 1.1 4.2 15.8-4.3-1.1-4.2zM14.7 82.3c-.5 0-1-.2-1.4-.5-.4-.3-.6-.8-.7-1.3-.1-.5.1-1 .3-1.5.3-.4.7-.8 1.2-.9l15.8-4.3c.5-.1 1.1 0 1.6.2.5.3.8.8 1 1.3.1.5.1 1.1-.2 1.6-.3.5-.7.9-1.3 1l-15.8 4.3c-.1 0-.3.1-.5.1z"/></g><defs><filter id="Adobe_OpacityMaskFilter_00000108295596544445384880000005027830735189522560_" filterUnits="userSpaceOnUse" x="55.4" y="48.9" width="71.1" height="83.7"><feColorMatrix values="1 0 0 0 0 0 1 0 0 0 0 0 1 0 0 0 0 0 1 0"/></filter></defs><mask maskUnits="userSpaceOnUse" x="55.4" y="48.9" width="71.1" height="83.7" id="mask1_182_224_00000133525439670138553180000006984717130165730455_"><path d="M108.9 33.7c6.1 5.9 10.9 13 14.3 20.8 3.3 7.8 5.1 16.2 5.2 24.7.1 8.5-1.5 17-4.7 24.8s-7.9 15-13.9 21.1c-6 6-13.1 10.8-20.9 14-7.8 3.2-16.2 4.8-24.6 4.8-8.4-.1-16.8-1.9-24.5-5.2-7.8-3.4-14.8-8.3-20.6-14.4l89.7-90.6z" fill="#fff" filter="url(#Adobe_OpacityMaskFilter_00000108295596544445384880000005027830735189522560_)"/></mask><g mask="url(#mask1_182_224_00000133525439670138553180000006984717130165730455_)"><path class="st4" d="M83.8 102.3c2.9-2.4 6.6-3.6 10.3-3.6s7.4 1.3 10.3 3.6c2.6-2.4 6-3.7 9.5-3.6 4.6.1 9 1.7 12.6 4.7-1.3-7.7-5.3-14.7-11.2-19.7-5.9-5-13.4-7.8-21.2-7.8-7.8 0-15.3 2.8-21.2 7.8-5.9 5-9.9 12-11.2 19.7 3.5-3 8-4.6 12.6-4.7 3.5-.1 6.9 1.2 9.5 3.6z"/><path class="st4" d="M87.4 132.6c-2.4 0-4.6-.9-6.3-2.6-1.7-1.7-2.6-4-2.6-6.3v-1.1c0-.6.2-1.1.6-1.5.4-.4.9-.6 1.5-.6s1.1.2 1.5.6c.4.4.6 1 .6 1.5v1.1c0 1.2.5 2.4 1.3 3.3s2 1.4 3.3 1.4c1.2 0 2.4-.5 3.3-1.4s1.3-2.1 1.3-3.3V97.8c0-.6.2-1.1.6-1.5.4-.4.9-.6 1.5-.6s1.1.2 1.5.6c.4.4.6 1 .6 1.5v25.9c0 2.4-.9 4.7-2.6 6.3-1.5 1.7-3.8 2.6-6.1 2.6zm6.6-54c-.6 0-1.1-.2-1.5-.6-.4-.4-.6-1-.6-1.5v-4c0-.6.2-1.1.6-1.5.4-.4.9-.6 1.5-.6s1.1.2 1.5.6c.4.4.6 1 .6 1.5v4c0 .6-.2 1.1-.6 1.5-.4.4-.9.6-1.5.6zm18.2-22.4c0 .4-.1.9-.2 1.3-.2.4-.4.8-.7 1.1-.3.3-.7.6-1.1.7-.4.2-.8.3-1.3.3-.4 0-.9-.1-1.3-.3-.4-.2-.8-.4-1.1-.7-.3-.3-.5-.7-.7-1.1-.2-.4-.2-.8-.2-1.3.7-2.6 1.8-5 3.3-7.3 1.5 2.3 2.5 4.7 3.3 7.3zm-50.3 69.3c0 .9-.3 1.7-1 2.3-.6.6-1.4 1-2.3 1-.9 0-1.7-.3-2.3-1-.6-.6-1-1.5-1-2.3.7-2.6 1.8-5 3.3-7.3 1.5 2.2 2.6 4.7 3.3 7.3z"/></g><defs><filter id="Adobe_OpacityMaskFilter_00000083083322898581432920000016384875267896349362_" filterUnits="userSpaceOnUse" x="11.5" y="26" width="105" height="105.9"><feColorMatrix values="1 0 0 0 0 0 1 0 0 0 0 0 1 0 0 0 0 0 1 0"/></filter></defs><mask maskUnits="userSpaceOnUse" x="11.5" y="26" width="105" height="105.9" id="mask2_182_224_00000021102861884125394240000009783408843610340232_"><path d="M64 143c35.1 0 63.5-28.7 63.5-64 0-35.4-28.4-64-63.5-64S.5 43.6.5 79c0 35.3 28.4 64 63.5 64z" fill="#fff" filter="url(#Adobe_OpacityMaskFilter_00000083083322898581432920000016384875267896349362_)"/></mask><g mask="url(#mask2_182_224_00000021102861884125394240000009783408843610340232_)"><path class="st4" d="M113.5 26l-102 102.8 3 3.1 102-102.8-3-3.1z"/></g><path class="st1" d="M28.6 30L46.8 0l9.1 19.8M99.4 30L81.2 0l-9.1 19.8"/></g></svg>