<svg version="1.1" id="レイヤー_1" xmlns="http://www.w3.org/2000/svg" x="0" y="0" viewBox="0 0 128 143" xml:space="preserve" enable-background="new 0 0 128 143"><style>.st2{fill:#bcb9b7}.st3{fill:#fff}</style><defs><filter id="Adobe_OpacityMaskFilter" filterUnits="userSpaceOnUse" x="-3.8" y="15.8" width="138.5" height="143.7"><feColorMatrix values="1 0 0 0 0 0 1 0 0 0 0 0 1 0 0 0 0 0 1 0"/></filter></defs><mask maskUnits="userSpaceOnUse" x="-3.8" y="15.8" width="138.5" height="143.7" id="mask0_182_259_00000128468131882028303750000012747332565944510631_"><path d="M64 141.9c34.9 0 63.2-28.2 63.2-63s-28.3-63-63.2-63C29.1 15.9.8 44.1.8 78.9s28.3 63 63.2 63z" fill="#fff" filter="url(#Adobe_OpacityMaskFilter)"/></mask><g mask="url(#mask0_182_259_00000128468131882028303750000012747332565944510631_)"><path class="st2" d="M64 141.9c34.9 0 63.2-28.2 63.2-63s-28.3-63-63.2-63S.8 44 .8 78.9c0 34.8 28.3 63 63.2 63z"/><path class="st3" d="M64 108.7c-.5 0-1-.1-1.4-.3-.5-.2-.9-.5-1.2-.8L3.8 50.2c-.4-.4-.6-.9-.6-1.5s.2-1.1.6-1.5c.4-.4.9-.6 1.5-.6s1.1.2 1.5.6l57.2 57 32.9-32.8c.4-.4.9-.6 1.5-.6s1.1.2 1.5.6c.4.4.6.9.6 1.5s-.2 1.1-.6 1.5l-33.3 33.2c-.3.3-.8.6-1.2.8-.4.2-.9.3-1.4.3z"/><path class="st3" d="M97.8 87.4L83.9 73.6c-.1-.1-.2-.2-.2-.4v-.4c0-.1.1-.3.2-.4.1-.1.2-.2.4-.2l17.4-3.6h.4c.1 0 .2.1.3.2.1.1.2.2.2.3v.4L99.1 87c0 .1-.1.3-.2.4s-.2.2-.4.2h-.4c-.1-.1-.2-.1-.3-.2zM46.7 57.9c-1.4-.7-2.5-1.9-3.2-3.2-.8-1.5-1.1-3.1-1.1-4.8V36.1h4.5v13.6c-.1 1.4.4 2.7 1.2 3.8.4.5 1 .9 1.6 1.1.6.2 1.2.4 1.9.3.6 0 1.3-.1 1.9-.3.6-.2 1.1-.6 1.6-1.1.8-1.1 1.3-2.4 1.2-3.8V36.1h4.5v13.8c0 1.7-.4 3.3-1.1 4.8-.7 1.4-1.9 2.5-3.2 3.2-1.5.8-3.2 1.1-4.9 1.1s-3.4-.3-4.9-1.1zm28.9-6.1L81 36.1h4.9l-8.3 22.6h-3.9l-8.3-22.6h4.9l5.3 15.7zm56.9 99.7H-1.7c-.6 0-1.1-.2-1.5-.6-.4-.4-.6-.9-.6-1.5v-33c0-.6.2-1.1.6-1.5.4-.4.9-.6 1.5-.6h134.2c.6 0 1.1.2 1.5.6.4.4.6.9.6 1.5v33c0 .6-.2 1.1-.6 1.5-.3.3-.9.6-1.5.6zm-132-4.3h130v-28.7H.5v28.7z"/><path class="st3" d="M132.5 159.5H-1.7c-.6 0-1.1-.2-1.5-.6-.4-.4-.6-.9-.6-1.5v-33c0-.6.2-1.1.6-1.5.4-.4.9-.6 1.5-.6h134.2c.6 0 1.1.2 1.5.6.4.4.6.9.6 1.5v33c0 .6-.2 1.1-.6 1.5-.3.4-.9.6-1.5.6zm-132-4.3h130v-28.7H.5v28.7z"/></g><path class="st2" d="M28.8 30.7L46.9 1.1l9 19.5m43.3 10.1L81.1 1.1l-9 19.5"/></svg>