<svg version="1.1" id="レイヤー_1" xmlns="http://www.w3.org/2000/svg" x="0" y="0" viewBox="0 0 128 143" xml:space="preserve" enable-background="new 0 0 128 143"><style>.st2{fill:#bcb9b7}.st3{fill:#fff}</style><defs><filter id="Adobe_OpacityMaskFilter" filterUnits="userSpaceOnUse" x="-3.7" y="15.8" width="138.3" height="143.9"><feColorMatrix values="1 0 0 0 0 0 1 0 0 0 0 0 1 0 0 0 0 0 1 0"/></filter></defs><mask maskUnits="userSpaceOnUse" x="-3.7" y="15.8" width="138.3" height="143.9" id="mask0_182_366_00000132803074539925905080000014025226801875690904_"><path d="M64 142c34.9 0 63.1-28.3 63.1-63.1S98.9 15.8 64 15.8.9 44 .9 78.9 29.1 142 64 142z" fill="#fff" filter="url(#Adobe_OpacityMaskFilter)"/></mask><g mask="url(#mask0_182_366_00000132803074539925905080000014025226801875690904_)"><path class="st2" d="M64 142c34.9 0 63.1-28.3 63.1-63.1S98.9 15.8 64 15.8C29.1 15.8.9 44 .9 78.9S29.1 142 64 142z"/><path class="st3" d="M64 108.8c-.5 0-1-.1-1.4-.3-.5-.2-.9-.5-1.2-.8L3.9 50.2c-.2-.2-.4-.4-.5-.7-.1-.3-.2-.5-.2-.8 0-.3.1-.6.2-.8.1-.3.3-.5.5-.7.1-.2.4-.4.6-.5.3-.1.5-.2.8-.2.3 0 .6.1.8.2.3.1.5.3.7.5L64 104.3l32.9-32.8c.4-.4.9-.6 1.5-.6s1.1.2 1.5.6c.4.4.6.9.6 1.5s-.2 1.1-.6 1.5l-33.2 33.2c-.3.3-.8.6-1.2.8-.5.2-1 .3-1.5.3z"/><path class="st3" d="M97.7 87.4L83.9 73.6c-.1-.1-.2-.2-.2-.4v-.4c0-.1.1-.3.2-.4.1-.1.2-.2.4-.2l17.4-3.6h.4c.1 0 .2.1.3.2.1.1.2.2.2.3v.4L99.1 87c0 .1-.1.3-.2.4-.1.1-.2.2-.4.2h-.4c-.1 0-.3-.1-.4-.2zm34.8 64.2H-1.6c-.6 0-1.1-.2-1.5-.6-.4-.4-.6-.9-.6-1.5v-33c0-.6.2-1.1.6-1.5.4-.4.9-.6 1.5-.6h134.1c.6 0 1.1.2 1.5.6.4.4.6.9.6 1.5v33c0 .6-.2 1.1-.6 1.5-.4.3-1 .6-1.5.6zm-132-4.3h129.8v-28.8H.5v28.8z"/><path class="st3" d="M132.5 159.6H-1.6c-.6 0-1.1-.2-1.5-.6s-.6-.9-.6-1.5v-33c0-.6.2-1.1.6-1.5.4-.4.9-.6 1.5-.6h134.1c.6 0 1.1.2 1.5.6.4.4.6.9.6 1.5v33c0 .6-.2 1.1-.6 1.5-.4.4-1 .6-1.5.6zm-132-4.2h129.8v-28.8H.5v28.8zm68.9-117c0 1.4-.6 2.8-1.6 3.8s-2.4 1.6-3.8 1.6-2.8-.6-3.8-1.6-1.6-2.4-1.6-3.8c0-3 5.4-11.9 5.4-11.9s5.4 8.9 5.4 11.9zm0 32c0 1.4-.6 2.8-1.6 3.8s-2.4 1.6-3.8 1.6-2.8-.6-3.8-1.6-1.6-2.4-1.6-3.8c0-3 5.4-11.9 5.4-11.9s5.4 8.9 5.4 11.9zm-42-32c0 .7-.1 1.4-.4 2.1-.3.7-.7 1.3-1.2 1.8s-1.1.9-1.8 1.2c-.7.3-1.4.4-2.1.4s-1.4-.1-2.1-.4c-.7-.3-1.3-.7-1.8-1.2s-.9-1.1-1.2-1.8c-.3-.7-.4-1.4-.4-2.1 0-3 5.4-11.9 5.4-11.9s5.6 8.9 5.6 11.9zm21 15.6c0 1.4-.6 2.7-1.6 3.7s-2.4 1.5-3.8 1.5-2.8-.6-3.8-1.5c-1-1-1.6-2.3-1.6-3.7 0-3 5.4-12 5.4-12s5.4 9 5.4 12zm63-15.6c0 1.4-.6 2.8-1.6 3.8s-2.4 1.6-3.8 1.6-2.8-.6-3.8-1.6-1.6-2.4-1.6-3.8c0-3 5.4-11.9 5.4-11.9s5.4 8.9 5.4 11.9zM79.6 54c0 1.4.6 2.7 1.6 3.7s2.4 1.5 3.8 1.5 2.8-.6 3.8-1.5c1-1 1.6-2.3 1.6-3.7 0-3-5.4-12-5.4-12s-5.4 9-5.4 12z"/></g><path class="st2" d="M28.8 30.6L46.9 1l9 19.6m43.3 10L81.1 1l-9 19.6"/></svg>