<svg version="1.1" id="レイヤー_1" xmlns="http://www.w3.org/2000/svg" x="0" y="0" viewBox="0 0 128 143" xml:space="preserve" enable-background="new 0 0 128 143"><style>.st0{fill:#bcb9b7}.st3{fill:#fff}</style><path class="st0" d="M28.8 30.4L46.9.6l9 19.7m43.3 10.1L81.1.6l-9 19.7"/><defs><filter id="Adobe_OpacityMaskFilter" filterUnits="userSpaceOnUse" x="-6.7" y="7.1" width="169.1" height="170.6"><feColorMatrix values="1 0 0 0 0 0 1 0 0 0 0 0 1 0 0 0 0 0 1 0"/></filter></defs><mask maskUnits="userSpaceOnUse" x="-6.7" y="7.1" width="169.1" height="170.6" id="mask0_182_325_00000021104789824270483940000016202509692848680324_"><path d="M64 142.4c34.9 0 63.2-28.4 63.2-63.5S98.9 15.4 64 15.4.8 43.9.8 78.9c0 35.1 28.3 63.5 63.2 63.5z" fill="#fff" filter="url(#Adobe_OpacityMaskFilter)"/></mask><g mask="url(#mask0_182_325_00000021104789824270483940000016202509692848680324_)"><path class="st0" d="M64 142.4c34.9 0 63.2-28.4 63.2-63.5S98.9 15.4 64 15.4C29.1 15.4.8 43.8.8 78.9s28.3 63.5 63.2 63.5z"/><path class="st3" d="M45.8 79c10.5 0 19-8.5 19-19.1 0-10.5-8.5-19.1-19-19.1s-19 8.5-19 19.1c0 10.5 8.5 19.1 19 19.1zm-4.2 33.6c-.4 0-.8-.1-1.1-.3-.3-.2-.6-.5-.8-.9-.2-.4-.3-.7-.2-1.1 0-.4.2-.8.4-1.1l4.5-6.3-4.5-6.3c-.3-.4-.4-.8-.4-1.3 0-.4.1-.9.4-1.3l5.4-7.5.6-.6c.2-.2.5-.3.8-.3h.8c.3.1.5.2.8.4l.6.6c.1.2.2.5.3.8v.9c-.1.3-.2.5-.4.8l-4.5 6.2 4.5 6.2c.3.4.4.8.4 1.3s-.1.9-.4 1.3l-5.4 7.5c-.2.3-.5.5-.8.7-.3.2-.6.3-1 .3zM44.5 34c-.4 0-.8-.1-1.1-.3-.3-.2-.6-.5-.8-.9-.2-.4-.3-.7-.2-1.1 0-.4.2-.8.4-1.1l4.5-6.2-4.5-6.3c-.3-.4-.4-.8-.4-1.3 0-.4.1-.9.4-1.3L48.2 8l.6-.6c.2-.2.5-.3.8-.3h.8c.3.1.5.2.8.4l.6.6.3.9v.8c0 .2-.2.5-.4.8l-4.5 6.3 4.5 6.3c.3.4.4.8.4 1.3 0 .4-.1.9-.4 1.3l-5.4 7.5c-.2.3-.5.5-.8.7-.3-.1-.6 0-1 0zm23.2 73.7c-.6 0-1.2-.3-1.6-.7-.4-.4-.6-1-.6-1.5l.3-7.5-6.6-3.5c-.4-.2-.6-.5-.8-.8-.2-.3-.3-.7-.3-1.1l.3-8.8c0-.6.3-1.1.7-1.5.4-.4 1-.6 1.5-.6.6 0 1.1.3 1.5.7.4.4.6 1 .6 1.5l-.3 7.5 6.6 3.5c.4.2.6.5.8.8.2.3.3.7.3 1.1l-.3 8.8c0 .6-.3 1.1-.7 1.5-.3.4-.9.6-1.4.6zM31.1 38.2c-.6 0-1.2-.3-1.6-.7-.4-.4-.6-1-.6-1.5l.3-7.5-6.6-3.5c-.4-.2-.6-.5-.9-.8-.2-.3-.3-.7-.3-1.1l.3-8.8c0-.3.1-.6.2-.8s.3-.5.5-.7c.2-.2.5-.3.7-.4.3-.1.6-.1.8-.1.3 0 .6.1.8.2.3.1.5.3.7.5.2.2.3.4.4.7s.2.3.2.6l-.3 7.5 6.6 3.5c.4.2.6.5.9.8.2.3.3.7.3 1.1l-.3 8.8c0 .6-.3 1.1-.6 1.5-.5.5-1 .7-1.5.7zm56.4 52.4c-.4 0-.8-.1-1.1-.3-.3-.2-.6-.5-.8-.8l-3.5-6.6-7.5.3c-.4 0-.8-.1-1.1-.3s-.6-.5-.8-.8l-4.1-7.8c-.3-.5-.3-1.1-.2-1.6.2-.5.5-1 1-1.3.5-.3 1.1-.3 1.6-.2s1 .5 1.3 1l3.5 6.6 7.5-.3c.4 0 .8.1 1.1.3.3.2.6.5.8.9l4.1 7.8c.2.3.3.7.2 1.1 0 .4-.1.7-.3 1-.2.3-.5.6-.8.8s-.6.2-.9.2zM21.2 48.8c-.4 0-.8-.1-1.1-.3-.3-.2-.6-.5-.8-.8L15.8 41l-7.5.3c-.4 0-.8-.1-1.2-.3-.4-.2-.6-.5-.8-.9l-4.1-7.8c-.1-.2-.2-.5-.2-.8 0-.3 0-.6.1-.8.1-.3.2-.5.4-.7.2-.2.4-.4.6-.5.2-.1.5-.2.8-.2.3 0 .6 0 .8.1.3.1.5.2.7.4.3 0 .4.2.6.5l3.5 6.6 7.5-.3c.4 0 .8.1 1.1.3.3.2.6.5.8.9l4.1 7.8c.2.3.3.7.2 1.1s-.1.7-.3 1-.5.6-.8.8c-.2.2-.6.3-.9.3zm74.9 17.4c-.4 0-.9-.1-1.2-.4l-6.2-4.5-6.2 4.5c-.4.3-.8.4-1.2.4-.4 0-.9-.1-1.2-.4l-7.5-5.4-.6-.6c-.1-.2-.2-.5-.3-.8v-.8c.1-.3.2-.5.3-.8s.4-.4.6-.6c.2-.1.5-.2.8-.3h.8c.3.1.5.2.8.3l6.2 4.5 6.2-4.5c.4-.3.8-.4 1.2-.4.4 0 .9.1 1.2.4l7.5 5.4c.4.3.6.6.8 1.1.1.4.1.9 0 1.3s-.4.8-.8 1.1c-.3.3-.7.5-1.2.5zm-78.2-2.9c-.4 0-.9-.1-1.2-.4l-6.2-4.5-6.2 4.5c-.4.3-.8.4-1.2.4-.4 0-.9-.1-1.2-.4l-7.5-5.4c-.5-.3-.8-.8-.9-1.4-.1-.6 0-1.1.4-1.6.3-.5.8-.8 1.4-.9.6-.1 1.1 0 1.6.4l6.2 4.5L9.2 54c.4-.3.8-.4 1.2-.4.4 0 .9.1 1.2.4l7.5 5.4c.4.3.6.6.8 1.1.1.4.1.9 0 1.3s-.4.8-.8 1.1c-.3.2-.8.4-1.2.4zm60.4-15.8l-8.9-.3c-.6 0-1.1-.2-1.5-.7-.4-.4-.6-1-.6-1.5 0-.6.2-1.1.7-1.5.4-.4 1-.6 1.5-.6h.1l7.5.3 3.5-6.6c.2-.4.5-.6.8-.9.3-.2.7-.3 1.1-.3l8.8.3c.6 0 1.1.2 1.5.7.4.4.6 1 .6 1.5 0 .6-.2 1.1-.7 1.5-.4.4-1 .6-1.5.6h-.1l-7.5-.3-3.5 6.6c-.2.3-.5.6-.8.8-.2.3-.6.4-1 .4zM9.1 84.3L.2 84c-.6 0-1.1-.3-1.5-.7s-.6-1-.6-1.5.3-1.1.7-1.5c.4-.4 1-.6 1.5-.6l7.5.3 3.5-6.6c.2-.4.5-.6.8-.8.3-.2.7-.3 1.1-.3l8.8.3c.6 0 1.1.3 1.5.7.4.4.6 1 .6 1.5 0 .3-.1.6-.2.8-.1.3-.3.5-.5.7-.2.2-.5.3-.7.4-.3.1-.6.1-.8.1l-7.5-.3-3.4 6.7c-.2.3-.5.6-.8.8-.3.2-.7.3-1.1.3zm49.9-47c-.5 0-.9-.2-1.3-.5s-.6-.7-.8-1.2c-.1-.5-.1-1 .1-1.4.2-.4.5-.8.9-1l6.6-3.5-.3-7.5c0-.4.1-.8.3-1.1.2-.3.5-.6.8-.8l7.8-4.2c.2-.1.5-.2.8-.3s.6 0 .8.1c.3.1.5.2.8.4.2.2.4.4.5.7.1.3.2.5.2.8 0 .3 0 .6-.1.8-.1.3-.2.5-.4.7-.2.2-.4.4-.7.5l-6.6 3.5.3 7.5c0 .4-.1.8-.3 1.1-.2.3-.5.6-.8.8L60 37c-.3.2-.7.3-1 .3zm-41.7 66.6c-.5 0-.9-.2-1.3-.5s-.6-.7-.7-1.2c-.1-.5-.1-.9.1-1.4.2-.4.5-.8.9-1l6.6-3.5-.3-7.5c0-.4.1-.8.3-1.1.2-.3.5-.6.8-.8l7.8-4.2c.5-.3 1.1-.3 1.6-.2.5.2 1 .5 1.3 1 .3.5.3 1.1.2 1.6-.2.5-.5 1-1 1.3L27 90l.3 7.5c0 .4-.1.8-.3 1.1-.2.3-.5.6-.8.8l-7.8 4.1c-.4.3-.7.4-1.1.4zm73 67.1c-8.6 0-17.1-1.7-25-5-7.9-3.3-15.1-8.1-21.2-14.3-.4-.4-.6-.9-.6-1.5s.2-1.1.6-1.5L133.5 59c.2-.2.4-.4.7-.5.3-.1.5-.2.8-.2.3 0 .6.1.8.2.3.1.5.3.7.5 9.1 9.2 15.4 20.9 17.9 33.6 2.5 12.7 1.2 25.9-3.7 37.9s-13.3 22.2-24.1 29.4c-10.7 7.2-23.3 11.1-36.3 11.1zm-41.6-20.8c11.6 10.8 26.9 16.7 42.7 16.5 15.8-.3 30.9-6.7 42.1-18 11.2-11.2 17.6-26.4 17.9-42.3A61.3 61.3 0 00135 63.5l-86.3 86.7z"/><path class="st3" d="M97 177.7c-8.6 0-17.1-1.7-25-5-7.9-3.3-15.1-8.1-21.2-14.3-.2-.2-.4-.4-.5-.7-.1-.3-.2-.5-.2-.8 0-.3.1-.6.2-.8.1-.3.3-.5.5-.7l89.4-89.8c.2-.2.4-.4.7-.5.3-.1.5-.2.8-.2.3 0 .6.1.8.2.3.1.5.3.7.5 9.1 9.2 15.4 20.9 17.9 33.6 2.5 12.7 1.2 25.9-3.7 37.9s-13.3 22.2-24.1 29.4-23.4 11.2-36.3 11.2zm-41.6-20.8c11.6 10.8 26.9 16.7 42.7 16.4 15.8-.3 30.9-6.7 42.1-18 11.2-11.2 17.6-26.4 17.9-42.3a61.3 61.3 0 00-16.4-42.9l-86.3 86.8z"/></g></svg>