<svg width="380" height="268" viewBox="0 0 380 268" fill="none" xmlns="http://www.w3.org/2000/svg">
<path d="M379.003 94.0517C378.703 95.2651 378.437 96.3431 378.17 97.4211L378.402 97.4177C378.334 98.9768 378.289 100.537 378.198 102.095C378.165 102.661 377.944 103.223 377.953 103.784C378.021 108.323 377.206 112.756 376.633 117.236C375.797 123.61 374.316 129.882 372.214 135.956C370.882 139.848 369.768 144 366.483 146.945C366.178 147.298 365.944 147.706 365.793 148.147C363.927 152.147 361.555 155.889 358.736 159.282C355.983 162.47 353.018 165.468 349.862 168.256C348.629 169.387 346.824 169.864 345.414 170.833C343.198 172.31 341.073 173.917 339.048 175.646C336.614 177.788 333.593 178.709 330.697 179.658C327.613 180.669 324.984 182.593 321.836 183.248C320.262 183.577 318.684 183.886 317.117 184.24C314.106 184.92 311.12 185.727 308.088 186.296C303.795 187.104 299.49 187.937 295.152 188.382C292.605 188.644 290.094 188.779 287.797 189.948L286.028 189.304C284.407 189.508 283.045 189.669 281.685 189.844C279.514 190.123 277.325 190.302 275.181 190.715C271.021 191.517 266.89 192.464 262.739 193.316C262.158 193.394 261.571 193.406 260.987 193.352C256.599 193.257 252.217 193.723 247.946 194.737C247.714 194.773 247.48 194.789 247.246 194.785C242.611 195.014 237.974 195.225 233.341 195.476C229.484 195.685 225.608 195.769 221.784 196.248C219.85 196.49 218.008 197.413 216.476 196.329C214.764 196.541 213.409 196.744 212.047 196.869C210.77 196.875 209.495 196.965 208.23 197.141C207.043 197.413 205.796 196.454 204.638 197.481C204.367 197.722 203.557 197.345 202.994 197.262C202.222 197.054 201.425 196.956 200.626 196.969C197.494 197.381 194.339 197.607 191.18 197.645C188.646 197.722 186.123 198.15 183.588 198.258C182.468 198.305 181.335 197.881 180.198 197.785C178.928 197.679 177.474 197.301 176.408 197.759C174.676 198.504 173.073 198.122 171.404 198.016C169.346 197.884 167.288 197.74 165.231 197.582C164.337 197.514 163.445 197.413 162.303 197.304C162.373 197.941 162.521 198.568 162.745 199.168C164.404 202.359 165.994 205.596 167.856 208.666C170.429 213.042 172.776 217.547 174.89 222.162C176.228 224.981 177.621 227.777 179.101 230.523C179.978 232.149 181.045 233.675 182.073 235.215C185.375 240.16 187.419 245.763 190.315 250.917C192.473 254.61 194.183 258.547 195.41 262.645C195.745 263.834 195.903 265.072 196.143 266.282L193.398 267.999C191.996 267.145 190.313 267.085 188.893 265.801C186.594 263.599 184.498 261.195 182.628 258.618C180 255.221 177.507 251.705 174.685 248.477C173.14 246.617 171.471 244.864 169.691 243.228C168.283 241.847 166.966 240.376 165.748 238.825C165.284 238.298 164.827 237.766 164.355 237.246C161.85 234.492 159.324 231.757 156.849 228.977C156.353 228.334 155.91 227.653 155.523 226.94C155.15 226.353 154.92 225.489 154.389 225.221C151.481 223.758 150.6 220.599 148.544 218.428C146.077 215.824 144.381 212.608 142.064 209.838C139.568 206.855 137.67 203.373 135.331 199.834C133.221 199.259 131.176 200.7 128.984 200.828L111.24 199.757L107.98 198.269C105.629 199.829 103.022 198.527 100.464 198.64C98.9769 198.708 97.4758 198.335 95.9768 198.3C91.9649 198.256 87.9989 197.44 84.2941 195.897L71.6998 193.75L69.4862 192.692H65.7416C63.8465 191.921 62.2775 191.169 60.6426 190.65C58.6729 190.022 56.4585 189.933 54.6932 188.975C52.9503 188.029 51.1504 187.406 49.3586 186.65C45.7779 185.113 42.2858 183.377 38.8985 181.449C36.2876 179.985 33.8593 178.188 31.3808 176.493C28.5192 174.537 25.6923 172.531 22.7037 170.446C21.9531 168.959 21.3526 167.124 19.3265 166.435C18.9205 166.207 18.6062 165.844 18.4374 165.409C16.9771 162.419 14.5889 160.047 12.9791 157.175C11.9664 155.369 11.2973 153.373 10.4184 151.489C9.68962 149.923 8.47786 148.474 8.18648 146.845C7.50725 143.028 5.44038 139.776 4.26939 136.165C3.12489 132.637 3.36669 128.804 1.63738 125.452C1.76303 122.395 1.03626 119.49 0.229337 116.573C0.00926698 115.778 0.473823 114.793 0.616461 113.943C0.460917 112.442 0.208939 110.96 0.173619 109.473C0.105696 106.547 -0.189048 103.56 0.232073 100.694C0.880736 96.277 0.414102 91.8201 0.975145 87.4625C1.52872 83.1614 1.61768 78.6602 3.84487 74.7C3.56299 71.6423 4.89973 68.935 5.83571 66.1801C7.3531 61.7109 8.78485 57.1702 11.7252 53.3428C12.5281 50.0298 15.1894 47.9439 17.0538 45.3435C18.8776 42.8003 20.8928 40.3904 22.8999 37.9853C24.488 35.9745 26.2 34.0652 28.0261 32.2686C30.3069 30.1439 32.6312 27.9131 35.323 26.439C37.1345 25.4454 38.9317 24.4803 40.6699 23.3356C42.3452 22.3241 44.1006 21.452 45.9183 20.7284C46.7443 20.3623 47.7026 20.3065 48.5469 19.973C51.4153 18.8405 54.2416 17.5965 57.1222 16.4968C58.6647 16.0304 60.1729 15.4566 61.6357 14.7797H68.0883L70.2884 13.7017C73.7694 13.1389 76.7145 12.6502 79.6617 12.1888C83.9829 11.5116 88.307 10.8543 93.304 10.0846C94.7447 8.19601 97.7529 8.55738 100.353 7.78767C101.689 7.4347 103.05 7.18149 104.424 7.03019C107.052 6.66269 109.688 6.35368 112.261 6.02838C114.746 5.43629 117.167 4.72101 119.638 4.30995C122.137 3.89413 124.806 4.17387 127.184 3.44023C130.472 2.42892 133.94 3.55794 137.122 2.18321C137.464 2.10123 137.819 2.08625 138.167 2.13902C142.579 2.27058 146.993 2.00636 151.358 1.34955C158.199 0.173544 165.082 0.950104 171.938 0.663589C174.713 0.547895 177.498 0.959639 180.255 0.0926092C181.153 -0.189822 182.277 0.248389 183.838 0.414445C184.413 0.214235 185.012 0.0937913 185.619 0.0564712C186.963 0.0564712 188.376 0.561463 189.632 0.279031C190.99 -0.0278999 192.288 0.735709 193.285 0.490709C195.445 -0.040126 197.569 1.3754 199.616 0.286508C202.358 0.848648 205.214 0.116371 207.929 1.02015C208.472 1.2005 209.14 1.55642 209.578 1.3856C212.913 0.0925428 216.255 1.27813 219.495 1.56056C225.316 2.06825 231.143 1.81029 236.928 2.27443C239.401 2.47247 241.9 1.3346 244.299 2.51809C246.51 1.2822 248.524 3.23403 250.762 2.88695C252.973 2.62289 255.207 2.62289 257.418 2.88695C258.89 3.1259 260.339 3.48624 261.751 3.96427C269.426 2.75697 277.017 4.16435 285.327 4.59922C287.025 3.24764 289.436 4.69383 291.705 5.08787C296.429 5.90454 301.068 7.23777 305.727 8.42262C308.734 9.18553 311.71 10.0689 314.705 10.8726C316.587 11.3796 318.488 11.8179 320.368 12.331C326.15 13.9113 331.626 16.3239 337.148 18.6031C338.852 19.3061 340.508 20.1452 342.25 20.7284C344.316 21.4198 345.378 23.4296 347.236 24.3123C348.977 25.1398 351.039 25.1657 352.494 26.7766C353.309 27.6803 354.599 28.1322 355.801 29.0129C357.1 29.9657 359.611 31.993 360.796 33.0839C363.152 35.2508 365.317 37.2605 366.947 39.5996C368.917 42.4293 371.142 45.1727 372.264 48.5448C372.609 49.7702 373.113 50.9448 373.764 52.0382C375.047 54.0914 375.754 56.4531 375.811 58.875C376.029 61.994 376.48 65.0967 376.91 68.9099C377.037 69.1821 377.476 70.1274 377.616 70.4275C377.996 76.5627 378.334 82.0167 378.685 87.6775L379.003 94.0517ZM372.332 82.9878C372.51 83.0919 372.701 82.0351 372.535 81.916C372.464 78.4451 372.593 76.0421 371.831 72.5515C371.298 70.1069 371.695 67.465 370.497 65.0858C370.337 64.7687 370.711 64.2201 370.683 63.7887C370.515 61.2577 370.302 58.7294 370.152 56.8123C368.658 54.0472 366.864 51.8625 366.319 49.4003C365.739 46.7849 364.242 45.0904 362.67 43.2828C361.574 42.0211 360.371 40.8518 359.106 39.5281L353.412 34.6016C347.403 30.704 341.489 26.8433 335.102 23.7665C329.593 21.1123 324.188 18.2403 318.087 17.0569C312.674 16.0081 307.53 13.8766 302.026 13.081C300.688 12.8877 299.02 13.0844 298.009 12.4045C295.167 10.4928 291.896 11.1333 288.893 10.6072C284.713 9.87558 280.345 10.5174 276.063 9.82594C272.41 9.2359 268.639 10.2002 264.952 9.11747C263.842 8.79216 262.481 9.32165 261.001 9.48907C260.447 9.28368 259.871 9.14476 259.284 9.07526C254.718 8.91738 250.134 8.26536 245.608 8.4355C240.187 8.63967 234.802 6.81785 229.398 8.29942C229.167 8.34195 228.93 8.34195 228.699 8.29942C224.4 7.82915 220.044 7.63999 215.817 6.80223C211.408 5.92431 206.949 6.01001 202.534 5.64523C197.769 5.25255 192.952 5.11918 188.156 4.89663C185.847 4.87164 183.54 5.02411 181.255 5.35264C179.454 5.54727 177.642 5.60549 175.833 5.52685C173.848 5.43361 171.852 5.42681 169.868 5.52685C168.384 5.60035 166.915 5.98822 165.43 6.07124C164.248 6.06605 163.067 5.98745 161.894 5.83581C160.436 6.62321 158.521 5.77933 156.955 6.32446C153.582 7.49774 150.077 6.95942 146.659 7.43718C142.23 8.0558 137.723 8.27219 133.262 8.95547C127.953 9.76805 122.583 10.1846 116.813 10.8195L115.847 11.5409C114.124 11.8812 112.775 12.1861 111.413 12.4147C109.616 12.8111 107.792 13.0725 105.956 13.1967C103.147 13.2417 100.511 14.0031 97.8053 14.5673C94.3181 15.2948 90.854 16.3055 87.2215 16.1429C86.5301 16.1038 85.8379 16.2009 85.1838 16.4286C82.3419 17.493 79.3805 17.5577 76.775 17.5754C75.4844 18.0899 74.541 18.7242 73.548 18.8174C68.1888 19.321 63.2373 21.5397 57.9733 22.4176C56.6148 22.6442 55.293 23.0573 53.7994 23.422C52.9694 23.9175 51.9995 24.5647 50.9691 25.0942C48.8152 26.2008 46.5425 27.1032 44.4824 28.3609C42.7205 29.4341 40.9701 30.4911 39.141 31.4581C36.5911 32.8063 34.0182 34.1803 32.077 36.4663C30.1221 38.774 28.221 41.188 25.9456 43.146C23.7245 45.0577 22.0448 47.3348 20.2591 49.5759C19.7015 50.147 19.0851 50.6576 18.4204 51.099C17.8139 52.8449 16.9956 54.5095 15.984 56.0555C13.6714 59.7589 11.783 63.7118 10.3546 67.8393C9.2882 70.7772 8.66673 73.8473 7.58676 76.7363C6.21404 80.4113 6.10734 84.2013 5.70727 87.9655C5.39891 90.8653 5.66652 93.823 5.58705 96.7528C5.54698 98.2378 5.30586 99.7173 5.15507 101.2C5.51059 102.769 5.64772 104.379 5.56259 105.986C5.35882 108.168 5.71412 110.314 5.6625 112.477C5.5976 114.673 5.79137 116.868 6.23983 119.018C7.16494 123.388 8.19532 127.739 9.01719 132.127C9.68759 135.7 11.2077 138.932 12.4574 142.275C14.4708 147.969 17.4031 153.295 21.1373 158.038C22.2749 159.46 23.3095 160.961 24.2332 162.53C25.0449 163.891 25.6529 165.369 26.0292 166.137C28.1905 167.61 29.7269 168.622 31.2259 169.686C34.7953 172.223 38.3368 174.797 41.9129 177.323C42.644 177.895 43.4596 178.348 44.3303 178.668C46.7395 179.406 49.3199 179.677 51.2998 181.475C55.9369 182.776 60.2547 185.02 65.0657 185.867C67.9457 186.375 70.7156 187.506 74.0214 188.505C78.8493 188.658 83.8661 190.31 88.1616 191.752C90.8174 192.165 92.7423 192.69 94.6747 192.719C99.7811 192.8 104.795 193.731 109.855 194.135C114.241 194.485 118.607 195.391 123.05 194.965C123.741 194.953 124.429 195.052 125.088 195.258C127.376 195.925 129.815 195.855 132.061 195.059L138.922 196.393C145.563 203.323 150.744 211.156 155.648 218.553C157.042 219.812 158.422 220.556 159.022 221.707C160.129 223.833 161.757 225.45 163.258 227.223C165.635 229.915 167.866 232.732 169.943 235.662C172.039 238.761 175.148 240.878 177.255 243.97C179.078 246.643 181.376 248.993 183.504 251.456C183.722 251.707 184.216 251.72 185.097 252.019C183.663 249.289 182.16 247.187 181.418 244.838C180.304 241.317 177.981 238.534 176.188 235.473C174.262 232.184 172.48 228.841 170.686 225.485C168.037 220.529 166.231 215.168 162.905 210.526C159.416 205.657 156.266 200.521 155.652 194.548C155.912 192.526 157.382 192.021 158.744 191.485C163.476 191.189 168.154 191.302 172.843 190.836C176.842 190.44 180.94 190.861 185.013 191.197C190.182 191.623 195.447 190.993 200.664 190.693C202.964 190.562 205.25 190.713 207.592 190.36C209.499 190.073 211.618 189.505 213.642 190.088C214.275 190.213 214.924 190.227 215.561 190.127C220.308 189.882 225.052 189.911 229.806 189.403C235.342 188.811 240.946 188.851 246.519 188.614C246.869 188.617 247.22 188.595 247.567 188.546C249.802 188.111 252.015 187.525 254.268 187.24C258.72 186.674 263.195 186.287 267.657 185.794C270.155 185.518 272.646 185.177 275.735 184.79C276.156 184.982 276.619 185.06 277.079 185.019C280.352 184.46 283.586 183.613 286.875 183.216C289.293 182.886 291.745 182.916 294.154 183.305C295.498 183.623 296.885 183.718 298.26 183.587C301.426 183.115 304.566 182.459 307.712 181.85C310.775 181.255 313.614 179.864 316.553 179.03C321.877 177.52 327.097 175.747 332.248 173.797C335.118 172.708 337.972 171.36 340.275 169.116C341.315 168.204 342.458 167.417 343.681 166.773C346.505 165.145 349.069 163.104 351.289 160.716C351.989 159.947 352.45 158.946 353.194 158.234C355.571 156.034 357.597 153.482 359.202 150.667C361.131 147.151 363.591 143.88 364.416 139.82C364.714 138.356 365.067 136.894 365.503 135.465C366.573 131.942 368.097 128.503 368.706 124.905C369.341 121.157 371.064 117.751 371.215 113.801C371.377 109.574 372.472 105.365 372.425 101.068C372.406 99.426 372.021 97.649 372.517 96.1743C373.252 93.9911 372.925 92.106 372.083 90.0289L372.332 82.9878ZM185.327 252.928C185.274 252.86 185.222 252.787 185.169 252.717C185.101 252.775 184.996 252.824 184.983 252.893C184.973 252.945 185.073 253.06 185.138 253.073C185.189 253.083 185.263 252.981 185.327 252.928Z" fill="white"/>
<path d="M47.8556 84.8296C50.6509 85.4847 53.5563 85.5124 56.3636 84.9106C58.5993 84.3852 60.9346 84.4686 63.1273 85.1522C64.4349 85.5442 65.7764 85.8198 67.2191 86.173L67.8304 87.0618L69.9251 87.4239L74.482 92.5178C75.2339 95.27 76.2277 98.9069 77.1949 102.445C76.4477 105.331 75.7318 108.105 75.0974 110.559C72.2616 114.528 68.3004 116.15 63.9336 117.727C65.2072 119.526 66.4733 121.243 67.6565 123.016C68.3507 124.056 68.9259 125.178 69.5304 126.277C70.029 127.183 70.3001 128.306 71.0031 128.994C73.525 131.461 74.391 134.625 75.1939 137.764C74.3054 139.832 72.5727 139.047 71.2917 139.276C68.6577 138.365 66.3537 136.69 64.6726 134.464C63.5213 131.912 62.8292 129.228 61.2703 127.219C59.378 124.781 58.707 121.508 55.8135 119.52C53.6094 119.639 51.173 119.073 48.6068 120.03C45.0069 118.568 40.8385 120.701 36.9785 118.783C35.9053 121.337 36.0391 123.918 35.8917 126.425C35.728 129.225 34.8579 131.83 34.0163 134.439C33.7147 135.376 32.8813 136.141 32.3135 136.95C30.6833 136.28 29.0219 136.483 27.7076 135.202C26.9 134.415 26.2086 133.652 26.1875 132.642C26.2027 130.79 26.3136 128.94 26.5197 127.099C26.6895 125.057 27.381 122.924 26.9952 121.003C26.4097 118.088 27.5385 115.498 27.7076 112.754C27.8 111.262 28.209 109.749 28.031 108.301C27.9508 107.554 27.9995 106.8 28.1749 106.07C28.6103 103.929 28.9012 101.76 29.0457 99.5793C29.1639 97.8582 30.8341 96.1526 30.7044 94.5295C30.5305 92.3681 32.105 91.482 32.9072 90.1379C33.5259 89.1007 35.0548 88.5434 36.2625 87.939C38.3842 86.7869 40.7125 86.0669 43.1132 85.8204C44.7137 85.5932 46.2978 85.2622 47.8556 84.8296ZM66.9793 96.6121C65.4727 95.6974 63.8229 94.2076 61.9041 93.6543C59.5379 92.9814 57.068 92.7522 54.6187 92.9779C49.3886 93.4849 44.2048 94.4071 38.8042 95.1904C37.8945 96.2 37.2343 97.4096 36.8767 98.7217C36.5191 100.034 36.4741 101.412 36.7455 102.745C37.1738 105.352 37.2241 108.009 36.8949 110.631C39.6621 111.938 42.3654 113.075 45.153 112.019C46.6765 112.211 47.9439 112.606 49.155 112.475C51.7571 112.194 54.3171 111.471 56.9185 111.245C60.0157 110.931 63.0166 109.989 65.7383 108.475C68.8845 106.808 69.7274 104.183 68.3948 100.905C67.9227 99.7433 67.6014 98.5197 66.9793 96.6121Z" fill="white"/>
<path d="M261.157 77.9757L265.844 78.9449C268.011 81.3391 266.116 84.5118 267.373 86.7665C267.159 88.0732 267.02 89.3911 266.956 90.7137C267.024 97.0368 266.765 103.341 264.752 109.382C263.68 112.603 263.03 116.087 260.485 118.667C260.205 119.036 259.99 119.451 259.847 119.892C258.535 122.801 256.28 124.066 253.127 123.793C251.392 123.752 249.66 123.595 247.946 123.323C246.3 122.999 244.743 122.329 243.375 121.357C242.007 120.386 240.859 119.135 240.009 117.688L237.915 116.943C237.198 115.091 236.496 113.278 235.728 111.294C234.904 110.599 233.079 110.671 233.079 108.734C233.079 108.491 232.275 108.32 231.984 107.99C230.454 106.256 228.763 104.615 227.511 102.692C225.119 99.0172 222.145 95.8533 219.301 92.5676C218.567 91.8265 217.758 91.165 216.886 90.5939C215.981 89.8515 214.872 89.4026 213.706 89.307C212.541 89.2114 211.374 89.4738 210.36 90.059C209.749 90.3727 209.097 90.6082 208.205 90.99C207.099 92.789 206.499 94.854 206.467 96.9667C206.493 99.0887 205.746 101.104 206.044 103.34C206.305 105.298 205.505 107.398 205.177 109.436C205.139 109.667 205.113 109.9 205.094 110.133C204.777 114.014 204.462 117.896 204.148 121.777C204.052 122.954 203.595 124.237 203.921 125.277C204.283 126.434 203.649 127.251 203.628 128.387L199.517 129.616C199.299 129.222 199.007 128.702 198.724 128.178C198.065 126.953 197.41 125.728 197.111 125.174C197.111 123.028 197.314 121.577 197.073 120.206C196.368 116.204 197.956 112.317 197.513 108.341C197.405 107.764 197.448 107.168 197.637 106.612C198.59 104.347 198.819 101.842 198.291 99.4412C199.072 96.3161 199.577 93.8456 200.317 91.4487C201.322 88.1922 203.017 85.717 206.376 84.0306C210.088 82.1666 213.79 82.7226 217.538 82.5048C220.588 84.4621 224.375 85.3944 226.572 89.0565C230.146 89.7786 231.938 93.0358 234.248 95.6934C235.124 96.702 236.003 97.7078 236.958 98.6347C238.26 100.54 239.327 102.679 240.923 104.292C242.993 106.316 244.508 108.839 245.324 111.618L246.876 112.027C247.942 114.596 250.449 115.225 252.839 116.246C255.314 113.339 256.411 109.998 257.215 106.52C257.872 103.678 257.614 100.791 257.762 97.9304C257.919 94.9012 257.405 91.7958 258.417 88.7482C258.945 87.1571 258.579 85.2699 258.627 83.5168C258.597 82.4607 258.809 81.4117 259.248 80.451C259.687 79.4902 260.34 78.6432 261.157 77.9757Z" fill="white"/>
<path d="M142.979 116.52C144.528 121.035 145.617 125.696 146.227 130.431L144.289 134.874H139.907L138.051 131.417C137.808 129.07 137.445 126.737 136.964 124.428C136.284 122.269 135.491 120.147 134.587 118.073C133.869 118.073 133.074 118.087 132.277 118.073C129.949 118.022 127.62 117.913 125.291 117.913C123.012 117.913 120.729 118.117 118.453 118.043C116.74 117.99 114.943 118.545 113.31 117.53C113.097 117.425 112.85 117.409 112.625 117.486C109.964 118.422 107.496 117.274 104.95 116.846C103.531 116.693 102.105 116.618 100.678 116.621L99.0479 118.757V121.079C95.6518 126.721 92.9023 132.057 88.7196 136.727L87.4107 135.482C87.3584 130.286 89.8254 126.079 90.7899 121.483C92.6048 119.432 92.0675 116.66 93.3947 113.814C94.2325 113.079 94.8781 112.15 95.2753 111.107C95.6725 110.065 95.8092 108.941 95.6735 107.833C95.605 107.372 95.6728 106.902 95.8684 106.479C98.0623 102.979 99.1702 98.8619 102.083 95.7572C103.636 94.1021 104.31 91.81 106.185 90.2801C108.149 88.676 109.649 86.537 112.541 86.4009C113.236 86.3682 113.899 85.5877 114.66 85.0949C116.627 85.0027 118.599 85.0172 120.564 85.1385C122.967 85.2902 125.341 85.7476 127.628 86.4996C131.573 88.0125 133.827 91.3901 135.496 95.0991C136.067 96.367 136.435 97.6893 137.44 98.7319C137.843 99.1593 138.118 99.6908 138.236 100.267C138.904 103.91 140.648 107.164 141.836 110.615C142.433 112.327 142.552 114.209 142.979 116.52ZM132.083 109.903C131.564 108.288 131.071 107.136 130.826 105.933C129.757 100.667 127.747 95.977 123.115 92.7702C120.262 92.7661 117.325 92.3564 114.081 94.1504C113.45 94.8248 112.339 95.8763 111.39 97.0584C109.943 98.8585 108.514 100.686 107.256 102.619C106.175 104.28 104.763 105.878 105.088 108.131L102.501 110.445C105.381 110.399 107.38 110.667 109.466 110.23C110.884 110.036 112.315 109.962 113.745 110.006C116.496 109.903 119.33 110.186 121.978 109.611C125.319 108.876 128.79 108.976 132.083 109.903Z" fill="white"/>
<path d="M112.406 77.3251L110.98 80.031L109.257 79.2572L107.577 74.2456C109.29 65.0751 110.987 55.9923 112.807 46.2563C114.98 43.0624 117.519 39.3303 119.871 35.8751L126.776 33.0086C127.912 32.8514 130.172 33.5217 132.435 32.6132L137.491 34.6433L140.945 39.0601C141.384 40.2946 141.896 41.6938 142.378 43.1046C142.993 44.7301 143.325 46.4495 143.359 48.1877C143.37 49.568 143.593 50.9384 144.018 52.2514C144.882 55.0478 144.867 58.0361 145.739 60.5262C145.449 63.882 146.171 66.8765 146.697 70.0983L145.474 76.4438L141.27 77.4442C140.617 76.9573 140.087 76.3226 139.725 75.5919C139.363 74.8611 139.178 74.0549 139.186 73.2391C138.992 69.7812 138.664 66.33 138.402 63.0184C131.194 63.2137 124.064 63.9236 116.938 61.8867L112.727 73.919L112.406 73.8277L112.406 77.3251ZM118.546 56.2591C124.363 55.1546 130.26 55.1451 136.03 54.7361C137.276 51.6171 135.299 48.9786 135.38 46.1549C135.382 45.3517 135.16 44.5639 134.74 43.8798C133.891 42.5105 132.863 41.2529 132.032 40.1191C128.793 39.4848 126.741 41.536 124.507 42.4085C121.674 45.9071 119.53 49.914 118.191 54.2154C118.286 54.796 118.41 55.5017 118.543 56.2612L118.546 56.2591Z" fill="white"/>
<path d="M311.912 106.172C310.61 107.183 308.667 108.178 308.302 110.542C305.67 112.628 305.17 116.452 302.068 118.186C301.519 118.494 301.214 119.235 300.791 119.772C299.446 121.479 298.561 123.539 296.554 124.74C295.838 125.17 295.488 126.214 294.877 127.115H288.504L287.684 124.959C287.788 121.802 289.993 119.735 291.963 117.56C293.151 116.246 294.282 114.939 294.462 113.609L303.582 101.782C303.559 101.422 303.521 100.851 303.489 100.353C301.42 99.0245 299.425 97.5834 297.512 96.0364C295.837 94.4381 294.297 92.7039 292.907 90.8513C291.694 89.3366 290.329 87.9516 288.832 86.7182C286.944 85.1571 285.313 83.2862 283.612 81.5896C282.042 77.1231 282.069 76.9284 284.65 74.7969L289.716 76.1192L300.322 85.5687C300.47 86.8325 301.764 87.918 303.367 89.06C305.592 90.645 307.409 92.8031 309.615 94.9291L312.061 91.5413L318.795 85.2435L319.907 82.6002L322.352 81.2391C322.848 77.0815 327.507 76.0355 329.183 72.6089C330.773 72.3925 332.298 72.2005 333.473 74.1061C333.63 74.8785 333.856 75.9913 334.055 76.9645C332.713 80.1318 329.128 81.7189 328.577 85.3476C327.394 86.25 326.004 86.87 325.801 88.6986C325.571 89.598 325.094 90.4146 324.424 91.0561C322.234 93.5741 320.102 96.1602 317.7 98.4605C315.488 100.574 314.092 103.178 311.912 106.172Z" fill="white"/>
<path d="M104.978 147.107L106.665 145.775C106.925 145.722 107.189 145.689 107.454 145.678C110.493 145.654 113.577 145.967 116.556 145.548C120.05 145.055 123.581 144.875 127.108 145.009C129.752 145.109 132.383 145.586 135.404 145.941L144.755 150.302C145.506 151.477 146.196 152.684 147.022 153.79C147.566 154.348 148.171 154.844 148.825 155.267C150.008 160.191 151.244 165.343 149.197 170.968L144.892 175.8C142.741 177.284 140.702 178.43 138.982 179.939C136.255 182.332 132.895 183.221 129.609 184.168C125.561 185.335 121.29 185.283 117.168 184.828C113.336 184.405 109.249 184.503 105.621 181.697L104.207 179.052C103.884 173.714 103.091 168.503 103.229 163.183C103.366 157.943 104.361 152.84 104.978 147.107ZM109.728 177.961C112.488 178.19 115.366 178.71 118.208 178.592C121.87 178.438 125.512 177.782 129.159 177.313C129.72 177.24 130.251 176.95 130.812 176.857C133.942 176.339 136.054 173.999 138.623 172.488C140.638 171.432 142.331 169.852 143.524 167.913C143.236 165.11 142.907 161.9 142.603 158.929L139.342 155.985C137.701 154.999 136.406 153.725 134.914 153.422C130.767 152.577 126.776 150.812 122.402 151.142C120.894 151.256 119.256 151.455 117.87 151.011C115.214 150.16 112.594 150.693 109.801 150.484C107.948 156.031 108.569 161.794 107.787 167.321C107.995 168.791 108.115 170.273 108.146 171.758C108.052 173.937 108.602 176.095 109.728 177.961Z" fill="white"/>
<path d="M194.599 166.952C192.765 167.088 191.182 167.172 189.607 167.34C188.353 167.476 187.115 167.826 185.861 167.879C183.362 167.983 180.724 168.453 178.39 167.836C175.684 167.122 173.092 167.597 170.482 167.328C168.075 169.585 167.418 172.786 165.712 175.359L161.869 181.143C160.362 181.578 159.246 181.739 158.287 180.404V177.274C158.847 175.838 159.736 174.279 160.043 172.611C160.519 170.025 161.809 167.883 163.056 165.682C163.305 165.293 163.53 164.889 163.727 164.472C165.408 160.337 167.026 156.177 168.768 152.069C169.338 150.939 170.008 149.862 170.772 148.853C171.411 147.885 172.14 146.975 172.747 145.988C175.167 142.048 175.155 142.041 178.731 140.198L182.994 139.493C183.216 139.702 183.5 139.833 183.803 139.866C186.968 139.787 188.718 142.23 190.867 143.874C192.596 145.196 193.657 147.092 194.603 149.099C195.776 151.585 197.639 153.713 198.576 156.355C200.263 161.119 201.983 165.866 203.7 170.617C204.311 172.135 204.583 173.769 204.499 175.403C204.415 177.038 203.976 178.635 203.212 180.082C200.577 179.323 198.494 178.003 197.591 175.369C196.734 172.874 196.071 170.312 195.265 167.798C195.107 167.471 194.88 167.182 194.599 166.952ZM173.577 160.386C179.726 160.63 185.885 160.316 191.978 159.449L186.718 148.726C184.842 147.643 183.447 145.749 180.766 146.419C177.63 149.474 176.231 153.922 173.543 157.491V160.355C173.439 160.533 173.335 160.711 173.23 160.889C173.344 160.722 173.46 160.554 173.577 160.386Z" fill="white"/>
<path d="M56.3278 33.8027L59.0229 34.1464C58.8192 39.1968 59.4101 43.9512 58.4925 49.2929L59.3327 51.811L71.6165 50.9337C73.3078 51.2372 76.1972 51.913 79.2239 50.8214C80.4716 50.3715 82.0006 50.6928 83.4011 50.6806C84.7868 50.669 86.1724 50.6806 87.6728 50.6806C89.0693 45.9289 88.259 41.195 88.8119 36.1166C88.9844 35.809 89.3464 35.0829 89.7906 34.4153C90.0178 34.1744 90.2845 33.9744 90.5792 33.8238C92.4844 34.4445 92.4844 34.4445 94.7225 36.8945C96.1903 48.27 95.3155 59.7707 95.4697 71.2443C95.4908 72.8184 94.9263 74.4 94.6369 75.9591C92.8227 77.2257 90.8937 76.1272 88.9524 76.7717C88.3683 73.8671 87.1491 71.2865 88.4553 68.4989C87.609 66.4518 89.2575 64.3046 88.134 62.1868C87.7849 61.5273 88.2699 60.4254 88.3691 59.5258C88.4288 58.9976 88.4859 58.4695 88.5572 57.8244C83.5248 58.213 78.7504 58.8323 73.9707 58.8806C69.2915 58.9282 64.5845 59.4312 59.7749 58.6431C59.5711 58.9616 59.1561 59.3237 59.1208 59.7231C58.809 63.1858 58.4959 66.6519 58.3295 70.1234C58.2161 72.1316 57.6082 74.0804 56.5601 75.7958H52.4229C52.1634 74.7614 51.9155 73.7712 51.7844 73.2485C51.9203 71.6833 52.0881 70.5453 52.1091 69.4047C52.1533 66.9486 52.0473 64.4884 52.1396 62.035C52.3189 57.2752 52.2918 52.4792 52.9126 47.7725C53.5083 43.238 54.0537 38.6238 56.3278 33.8027Z" fill="white"/>
<path d="M188.395 48.581C186.697 50.882 184.4 52.6331 181.082 52.8005C180.238 52.8441 179.429 53.5914 178.291 54.1753H166.836C165.944 56.0808 167.131 57.8448 166.588 59.6878C166.097 61.3551 166.552 63.2784 166.287 65.0431C165.919 66.8606 165.448 68.6555 164.876 70.4194C163.759 70.9183 162.731 71.3784 161.855 71.769C159.843 70.7577 159.409 69.2026 159.158 67.4311C158.752 64.5337 158.815 61.5896 159.347 58.7126C159.544 57.9254 159.617 57.1125 159.566 56.3027C159.145 53.3266 159.566 50.3627 159.592 47.3969C159.62 44.3834 160.412 41.2623 159.846 38.391C159.314 35.6892 161.024 33.4108 160.334 31.2562C160.902 28.2767 163.214 27.4001 165.102 26.058L167.451 25.9165L169.429 24.4553L181.376 25.1828L186.198 27.1748C192.787 36.4304 190.802 34.3288 190.989 41.9198C190.065 44.2929 189.274 46.325 188.395 48.581ZM165.781 32.8962C165.814 37.541 165.449 41.9769 166.771 46.5292C168.012 46.8009 169.267 47.0041 170.53 47.1376C172.392 47.2397 174.265 47.1254 176.131 47.1751C177.655 47.1986 179.138 46.6728 180.309 45.6935C181.036 45.1266 181.711 44.4943 182.555 43.7661C182.925 42.8825 183.219 41.9685 183.433 41.0343C183.53 39.843 183.542 38.6463 183.469 37.4533L179.413 32.6261C174.759 31.0805 170.518 30.9689 165.781 32.8962Z" fill="white"/>
<path d="M206.377 25.1462C206.742 24.9141 206.837 24.8453 206.94 24.7895C212.094 22.0101 217.714 22.4532 223.258 22.4838C226.315 22.5008 228.939 24.2104 231.801 25.0155C232.2 25.1271 232.543 25.5879 232.82 25.9574C234.68 28.4462 236.515 30.954 238.118 33.1304V42.3302C236.947 47.0227 233.594 49.1065 230.315 50.859L224.38 52.4352C222.7 51.9343 220.332 54.3148 217.799 52.8006C215.432 53.7405 212.958 53.5179 210.37 53.375C210.098 54.5319 209.834 55.6242 209.528 56.9098C210.551 60.2547 210.062 63.7501 208.985 67.5823C208.22 67.2774 207.391 67.1691 206.908 66.7016C206.202 66.0879 205.692 65.2804 205.439 64.3789C204.876 61.2102 203.721 58.1457 203.817 54.8511C203.86 53.3947 203.561 51.9315 203.524 50.469C203.403 45.8099 203.925 41.176 204.118 36.5285C204.163 35.6654 204.132 34.7999 204.025 33.9423C203.586 30.6668 204.08 27.4675 206.377 25.1462ZM210.155 45.8004C211.062 47.3718 212.125 47.1677 213.175 46.9798C214.05 46.7281 214.948 46.5644 215.855 46.4912C218.997 46.5796 221.969 45.7268 225.011 45.1892C226.904 44.8544 228.163 43.7948 229.479 42.7876C230.506 42.0015 230.936 40.8235 230.925 39.2072C230.839 36.4614 230.056 33.7829 228.649 31.425C222.85 27.5601 216.63 27.8439 210.491 29.4391C209.497 31.1037 209.004 32.3845 209.787 34.0097C210.204 34.876 209.973 36.0636 210.003 37.1069C210.048 38.6239 209.654 40.3164 210.201 41.6149C210.472 42.2804 210.608 42.9935 210.6 43.7123C210.592 44.4311 210.441 45.1411 210.155 45.8004Z" fill="white"/>
<path d="M267.46 45.4294C267.119 44.9164 266.731 44.4361 266.301 43.9948C264.155 42.6463 262.189 41.0292 260.452 39.1826C258.893 37.388 256.932 35.9159 255.456 33.9423C254.378 32.4981 252.761 31.4712 251.535 30.1203C250.616 29.0925 249.833 27.9515 249.203 26.725C248.876 25.9895 248.775 25.1736 248.912 24.3805C248.98 23.9238 249.628 23.5543 250.071 23.0874C252.683 23.802 254.706 25.3972 256.766 26.8243C259.143 28.4685 261.284 30.4442 263.595 32.1864C265.157 33.3618 266.829 34.3819 268.893 35.7662C269.509 36.4678 270.501 37.5976 271.71 38.9764C273.317 37.207 274.761 35.4803 276.348 33.9001C277.876 32.3783 279.552 31.0044 280.643 30.0298C282.418 27.8289 283.645 26.0356 285.147 24.5118C287 22.6321 289.065 22.7424 290.837 24.6173C290.02 28.2153 288.251 31.5266 285.717 34.2036C281.258 39.1445 276.547 43.8743 272.997 49.5842C272.444 50.473 271.285 50.9841 270.308 51.7463C264.904 58.3686 258.962 64.5323 252.545 70.1744L248.934 70.3433C248.652 69.2115 248.062 68.0858 248.2 67.0589C248.43 65.9273 248.974 64.8836 249.768 64.0467C251.008 62.6502 252.018 61.1115 253.125 59.6388C254.715 57.6994 256.562 55.9861 258.613 54.5461C259.838 53.7387 260.85 52.6467 261.562 51.3632C262.537 49.4944 264.352 48.0556 265.855 46.4795C266.35 46.0722 266.888 45.7202 267.46 45.4294Z" fill="white"/>
<path d="M240.884 153.62C241.543 153.105 242.169 152.549 242.757 151.955C243.664 150.919 244.478 149.803 245.339 148.726C245.703 148.269 246.325 147.868 246.414 147.368C246.969 144.229 249.365 142.152 250.823 139.542C251.348 138.6 252.375 137.938 253.163 137.16L256.392 138.265C258.003 140.034 256.775 141.726 256.201 142.972C254.497 146.671 253.816 151.087 249.649 153.599C246.65 157.935 243.499 162.489 240.1 167.403C238.294 169.422 236.064 171.708 234.08 174.192C232.106 176.663 229.614 178.393 227.058 180.116L223.781 179.164C223.568 178.551 223.311 177.815 222.966 176.829C224.028 174.74 225.415 172.833 227.074 171.18C229.053 169.091 231.23 167.189 233.187 165.082C234.512 163.657 235.608 162.019 236.977 160.257C234.6 159.014 232.255 158.07 230.23 156.665C227.419 154.716 223.995 153.519 222.111 150.331C221.673 149.795 221.115 149.371 220.481 149.095C219.194 148.354 217.871 147.674 216.562 146.971C214.228 145.72 213.27 143.801 213.801 140.996C216.386 140.077 218.929 141.032 220.973 141.498C223.516 143.055 225.66 144.413 227.85 145.697C230.04 146.98 232.319 148.139 234.495 149.457C236.623 150.748 238.675 152.171 240.884 153.62Z" fill="white"/>
<path d="M172.541 84.5043H175.352C175.662 84.7874 175.956 84.9235 175.987 85.1045C176.394 87.5423 177.459 89.8052 176.632 92.5138C176.104 94.241 176.904 96.3542 176.986 98.2985C177.036 99.4269 176.85 100.566 176.714 102.493C177.248 104.342 177.241 106.307 176.693 108.152C176.252 109.816 176.242 111.565 176.664 113.233C176.868 114.299 176.702 115.438 176.702 117.358C177.336 119.343 177.188 121.497 176.288 123.377C176.525 124.05 176.788 124.801 177.119 125.747L174.742 130.061C172.507 129.941 170.954 129.124 169.227 126.902C169.115 125.839 168.909 123.915 168.712 121.99C168.489 119.816 169.224 117.551 168.088 115.463C169.305 112.579 167.082 109.485 168.64 106.583C168.934 106.034 168.725 105.203 168.712 104.502C168.678 102.601 168.537 100.709 168.682 98.7953C168.83 96.8217 168.682 94.8215 168.688 92.8336C168.697 89.5322 169.715 86.6902 172.541 84.5043Z" fill="white"/>
</svg>
