<svg width="323" height="331" viewBox="0 0 323 331" fill="none" xmlns="http://www.w3.org/2000/svg">
<path d="M119.873 259.1C119.388 260.439 118.961 261.802 118.403 263.108C117.39 265.48 116.248 267.802 115.262 270.186C114.892 271.316 114.6 272.47 114.385 273.64L112.43 275.226L112.759 275.484C112.033 276.821 111.268 278.137 110.591 279.5C109.449 281.801 108.612 284.231 107.142 286.401C106.258 287.702 105.972 289.405 105.39 290.917C105.053 291.911 104.647 292.879 104.175 293.816C103.002 295.929 102.486 298.291 101.525 300.478C100.184 303.527 99.6183 306.852 97.8095 309.756C96.9427 311.149 96.8873 313.04 96.4434 314.699C95.6049 317.835 94.4011 320.847 93.346 323.91C92.4911 326.394 92.8694 328.822 94.9247 330.775L97.2899 330.902C97.579 330.82 97.8609 330.715 98.1329 330.588C99.9695 329.549 101.574 328.147 102.848 326.466C104.763 323.931 106.778 321.469 108.658 318.908C110.36 316.589 111.937 314.179 113.573 311.813C114.119 311.022 114.67 310.238 115.24 309.467C115.528 309.078 115.993 308.773 116.156 308.346C117.385 305.123 119.259 302.225 121.035 299.322C123.682 294.995 125.796 290.38 128.514 286.101C128.767 285.689 128.968 285.248 129.113 284.787C129.67 282.857 130.493 281.014 131.56 279.311C131.803 279.007 131.984 278.659 132.092 278.285C132.789 274.55 135.523 271.926 137.26 268.762C137.847 267.694 138.452 266.637 139.025 265.615C140.641 265.915 141.494 266.933 142.438 267.879C143.933 269.376 145.455 270.815 147.607 271.448C154.103 273.363 160.154 272.836 165.626 268.527C166.366 267.943 167.216 267.497 168.074 266.95C168.759 267.448 169.287 267.842 169.826 268.22C173.074 270.589 176.803 272.216 180.75 272.987C183.478 273.483 186.16 274.102 188.969 274.334C193.173 274.681 196.988 273.933 200.942 272.625C204.001 271.551 206.934 270.146 209.686 268.434C210.811 267.662 211.887 266.822 212.909 265.919C213.562 266.055 214.191 266.285 214.779 266.601C217.739 268.682 221.15 269.624 224.522 270.745C230.242 272.646 236.107 272.566 241.776 272.382C243.978 271.687 246.017 271.158 247.971 270.401C251.387 269.075 254.606 267.404 256.865 264.351C257.057 264.13 257.291 263.95 257.554 263.82C257.748 263.745 257.951 263.697 258.157 263.676C259.306 264.254 260.428 265.068 261.678 265.401C266.39 266.658 271.017 268.491 276.068 267.81C280.13 267.262 284.339 267.436 288.092 265.407C289.464 264.721 290.773 263.914 292.001 262.995C294.093 261.32 296.308 259.736 297.716 257.371C298.07 256.694 298.375 255.993 298.63 255.274C299.245 253.787 299.9 252.314 300.455 250.805C301.753 247.278 301.045 243.751 300.138 240.316C299.486 237.846 298.388 235.494 297.443 232.965C299.757 232.107 302.268 231.019 304.166 228.856C304.772 228.166 305.782 227.829 306.296 227.519C307.387 226.133 308.43 225.092 309.13 223.86C310.766 220.976 312.939 218.344 312.826 214.666C312.719 211.19 312.785 207.702 312.095 204.288C311.627 202.142 310.996 200.036 310.207 197.986C309.859 197.04 309.099 196.24 308.505 195.389C307.965 194.613 307.397 193.858 306.739 192.954C307.196 192.581 307.683 192.246 308.195 191.952C310.663 190.882 312.809 189.189 314.424 187.04C316.142 184.75 317.238 182.054 317.604 179.216C318.053 175.546 318.022 172.078 316.945 168.568C316.807 167.802 316.762 167.022 316.813 166.246C315.116 164.213 314.825 161.192 311.953 160.012L313.027 157.556L316.989 154.635C318.154 152.602 319.546 150.787 320.279 148.739C321.226 146.091 322.669 143.649 322.834 140.635C323.049 137.12 322.803 133.593 322.104 130.142C321.893 129.308 321.609 128.493 321.256 127.708C320.789 126.45 320.256 125.216 319.661 124.012C319.125 123.1 318.517 122.232 317.845 121.415C316.224 119.264 314.584 117.129 312.835 114.834C313.783 113.253 314.891 111.467 315.935 109.645C317.288 107.283 318.283 104.822 318.099 102.001C317.998 100.451 318.07 98.8902 318.077 97.3342C318.113 92.1893 316.273 87.2072 312.9 83.3172C311.312 81.4151 309.147 80.1702 306.79 78.8937C307.031 78.2365 307.101 77.506 307.496 77.0662C308.959 75.4362 309.866 73.3879 311.571 71.9284C312.999 70.7066 312.909 68.7837 313.279 67.1407C313.627 65.3043 313.829 63.4433 313.882 61.5751C314.172 58.205 313.491 54.8223 311.917 51.8269C311.226 50.5509 310.586 49.2474 309.894 47.972C308.626 45.4967 306.676 43.4347 304.274 42.0285C302.804 41.202 301.086 40.8226 299.505 40.1818C299.05 39.9497 298.622 39.6688 298.228 39.3439C298.585 36.5023 298.918 33.8505 299.256 31.1614C298.415 28.6829 297.56 26.1586 296.576 23.2606L295.364 22.32C295.048 20.8839 294.283 19.5854 293.18 18.6118C292.097 17.6384 291.153 16.5087 290.055 15.5551C289.301 14.967 288.495 14.4488 287.646 14.007C287.409 13.8676 286.998 13.9618 286.82 13.7902C284.31 11.3777 280.65 11.2851 278.338 9.62354C276.466 9.27406 275.059 9.0104 273.654 8.75013C273.559 8.72706 273.461 8.72043 273.363 8.73041C272.425 8.89302 271.489 9.06916 270.551 9.2278C269.733 9.36895 269.092 8.8117 268.1 9.00761C264.099 9.79803 260.62 11.8593 256.848 13.1347C254.492 10.7488 253.271 7.13993 249.434 6.20329C248.38 4.62373 246.858 3.41327 245.08 2.74182C243.504 2.13884 242.104 1.05541 240.342 0.853849C238.072 0.594704 235.881 0.0137657 233.531 0.000215604C228.763 -0.0263199 225.168 2.40081 221.553 4.91774C220.466 5.67428 219.316 6.3992 218.708 7.71468C218.494 8.17595 217.87 8.44866 217.247 8.96074C215.9 7.92811 214.651 6.90959 213.337 5.98254C212.326 5.26947 211.236 4.66704 210.176 4.02454C209.655 3.79696 209.164 3.5061 208.715 3.15851C207.773 2.18064 206.51 2.06091 205.328 1.73402C202.589 0.978599 199.786 0.996665 196.978 1.12539C196.201 1.16096 195.421 1.13104 194.66 1.13104C189.261 4.17529 184.996 8.15224 183.343 14.3808L174.96 7.42336L166.313 4.54116L157.444 5.16729C154.536 6.5127 151.54 6.87855 149.27 8.78741C147.661 10.1424 146.146 11.6104 144.489 13.1178C144.009 12.6599 143.372 12.0682 142.753 11.4584C141.803 10.5229 140.957 9.58855 139.561 9.09962C138.457 8.71344 137.633 7.52442 137.19 7.13542C132.077 4.10585 126.872 3.48991 121.824 2.40308C120.897 2.61915 119.957 2.77267 119.01 2.86264C115.426 2.98176 111.955 3.52656 108.703 5.13676C105.812 6.56799 103.261 8.29848 102.046 11.5104C101.424 13.1528 101.152 13.2607 98.6129 14.5027C96.9199 12.8184 94.9691 11.414 92.8337 10.3423C90.4335 9.15667 88.1034 7.85807 85.4697 7.28614C82.973 6.65384 80.4385 6.18076 77.8817 5.86965C76.1517 5.81884 74.4242 6.03474 72.7601 6.50984C68.4991 7.49674 64.9804 9.62639 62.5124 13.3685C61.9 14.2972 60.8953 14.9679 60.3208 15.5179L56.5466 21.9699C55.0793 21.0231 53.6822 20.1875 52.3568 19.2509C50.144 17.6903 47.4971 16.861 44.7881 16.8796C42.5479 16.8604 40.3026 16.7933 38.0691 16.9197C36.2524 17.0231 34.4504 17.3832 32.399 17.6621L31.2117 18.5152C29.0094 18.6319 26.92 19.525 25.3154 21.0355C24.6613 21.6076 23.9516 22.113 23.1967 22.5441C21.0453 23.6904 19.3219 25.4997 18.2832 27.7028C17.526 29.433 16.5538 31.0613 15.3894 32.5492C13.7887 34.6054 13.0712 36.9885 12.5182 39.3428C12.0805 41.2059 12.279 43.2797 12.2637 45.2608C12.249 47.2041 12.1914 49.1564 12.3378 51.0901C12.4673 52.8003 12.8529 54.4907 13.1237 56.1822L8.40759 58.7273C7.29764 59.9039 6.52582 60.7598 5.71387 61.5767C3.56824 63.804 2.17709 66.6478 1.73669 69.7068C1.46933 71.2063 1.07205 72.6798 0.549316 74.1106C-0.139374 75.9969 0.0856934 77.9294 0.0189514 79.8473C-0.0375977 81.401 0.0517578 82.9593 0.0296936 84.5148C-0.017395 86.0517 0.171753 87.5868 0.590607 89.0665C2.3649 95.0799 4.93753 100.504 10.4482 104.087C11.7209 104.915 12.7409 106.129 14.0233 107.298C13.8317 107.659 13.5983 107.996 13.3279 108.303C11.7673 109.776 10.6794 111.578 9.44739 113.311C6.90298 116.885 6.3002 120.832 6.52866 124.958C6.66492 127.415 7.32025 129.85 7.83536 132.276C7.99261 132.941 8.31326 133.556 8.76831 134.066C9.87283 135.408 10.7122 136.947 11.242 138.602L18.7141 144.818C18.2804 146.291 17.2129 147.768 16.1527 149.202C15.3912 150.183 14.8523 151.318 14.5735 152.527C14.0708 154.74 13.2012 156.869 12.5685 159.02C11.2873 164.361 11.5728 169.72 12.8139 176.406C14.6736 182.046 18.5309 187.744 25.5427 190.816C24.2901 193.299 23.3701 195.935 22.8066 198.657C22.637 199.383 22.3136 200.049 22.7597 200.815C22.9238 201.175 22.944 201.584 22.8163 201.958C21.721 205.176 22.5301 208.492 22.2412 211.46C23.0181 213.713 23.4286 215.852 24.4605 217.629C25.4924 219.406 27.1474 220.815 28.6667 222.541L39.1468 228.174C38.6719 230.734 38.3072 233.629 39.1808 236.556C40.0119 239.341 41.6194 241.71 43.0471 244.592C44.8994 245.718 47.0192 247.001 49.1322 248.295C49.7227 248.619 50.2838 248.993 50.8087 249.415C52.4529 250.877 54.5648 251.317 56.5421 251.964C60.2201 253.075 64.0561 253.574 67.8963 253.441C71.6474 253.393 75.5821 253.24 78.8141 250.821L83.4833 257.15C84.6824 257.232 85.8385 257.629 86.8346 258.301C90.6822 260.639 95.0072 262.082 99.4894 262.525C100.531 262.62 101.603 263.191 102.581 263.036C105.262 262.612 108.001 262.954 110.666 262.163C113.331 261.373 115.981 260.612 118.409 259.207C118.866 259.064 119.345 259.009 119.823 259.046L120.291 258.792L119.873 259.1ZM307.606 215.101C304.722 222.423 299.299 226.631 292.475 229.025C292.236 229.568 292.086 229.911 291.886 230.366C292.322 231.097 292.843 231.773 293.438 232.383C294.72 233.436 295.191 234.92 295.774 236.33C296.17 237.289 296.226 238.386 296.551 239.385C297.352 241.992 297.476 244.76 296.911 247.429C295.686 253.625 290.379 259.148 284.453 260.895C282.162 261.569 279.789 261.864 277.476 262.476C275.744 262.931 273.623 263.078 271.988 262.493C268.557 261.265 264.903 260.933 261.527 259.538C259.92 258.874 258.323 258.348 257.53 256.881L254.091 256.475C253.793 257.386 253.444 258.272 253.214 259.189C252.95 260.304 252.444 261.349 251.733 262.248C251.021 263.148 250.121 263.881 249.096 264.397C246.746 265.695 244.22 266.645 241.597 267.216C240.021 267.555 238.508 268.311 236.832 267.39C236.304 267.101 235.478 267.233 234.813 267.334C232.01 267.761 229.323 267.005 226.728 266.261C223.172 265.245 219.75 263.764 217.002 262.752C214.741 260.793 214.226 258.354 211.999 257.245L209.602 258.369C209.246 259.694 208.9 260.981 208.499 262.477C207.213 263.788 205.709 264.865 204.052 265.659C202.348 266.572 200.528 267.089 198.773 267.783C194.384 269.517 191.01 269.764 186.412 269.055C185.474 268.91 184.546 268.7 183.622 268.474C181.68 267.999 179.645 267.727 177.83 266.949C174.809 265.655 171.938 264.002 169.801 261.394C169.088 260.524 168.543 259.518 167.786 258.369C166.881 259.482 165.241 258.595 164.445 260C164.091 261.589 164.768 263.487 163.243 264.902C162.423 265.301 161.546 265.703 160.689 266.15C155.642 268.787 150.702 268.578 145.998 265.406C144.854 264.635 144.011 263.393 143.107 262.301C142.071 261.05 141.123 259.727 140.272 258.613H137.569L135.769 260.518C135.799 261.016 135.745 261.515 135.609 261.995C134.495 264.212 133.333 266.406 132.141 268.583C131.218 270.27 130.167 271.89 129.276 273.593C127.854 276.311 126.578 279.107 125.127 281.809C123.861 284.166 122.507 286.475 121.066 288.737C119.633 290.987 119.116 293.755 117.055 295.658C116.675 296.009 116.627 296.71 116.399 297.239C116.261 297.693 116.045 298.12 115.761 298.501C114.298 300 113.617 301.904 112.868 303.783C112.621 304.405 112.446 305.264 111.964 305.544C110.85 306.189 110.47 307.242 109.879 308.229C108.748 310.12 107.493 311.94 106.299 313.795C105.219 315.471 103.909 317.052 103.14 318.861C102.091 321.327 100.279 323.188 98.7639 325.286C98.6152 325.492 98.147 325.469 97.4957 325.638C97.9667 324.323 98.3048 323.35 98.6633 322.386C99.2621 320.774 99.8959 319.174 100.476 317.554C101.926 313.507 103.23 309.402 104.83 305.413C106.437 301.4 108.335 297.504 110.088 293.548C110.278 293.12 110.283 292.612 110.471 292.182C111.273 290.348 111.877 288.364 113.009 286.754C113.909 285.519 114.54 284.111 114.863 282.618C115.66 281.329 116.385 279.996 117.036 278.627C117.514 277.684 118.057 276.773 118.532 275.827C119.025 274.906 119.463 273.956 119.845 272.984C120.633 270.803 121.409 268.604 122.301 266.479C123.704 263.138 125.528 259.976 127.115 256.708C128.207 254.462 128.14 252.084 127.819 249.739C125.94 249.151 125.896 249.07 125.233 249.417C123.785 250.173 122.378 251.008 120.968 251.834C119.488 252.701 117.998 253.553 116.561 254.488C114.852 255.597 112.87 255.931 111.013 256.623C108.74 257.469 106.476 258.101 104.023 257.987C102.296 257.906 100.591 257.723 98.8781 257.51C97.1157 257.29 95.5523 256.625 93.8838 256.284C90.0875 255.507 87.2655 253.303 84.7081 250.623C83.978 249.841 83.5486 248.826 83.4958 247.759C83.356 246.899 83.1331 246.055 82.8303 245.238L79.6611 244.773C79.0269 244.904 78.4137 245.121 77.8382 245.417C75.67 246.835 73.2238 247.775 70.6629 248.173C66.4952 248.927 62.2103 248.723 58.1331 247.577C54.1526 246.546 50.9438 244.127 47.5371 242.048C47.3014 241.878 47.1042 241.66 46.9582 241.408C45.8431 239.731 44.7411 238.046 43.8116 236.632V230.383C44.3606 229.681 44.7332 228.857 44.8982 227.981C45.0633 227.105 45.016 226.202 44.7603 225.349L43.0692 223.542C37.5088 223.11 33.2014 219.763 28.6231 216.15C28.086 213.975 27.4702 211.483 26.889 209.132C27.0858 208.432 27.4307 207.856 27.3622 207.334C27.0982 205.332 27.4391 203.349 27.4374 201.358C27.4174 199.963 27.6787 198.577 28.2057 197.285C28.7328 195.992 29.5149 194.818 30.5054 193.834C32.4793 191.815 32.5715 190.55 31.0844 187.866C30.5925 187.701 30.0497 187.509 29.5013 187.337C26.2108 186.284 23.316 184.262 21.1963 181.538C18.8172 178.5 17.339 174.856 16.9296 171.022C16.2511 164.755 17.5917 158.782 19.9993 153.044C20.6562 151.665 21.5509 150.411 22.6426 149.341C23.8495 148.192 25.1228 147.115 26.4559 146.116C26.1472 144.75 25.8797 143.569 25.7519 143.004C23.9658 141.746 22.8225 140.668 21.4672 140.06C19.949 139.379 18.9227 138.224 17.6788 137.256C13.5439 134.037 12.1699 129.569 11.7339 124.734C11.5219 122.38 11.9895 119.965 12.1297 117.839C12.7811 117.121 13.3719 116.35 13.8961 115.534C15.2226 112.973 16.6164 110.482 18.8622 108.574C19.3854 108.086 19.8791 107.567 20.3408 107.021V105.105C19.0647 104.307 17.8818 103.487 16.626 102.799C13.614 101.147 11.5089 98.4741 9.05609 96.1932C8.75433 95.8134 8.52667 95.3804 8.38495 94.9167C7.71603 93.4273 7.07373 91.9244 6.39804 90.4401C5.70972 88.9626 5.3089 87.368 5.21689 85.7411C5.02124 82.2 5.46451 78.6724 5.30789 75.7112L7.55432 68.3151C12.3661 61.0703 12.7195 62.0296 18.6841 60.9224C19.9218 59.3913 20.0802 57.7697 19.314 55.8524C18.7118 54.2475 18.2986 52.5781 18.0825 50.8779C17.8875 49.5443 18.3047 48.0922 17.9734 46.8156C17.5951 45.3584 18.1555 44.0283 18.0226 42.6592C17.7042 39.3846 19.0663 36.6582 20.8497 34.1384C22.5414 31.6785 24.4087 29.3436 26.4372 27.1522C27.6765 25.9494 29.1488 25.0121 30.7639 24.3977C34.3885 22.8457 38.2864 22.0302 42.2301 21.9987C42.713 21.9524 43.187 21.8384 43.638 21.66C47.0492 22.2624 50.237 22.7603 53.223 24.2469C54.5925 24.9289 55.4728 25.5692 55.7267 27.0506C55.7686 27.2934 56.0796 27.4899 56.3199 27.7711H58.8501C60.8398 25.5827 62.7188 23.4142 63.6607 20.6076C63.7288 20.3276 63.84 20.0598 63.9904 19.8138C66.1469 16.9576 68.3741 14.1504 71.5371 12.3285C72.4052 11.9355 73.3234 11.664 74.2658 11.5217C74.8205 11.3868 75.4317 11.4426 75.9621 11.2558C77.4848 10.7177 78.9865 10.8961 80.5222 11.162C81.2394 11.2298 81.961 11.2368 82.6793 11.183C88.1566 13.5096 93.6593 15.8894 97.9661 20.2282H102.4L109.199 11.3619L114.292 8.67562C116.363 8.38434 118.448 8.1989 120.539 8.12007C122.83 8.12345 125.119 8.50059 127.191 8.69368C132.336 10.2943 136.708 12.8191 140.173 16.7554C140.611 17.3116 141 17.9659 141.496 18.5248C142.049 19.1498 142.701 19.6879 143.376 20.3264C144.74 20.2818 146.146 20.4834 147.29 19.173C149.197 16.9835 151.236 14.9098 153.039 12.98C156.682 12.0643 159.768 10.4564 163.311 10.2977C166.883 10.1379 170.065 11.5324 173.201 12.2607C174.011 12.8587 174.871 13.3839 175.773 13.8303C179.137 15.0863 181.91 17.5482 183.554 20.7357C183.954 21.3729 184.4 21.9798 184.89 22.5515L187.585 21.4996C187.791 19.8674 187.972 18.2595 188.207 16.66C188.282 15.8031 188.464 14.959 188.748 14.147C190.218 10.6732 193.012 8.38316 196.289 6.89999C200.093 5.178 203.916 6.2637 207.314 8.24371C211 10.3925 214.375 13.0173 216.248 17.2257L219.414 18.041C220.014 16.6673 221.085 15.9187 221.073 14.4508C221.068 13.6558 221.953 12.7976 222.558 12.0676C223.481 10.9531 224.51 9.92223 225.255 9.11657L228.714 7.20937C229.813 6.86333 230.929 6.57412 232.058 6.34278C233.68 6.11694 235.218 5.61892 236.985 6.15697C238.551 6.63348 239.982 7.56845 241.456 7.86203C244.548 8.47517 246.338 10.7714 248.448 12.5572C250.004 13.8743 250.923 15.9373 252.139 17.6588C252.908 18.7473 253.7 19.8194 254.418 20.8103C257.205 20.4247 257.205 20.4247 258.755 18.5384C263.247 15.856 267.931 14.6377 272.482 13.9003C277.862 14.8827 282.49 17.1218 287.353 19.8177C287.484 20.008 287.831 20.5906 288.254 21.1123C289.348 22.4617 290.503 23.7625 291.586 25.1209C293.026 27.0616 294.074 29.2638 294.671 31.6046C294.962 32.5982 294.761 33.7263 294.927 34.7702C295.129 36.0287 295.159 39.7855 294.84 41.106C295.278 41.932 295.725 42.7721 296.213 43.6935C297.897 43.0725 298.96 44.3671 300.273 44.856C300.877 45.1276 301.438 45.487 301.936 45.9225C305.111 48.3739 306.704 51.9178 308.406 55.3742C308.616 55.9085 308.735 56.4742 308.757 57.0477C308.945 58.751 309.102 60.4572 309.262 62.1634C309.363 63.2361 308.414 68.0407 307.84 68.8317C305.805 71.636 303.725 74.4053 301.662 77.1876L301.379 77.008L300.677 79.3606C301.206 80.1584 301.634 81.1724 302.378 81.8313C303.278 82.7149 304.378 83.3695 305.584 83.7401C306.415 83.9531 307.136 84.4672 307.607 85.1821C309.373 87.4969 311.467 89.5683 312.453 92.4709C313.573 95.7686 313.47 99.1008 313.405 102.467C313.407 102.565 313.389 102.662 313.353 102.754C312.205 105.383 311.274 108.121 309.452 110.408C308.612 111.461 307.799 112.535 307.044 113.507C306.927 115.487 307.769 116.998 308.366 118.161C313.526 122.067 316.128 127.158 318.205 133.005C318.132 134.052 318.141 135.104 318.231 136.15C318.637 139.329 318.143 142.558 316.806 145.471C315.696 148.13 314.019 150.514 311.891 152.458C310.61 153.61 309.346 154.793 308.184 156.06C307.506 156.88 306.882 157.745 306.318 158.648C307.241 160.962 307.154 161.061 308.813 162.504C310.566 164.034 311.784 166.083 312.29 168.352C312.63 169.736 313.287 171.129 313.24 172.499C313.184 174.198 313.729 175.871 313.338 177.564C313.08 178.679 312.869 179.804 312.559 181.306C312.326 181.563 312.111 181.836 311.916 182.123C310.212 184.946 307.618 187.125 304.541 188.32C302.86 188.952 301.036 189.534 300.06 191.181V194.074C302.174 195.466 304.001 197.146 304.696 198.514C306.453 201.969 307.919 205.497 307.63 209.523C307.5 211.36 307.606 213.215 307.606 215.101Z" fill="white"/>
<path d="M76.318 229.166C75.9171 226.822 75.5094 224.48 75.1198 222.133C75.0167 221.568 74.9564 220.996 74.9395 220.422C74.9163 218.638 75.7135 216.997 75.203 215.035C74.8162 213.547 75.8091 211.73 76.0426 210.04C76.1523 209.249 76.4158 208.503 76.1908 207.575C75.9639 206.246 76.0806 204.88 76.53 203.607C77.2029 201.232 77.4104 198.727 77.8486 196.282C78.1172 194.785 78.3846 193.282 78.7793 191.816C79.1315 190.617 79.0759 189.336 78.6209 188.172C78.9268 186.559 80.4631 186.387 81.7019 185.616C83.5005 185.606 85.4643 185.68 86.8439 184.562C90.5141 184.29 94.0033 184.497 97.2217 183.659C100.426 182.826 103.323 184.08 106.382 183.946C108.038 183.952 109.691 184.108 111.319 184.413C114.348 184.847 117.402 185.127 120.413 185.655C121.69 185.881 122.883 186.576 124.201 187.091C125.362 187.725 126.637 188.378 127.865 189.109C128.514 189.488 129.11 189.95 129.64 190.484C130.238 191.105 130.578 192.058 131.268 192.488C135.105 194.879 136.441 198.738 137.55 202.756C138.154 204.656 138.658 206.586 139.06 208.539C139.29 210.417 139.281 212.318 139.032 214.195C138.815 216.549 138.46 219.014 137.116 221.045C136.091 222.594 135.443 224.332 134.031 225.739C132.876 226.875 131.653 227.941 130.368 228.931C129.532 229.585 128.643 230.173 127.541 230.954C125.697 230.85 123.879 231.424 122.43 232.567C121.234 233.364 119.836 233.805 118.398 233.838C116.131 233.871 113.909 234.469 111.932 235.577C109.663 235.826 107.479 235.775 105.486 236.368C103.444 236.973 101.452 236.782 99.4404 236.797C97.3721 236.813 95.3015 236.587 93.2253 236.612C91.2005 236.439 89.3742 235.512 87.0949 236.043C85.4846 236.419 83.5729 235.49 81.7924 235.159C81.3197 235.072 80.8357 235.046 80.3964 234.996C78.6373 233.371 76.858 231.843 76.318 229.166ZM82.6366 228.369C84.8798 229.165 87.2525 229.534 89.632 229.458C92.0068 229.387 94.3742 230.033 96.8027 229.998C99.0808 229.965 101.368 230.054 103.641 229.885C106.026 229.712 108.4 229.364 110.778 229.095L110.732 228.943L118.088 227.275C119.111 226.49 120.305 225.957 121.573 225.72C123.104 225.387 124.524 224.431 125.924 223.627C129.161 221.763 131.051 218.753 132.7 215.455C132.634 215.245 132.429 214.947 132.488 214.719C133.082 212.442 132.393 210.226 132.31 207.983C132.224 205.652 131.114 203.977 129.925 202.241C129.007 200.899 127.995 199.621 126.815 198.034C126.332 197.696 125.536 197.166 124.764 196.601C121.567 194.336 117.856 192.9 113.964 192.423C113.239 192.226 112.499 192.089 111.751 192.011C109.975 192.03 108.2 191.913 106.441 191.662C105.709 191.585 104.972 191.557 104.236 191.579C103.438 191.583 102.637 191.698 101.844 191.652C101.087 191.609 100.34 191.321 99.5868 191.314C95.3066 191.284 91.0252 191.297 86.7444 191.326C86.2198 191.355 85.6986 191.427 85.1861 191.542C83.4361 198.595 82.9651 205.544 82.1447 212.432C82.2496 213.345 82.2583 214.267 82.1707 215.182C81.966 216.492 81.2388 217.8 81.3378 219.061C81.5775 222.137 82.1673 225.178 82.6366 228.369Z" fill="white"/>
<path d="M107.835 59.2152L109.903 58.2656L111.076 58.6992L114.7 58.2633C115.57 58.746 116.205 59.3558 116.906 59.4444C120.674 59.9215 123.09 62.3323 125.338 65.0457C128.116 68.3982 128.813 72.5959 130.051 76.5723C130.133 76.9543 130.142 77.3485 130.075 77.7337C129.851 79.6683 129.862 81.623 130.108 83.5551C130.212 84.2726 129.843 85.0484 129.766 85.8055C129.702 86.4266 129.753 87.0589 129.753 88.0944C129.022 89.9456 127.778 92.1255 128.314 94.7198C128.365 94.91 128.34 95.1131 128.242 95.2843C126.546 97.1627 126.747 100.005 124.827 101.815C123.884 102.704 123.311 103.973 122.497 105.012C121.494 106.293 120.524 107.534 118.784 108.073C117.759 108.39 117.046 109.612 116.035 110.101C114.695 110.801 113.258 111.3 111.772 111.581C109.798 111.903 107.902 112.671 105.835 112.522C105.362 112.562 104.894 112.656 104.443 112.805C103.882 112.904 103.203 113.218 102.771 113.019C100.584 112.008 98.0782 112.134 95.9296 110.926C94.8835 110.337 93.574 110.214 92.3487 109.87C91.1269 108.896 89.8338 107.888 88.5712 106.843C88.1644 106.572 87.8381 106.197 87.6263 105.757C87.0072 103.724 86.0997 101.793 85.3969 99.7931C84.6539 97.6804 84.4357 95.5339 83.9624 93.4093C83.7549 92.4823 83.6344 91.5361 83.4303 90.6085C83.0153 88.7295 83.4869 86.8545 83.4303 84.9767C83.3738 83.1322 83.1013 81.2103 83.5016 79.4533C84.1758 76.1903 85.1746 73.0027 86.4831 69.9378C87.3651 67.99 89.43 66.6102 90.5682 64.7352C92.0513 62.2916 94.4764 61.4211 96.806 60.3845C98.0585 59.9018 99.3789 59.6174 100.719 59.5415C102.055 59.406 103.377 59.445 104.702 58.9967C105.434 58.7416 106.373 59.0831 107.835 59.2152ZM121.837 84.9852C121.441 84.319 121.493 83.1333 121.797 81.7191C122.15 80.0818 121.681 78.2367 121.43 76.5023C121.152 75.1716 120.803 73.8565 120.386 72.5626C120.255 72.3119 119.809 71.4594 119.362 70.6046C117.559 70.2929 116.844 68.2661 114.924 68.0724C113.173 67.8043 111.439 67.4382 109.729 66.976C108.323 68.3169 106.756 67.0545 105.093 66.9314C102.681 68.379 99.9096 68.5924 97.1922 68.8137C95.9222 69.7301 94.6681 70.5453 93.816 71.919C92.8982 73.22 91.8942 74.4583 90.8108 75.6255C90.8263 76.8999 90.6788 78.1711 90.372 79.4082C90.1843 80.3392 89.6692 81.369 89.8971 82.1894C90.6638 84.9496 89.8405 87.8443 90.8193 90.5961C91.0879 91.3486 90.6101 92.3626 91.3847 93.1401C91.5266 93.2823 91.2479 93.8424 91.1766 94.1512C92.7033 98.0469 94.3023 101.889 98.6278 103.727C99.688 103.939 100.897 104.22 102.119 104.415C103.307 104.605 104.498 103.449 105.7 104.396C108.214 103.946 110.656 103.164 112.964 102.071C114.411 101.398 115.105 99.8903 116.233 98.9881C118.684 97.0289 119.332 94.2783 120.229 91.6253C120.891 89.6521 121.224 87.571 121.837 84.9829V84.9852Z" fill="white"/>
<path d="M217.764 233.765L213.271 234.575C210.857 232.722 210.799 230.618 212.222 227.8C213.664 226.61 215.42 224.977 217.363 223.609C219.105 222.384 220.942 221.358 222.048 219.412C222.35 218.88 223.105 218.619 223.616 218.191C225.172 216.891 226.717 215.579 228.253 214.257C231.645 211.332 235.025 208.397 238.547 205.347C238.48 205.22 238.389 204.789 238.123 204.591C235.897 202.935 233.585 201.389 231.407 199.673C229.628 198.271 227.525 197.273 226.072 195.456C225.901 195.217 225.671 195.027 225.404 194.903C222.705 193.909 220.798 191.841 218.656 190.075C217.873 189.429 216.843 189.083 216.329 188.245L214.586 185.592L213.66 186.501C213.483 185.671 213.306 184.842 213.061 183.688L214.751 179.795H217.222C218.767 181.223 220.133 183.006 222.016 182.764C223.448 183.747 224.419 184.481 225.454 185.108C227.479 186.333 229.706 187.202 231.427 188.961C231.844 189.388 232.543 190.47 233.76 189.703C235.015 191.953 237.5 192.821 239.323 194.522C241.107 196.186 243.54 197.159 245.862 198.538L249.121 196.949C249.045 196.86 248.969 196.77 248.891 196.681C251.693 193.954 254.495 191.228 257.298 188.502C259.801 186.073 262.307 183.647 264.818 181.224C265.211 180.844 265.524 180.321 265.988 180.085C267.087 179.496 268.243 179.018 269.437 178.66C270.331 178.417 271.382 178.212 272.321 179.367C272.361 180.083 272.416 181.031 272.476 182.089C270.566 184.68 268.642 187.311 266.69 189.921C266.289 190.433 265.847 190.911 265.368 191.351C264.601 192.085 263.599 192.664 263.057 193.533C261.371 196.238 258.895 198.196 256.77 200.481C255.546 201.818 254.236 203.073 252.848 204.239C250.8 205.917 248.892 207.759 247.142 209.746C247.083 209.822 247.008 209.883 246.921 209.927C242.462 211.79 239.613 215.855 235.531 218.246C234.721 218.783 233.994 219.435 233.374 220.183C231.204 222.554 228.551 224.328 226.018 226.256C225.431 226.703 224.957 227.296 224.411 227.799C223.845 228.317 223.252 228.8 222.683 229.312C221.065 230.765 219.462 232.224 217.764 233.765Z" fill="white"/>
<path d="M177.162 178.004C177.937 178.326 178.632 178.634 179.342 178.891C179.479 178.94 179.689 178.784 179.809 178.742C180.827 179.529 181.822 180.284 182.797 181.067C183.211 181.325 183.562 181.672 183.824 182.083C185.827 186.7 188.451 191.096 188.838 196.294C188.906 197.345 189.16 198.375 189.59 199.337C191.084 202.521 191.443 205.936 191.729 209.351C191.812 211.074 192.054 212.787 192.455 214.466C192.784 215.669 192.549 216.984 192.969 218.254C193.353 219.409 193.314 220.699 193.51 221.923C193.629 222.413 193.785 222.893 193.977 223.359C193.624 225.402 193.253 227.546 192.877 229.714C190.949 230.092 189.573 229.033 188.002 228.657C186.937 226.947 187.064 224.968 186.634 223.14C186.307 221.751 186.464 220.194 185.918 218.923C184.887 216.533 184.802 214.076 184.783 211.533L183.276 210.704C180.649 211.379 177.898 211.418 175.252 210.817C174.79 210.683 174.311 210.617 173.83 210.619C170.516 210.953 167.169 210.599 163.999 209.579C163.627 209.507 163.246 209.504 162.874 209.568C162.072 209.608 161.271 209.664 160.364 209.721L157.275 215.078V217.684L156.935 217.576C156.254 219.239 155.593 220.91 154.886 222.562C154.223 224.115 153.511 225.647 152.95 227.255L150.395 231.32L147.938 228.94C148.365 225.813 148.653 222.695 149.813 219.733C150.37 218.315 151.155 216.918 151.363 215.442C151.753 212.992 152.61 210.64 153.889 208.513C154.044 208.24 153.919 207.823 154.021 207.503C155.318 203.445 156.356 199.31 158.585 195.576C159.54 193.975 159.899 192.02 160.228 190.082C161.887 187.969 163.47 185.791 165.229 183.764C166.528 182.263 167.955 180.878 169.494 179.624C170.938 178.451 172.802 178.202 174.616 178.018C175.389 177.939 176.174 178.004 177.162 178.004ZM173.632 185.16C172.48 186.319 171.328 187.464 170.192 188.625C168.98 189.863 167.783 191.117 167.087 191.838C165.667 196.305 164.531 200.099 161.993 203.694C164.556 203.474 166.887 203.529 169.287 203.267C171.45 203.03 173.713 203.531 176.006 203.15C178.268 202.773 180.633 202.985 183.297 202.932C181.419 196.997 180.979 190.928 178.159 185.706L176.021 184.37L173.632 185.16Z" fill="white"/>
<path d="M214.844 165.039L211.466 157.623C211.448 157.024 211.33 156.433 211.118 155.872C210.559 154.786 210.123 153.641 209.818 152.459C209.374 150.822 208.854 149.184 208.423 147.53C207.384 143.539 206.352 139.545 205.3 135.556C205.058 134.639 204.747 133.74 204.478 132.867L202.339 131.808L199.92 136.393V139.446L198.865 141.002C198.607 146.468 198.013 151.914 197.085 157.307C196.523 159.818 196.234 162.381 196.223 164.954C196.267 166.229 195.523 166.825 195.504 167.964C193.092 166.945 192.269 165.439 192.371 163.133C192.45 161.334 192.684 159.458 191.993 157.6C192.118 156.769 192.517 155.781 192.352 154.9C191.872 152.355 192.243 149.824 192.516 147.351C192.899 143.897 192.553 140.372 193.511 136.972C193.69 136.335 193.463 135.586 193.637 134.947C193.955 133.775 194.188 132.457 194.898 131.541C196.003 130.085 196.825 128.435 197.321 126.676C199.226 125.459 201.181 124.954 204.119 124.913C204.785 125.323 205.42 125.769 206.098 126.124C209.512 127.901 210.77 131.128 211.563 134.536C212.252 137.499 213.182 140.401 214.341 143.214C215.237 145.392 215.626 147.772 216.354 150.026C217.376 153.194 218.03 156.525 220.142 159.19L221.288 159.663C223.674 158.572 223.748 158.485 225.373 155.146C225.826 152.391 226.044 150.385 226.499 148.434C227.059 146.409 227.405 144.33 227.532 142.233C227.557 141.104 228.165 139.925 227.979 138.861C227.658 137.033 228.092 135.361 228.348 133.616C228.542 132.297 228.736 130.843 228.379 129.607C227.674 127.171 228.7 125.321 229.857 123.203L233.244 123.054C235.181 123.938 235.458 125.764 235.514 127.401C235.592 129.687 236.008 132.04 235.077 134.295C234.975 134.77 234.963 135.26 235.042 135.739C235.052 138.714 234.697 141.678 233.984 144.566C233.728 145.672 233.942 146.887 233.602 148.001C232.917 150.577 232.232 153.153 231.548 155.73C230.643 159.121 229.312 162.285 227.12 164.558L222.843 166.241C220.271 165.936 216.914 167.039 214.844 165.039Z" fill="white"/>
<path d="M168.072 61.6225L170.849 61.4152L172.436 62.2057C172.662 62.8606 172.911 63.576 173.11 64.1513C172.803 67.2294 172.262 70.128 170.468 72.6731C170.631 73.1146 170.793 73.5544 170.959 74.0015C169.56 78.3443 168.159 82.6928 166.662 87.3411L165.265 88.9219C165.354 90.4462 164.762 91.8278 164.04 93.2128C163.147 94.9235 162.734 96.851 161.714 98.5233C159.993 101.343 159.125 104.655 156.602 107.025C155.614 107.954 154.777 108.888 153.304 109.064C152.475 109.164 151.697 109.675 150.398 110.203L144.471 109.48C143.268 108.613 142.123 107.667 141.046 106.648C140.372 105.859 139.875 104.935 139.588 103.938C139.231 102.862 139.289 101.643 138.903 100.581C138.125 98.4357 138.026 96.2113 137.795 93.9902C137.479 90.9538 137.109 87.9232 136.78 84.8879C136.763 84.7225 136.956 84.5429 136.968 84.364C137.17 81.4846 136.76 78.6148 136.565 75.7597C136.326 72.2773 136.834 68.8639 136.831 65.4334C136.831 63.2316 138.203 62.0239 138.902 60.2466C140.561 60.0343 142.155 59.682 143.648 60.3753C144.44 61.4672 144.186 62.5874 144.106 63.607C144.032 64.5374 144.728 65.3115 144.248 66.3684C143.669 67.6472 144.488 69.0942 144.314 70.535C144.216 71.3543 144.784 72.2056 144.35 73.2394C144.072 73.8999 144.652 74.8767 144.681 75.7156C144.822 78.1956 145.169 80.6595 145.72 83.0818C146.11 84.6188 146.052 86.2351 145.554 87.7408C145.686 89.2166 146.046 90.5721 145.873 91.856C145.495 94.6456 146.099 97.3133 146.541 100.004C146.784 100.878 147.116 101.725 147.531 102.532C148.374 102.532 149.197 102.746 149.82 102.484C150.868 102.045 152.002 101.514 152.406 100.288C153.537 96.8436 155.562 93.8022 156.632 90.2791C157.674 86.8499 158.517 83.3596 159.646 79.9523C160.647 76.9323 161.529 73.8627 162.255 70.7665C163.142 66.9894 164.578 63.6409 168.072 61.6225Z" fill="white"/>
<path d="M136.107 143.839C135.828 143.202 135.684 142.514 135.684 141.818C135.684 141.123 135.828 140.435 136.107 139.797C136.545 138.655 136.652 137.392 137.003 136.212C138.032 132.999 139.874 130.107 142.35 127.813C144.828 127.922 147.285 127.232 149.535 128.595C152.9 132.189 153.731 136.857 155.246 141.75C155.437 141.969 155.946 142.553 156.455 143.138C156.53 143.312 156.583 143.495 156.613 143.682C156.611 144.641 156.875 145.582 157.376 146.4C158.372 148.013 158.99 149.854 159.86 151.553C160.686 153.166 161.392 154.816 162.086 156.488C162.948 158.564 164.511 160.349 165.879 162.422L168.753 161.202C169.512 158.746 170.487 156.373 170.811 153.789C171.079 151.658 171.42 149.536 171.733 147.409C171.761 147.222 171.9 147.029 171.869 146.86C171.176 143.077 172.636 139.424 172.559 135.678C172.518 133.638 172.552 131.597 172.552 129.602C173.014 128.495 173.456 127.435 173.956 126.238L177.052 125.47C177.658 126.33 178.309 127.256 178.665 127.762C178.914 129.987 179.246 131.687 179.258 133.39C179.224 135.356 179.087 137.319 178.849 139.271C178.599 141.828 178.211 144.372 178.02 146.932C177.822 149.586 176.94 152.139 177.042 154.845C177.019 155.804 176.698 156.733 176.123 157.503C175.368 158.616 174.925 159.911 174.841 161.253C174.792 162.027 174.555 162.777 174.151 163.439C173.747 164.101 173.188 164.655 172.523 165.054C172.119 165.311 171.752 165.622 171.433 165.978C169.47 168.134 167.156 168.962 164.29 168.028C163.184 167.668 162.014 167.548 160.859 167.674C160.191 166.833 159.469 166.029 158.873 165.14C158.446 164.503 158.257 163.705 157.832 163.064C157.357 162.346 156.715 161.74 156.187 161.053C155.955 160.751 155.634 160.34 155.682 160.03C156.175 156.822 153.677 154.73 152.707 152.077C151.641 149.154 148.43 141.041 148.431 137.39C147.516 136.002 147.312 134.032 145.157 133.401L143.535 135.274C142.986 137.71 142.433 139.833 142.042 141.987C141.647 144.169 141.406 146.38 141.108 148.58C140.983 149.497 141.128 150.545 140.723 151.308C140.473 151.773 140.338 152.293 140.332 152.821C140.325 153.35 140.446 153.872 140.685 154.344C140.622 158.141 139.206 161.175 139.15 164.447C139.131 165.557 138.929 166.638 139.007 167.784C139.089 169.006 138.258 170.109 136.816 170.889L133.998 166.749C133.787 159.056 134.495 151.365 136.107 143.839Z" fill="white"/>
<path d="M251.305 64.257V60.1575L253.595 58.8234C255.146 59.4235 256.791 59.7414 257.654 61.3674C260.745 63.0888 262.213 66.1737 264.049 68.9492C264.18 69.2085 264.352 69.4447 264.558 69.6487C267.212 71.6395 268.311 74.7368 270.099 77.3728C271.276 77.051 271.653 76.0003 272.043 75.0631C273.825 70.9446 276.116 67.0655 278.865 63.5168C279.642 62.4819 279.826 61.0247 280.432 59.8357C281.156 58.4135 281.702 56.7915 283.504 56.1704L285.888 56.8637C286.3 58.2695 286.752 59.812 287.197 61.3285C286.175 66.1551 283.969 70.4832 281.782 74.822C280.885 76.6033 280.16 78.4732 279.249 80.2471C278.551 81.6021 277.645 82.8544 276.9 84.1902C276.019 85.771 275.242 87.4083 274.362 88.9892C273.438 90.6507 272.019 92.0345 271.568 93.962C269.64 95.6163 268.861 98.0452 267.454 100.052C265.82 102.385 264.236 104.754 262.632 107.103L257.713 107.668C256.566 107.329 255.981 106.299 255.894 104.772C255.735 103.326 256.015 101.866 256.698 100.581C258.289 97.9633 260.128 95.4961 262.305 92.3276L265.408 85.1709C263.116 83.5434 261.311 81.3243 260.185 78.751C259.289 76.67 257.609 74.9366 256.403 72.9724C255.765 71.7456 255.206 70.4793 254.729 69.1812L253.344 68.2525L251.305 64.257Z" fill="white"/>
<path d="M57.1536 57.5576L58.4993 54.8781C60.4466 53.0432 62.7287 53.741 65.0887 53.6744L66.2275 57.4233C65.7339 59.4038 65.1227 61.4967 64.7037 63.6269C64.1513 66.434 63.6644 69.2598 63.3224 72.0957C63.1488 73.2561 62.8677 74.3979 62.4827 75.5063C61.8607 77.501 61.569 79.5974 61.15 81.6536C60.5806 84.4517 59.9768 87.2429 59.4758 90.054C59.1507 91.8765 59.0235 93.7335 58.7311 95.5627C58.5519 96.6817 58.2285 97.7782 57.9271 99.0671C58.5977 100.379 56.3298 102.468 58.7656 103.814C60.3133 103.399 61.9432 103.399 63.4909 103.814C63.6792 103.866 63.8754 103.883 64.0698 103.864C66.6075 103.652 69.1688 103.578 71.6748 103.167C72.8288 102.922 74.0208 102.913 75.1781 103.142C76.3355 103.372 77.434 103.834 78.4067 104.501C78.664 105.77 78.9269 107.07 79.2209 108.519C78.6956 109.51 78.1138 110.605 77.5722 111.625C70.9262 113 64.3311 112.478 57.7654 112.451C56.0062 112.437 54.3197 111.749 53.0554 110.527C52.067 109.593 51.0419 108.697 50.4358 108.148C50.0686 106.374 49.7955 104.581 49.6176 102.777C49.5611 101.422 49.9331 100.055 50.0202 98.686C50.1062 97.331 50.0406 95.9664 50.1016 94.6085C50.1655 93.1779 49.9885 91.7597 50.5579 90.3256C51.0012 89.2072 50.9187 87.8888 51.1234 86.6693C51.7431 83.0164 52.3788 79.3666 53.0305 75.7198C53.2641 74.4043 53.5473 73.0978 53.7989 71.7857C54.014 71.0536 54.1395 70.2981 54.1727 69.5359C54.0562 67.6281 54.7466 65.9519 55.515 64.3055C56.9981 61.1348 57.0332 61.1269 57.1536 57.5576Z" fill="white"/>
<path d="M53.1638 143.346C52.418 142.239 51.6513 141.145 50.9355 140.015C50.6268 139.529 50.5431 138.851 50.1507 138.475C48.2967 136.697 48.5551 134.429 48.6133 132.225C48.6773 130.182 49.4104 128.216 50.7003 126.628C51.5911 125.487 52.7059 124.539 53.9765 123.843C55.247 123.147 56.6465 122.717 58.0892 122.58C61.4005 122.218 64.7478 122.359 68.0164 123.001C70.1632 123.352 72.3274 123.588 74.4995 123.708C77.7157 124.972 80.5529 126.139 83.4332 127.193C83.9595 127.349 84.432 127.648 84.7976 128.057C85.1631 128.465 85.4073 128.968 85.5027 129.508L84.2672 130.845H75.9951L72.6404 129.237C69.6046 129.118 66.0408 128.886 62.4764 128.881C60.8454 128.895 59.2248 129.14 57.6623 129.607C55.1547 130.341 54.3201 131.944 54.349 135.4C54.8426 136.532 55.5797 137.542 56.508 138.359C57.4363 139.175 58.533 139.777 59.7205 140.123C60.5141 140.469 61.26 140.916 61.9403 141.452C64.5701 143.156 66.7798 145.485 69.638 146.832C73.034 148.501 75.8454 151.157 77.7038 154.45C79.2638 157.069 81.0398 159.769 80.6903 163.257C80.3138 166.994 78.9025 169.819 75.4359 171.463L70.2226 173.932L59.8879 173.368C55.5381 171.866 52.1489 170.527 49.3342 167.936L48.5715 163.897C49.4467 162.457 50.5182 162.963 51.5366 162.786C54.604 165.653 58.5043 167.042 61.7962 168.228L65.9294 168.464L65.9181 168.657C66.8533 168.466 67.8066 168.338 68.7198 168.072C72.4408 166.989 75.6123 165.257 75.0406 162.021C73.4501 157.368 70.4811 155.153 67.3356 152.35C65.4591 151.501 63.748 150.326 62.2813 148.882C60.6551 147.289 58.5755 146.15 56.6621 144.86C55.7269 144.23 54.7171 143.71 53.7411 143.14L53.1638 143.346Z" fill="white"/>
<path d="M202.689 63.777C201.394 64.0695 200.472 64.3383 199.531 64.4783C197.547 64.773 195.648 65.4821 193.559 65.311C192.728 65.2227 191.892 65.4209 191.189 65.8728C190.486 66.3247 189.959 67.0031 189.696 67.7952C188.632 70.4866 187.242 73.0854 187.25 76.102C187.25 76.4379 186.955 76.775 186.724 77.2662L188.975 77.951L190.253 77.3474C192.666 77.2198 194.542 77.0121 196.412 77.0527C198.152 77.0911 199.872 77.4208 200.91 79.2936C200.721 79.7876 200.492 80.3042 200.327 80.84C200.189 81.2917 200.126 81.7602 200.003 82.3497C195.701 84.4081 191.107 83.7696 186.357 83.974C186.054 84.9349 185.82 85.9159 185.655 86.9098C185.469 88.7165 185.958 90.5887 185.071 92.3214C185.806 95.2008 184.515 98.0943 185.201 101.008C186.247 101.783 187.463 102.297 188.749 102.507C190.034 102.717 191.352 102.617 192.591 102.215L197.793 102.872C199.489 104.25 197.843 105.757 197.825 107.316L195.099 108.717C190.567 109.932 186.536 109.252 182.031 108.216C181.721 107.649 181.299 107.149 180.791 106.748C178.643 105.512 178.151 103.488 178.194 101.346C178.267 97.6466 178.568 93.9502 178.774 90.2539C178.82 89.8211 178.843 89.3861 178.841 88.9508C178.824 87.7206 178.918 86.4914 179.123 85.2782C179.443 82.7116 179.552 80.1546 180.434 77.6636C180.769 76.7174 180.491 75.5453 180.452 74.4776C180.304 72.5483 180.586 70.6102 181.279 68.803C181.529 68.0199 181.7 67.2135 181.788 66.3962L184.894 61.1614L184.705 61.0716C185.468 60.2473 186.272 59.4574 186.981 58.5874C187.295 58.1584 187.705 57.8087 188.179 57.5657C188.652 57.3227 189.176 57.1934 189.708 57.1878C193.082 57.2104 196.493 56.7118 199.806 57.7552C200.809 58.0713 201.79 58.4547 202.539 58.7207C204.367 60.6081 203.793 62.2171 202.689 63.777Z" fill="white"/>
<path d="M107.076 173.218C104.176 173.3 101.652 171.597 98.5111 170.476L94.5379 163.019C94.1771 160.808 93.8548 159.214 93.6813 157.604C93.6491 156.785 93.706 155.965 93.8509 155.159C94.1138 152.856 93.0502 150.517 94.0968 148.221C94.2508 147.658 94.2893 147.07 94.2099 146.492C94.1805 142.54 95.0954 138.741 95.7309 134.875C96.2703 131.587 97.8897 128.743 98.5236 125.55C98.6627 124.848 99.5509 124.296 100.305 123.435L101.659 125.181C101.563 126.891 102.082 128.83 101.159 130.675C101.361 134.161 99.3954 137.387 99.9269 140.913C98.8057 146.181 99.5628 151.518 99.3485 156.819C99.1756 158.747 99.6828 160.674 100.782 162.268C101.427 163.162 101.661 164.352 102.074 165.392C103.84 165.929 105.143 167.424 107.621 166.648L110.448 163.107C110.539 162.192 110.615 161.427 110.72 160.365L112.857 158.635C112.839 156.987 113.022 155.511 114.109 154.238C114.655 153.576 114.995 152.768 115.087 151.915C115.296 149.564 116.44 147.555 117.179 145.396C117.644 144.048 117.963 142.654 118.13 141.238C118.324 139.534 118.347 137.839 118.683 136.119C119.191 133.498 119.104 130.765 119.369 128.09C119.5 126.778 119.855 125.489 120.085 124.312C121.446 123.149 122.849 123.959 124.3 123.56C124.607 124.406 124.856 125.271 125.048 126.15C125.255 127.457 125.365 128.778 125.378 130.102C125.346 131.443 125.238 132.781 125.053 134.11C124.897 135.439 124.915 136.861 124.42 138.062C123.193 141.05 123.408 144.295 122.419 147.364C121.547 150.069 120.955 152.89 119.792 155.513C118.64 158.11 117.361 160.65 116.173 163.231C115.624 164.427 115.142 165.685 114.703 166.895C113.843 169.275 112.26 170.671 110.123 171.69C109.16 172.148 108.219 172.643 107.076 173.218Z" fill="white"/>
<path d="M236.371 99.5436C237.566 98.9093 238.896 98.5715 240.249 98.5587C241.602 98.5459 242.938 98.8586 244.145 99.4702C245.344 100.445 244.993 101.947 245.268 103.6L240.769 106.573C238.194 106.795 235.366 106.78 232.653 107.335C228.695 108.143 224.742 107.631 220.684 107.859L214.457 103.692C214.474 102.196 214.196 100.802 214.781 99.3635C215.033 98.6306 215.026 97.834 214.764 97.1051C214.231 95.6598 214.544 94.3833 214.817 92.9346C215.274 90.5153 216.532 88.1356 215.623 85.5339C215.52 85.0608 215.573 84.5674 215.773 84.1265C216.553 82.0872 216.575 79.9186 216.687 77.8121C216.787 76.0954 217.195 74.4107 217.892 72.8381C218.631 67.1787 219.333 62.3769 221.103 57.6677L222.936 56.0095L227.007 56.796C227.149 58.1634 227.295 59.5676 227.464 61.1958C226.371 63.5231 226.349 66.3335 226.09 69.0627C225.911 71.4154 225.301 73.7152 224.291 75.8479C224.38 78.3123 224.031 80.9264 224.136 83.5828C224.24 86.2087 223.206 88.7769 222.945 91.4497C222.69 94.0468 221.679 96.5874 221.108 99.534L222.703 101.098C225.248 100.045 227.584 100.44 229.891 100.365C232.044 100.3 233.995 98.5725 236.371 99.5436Z" fill="white"/>
<path d="M268.226 139.932C268.56 137.249 270.443 135.49 271.845 133.475C273.729 130.935 275.366 128.22 276.732 125.369C277.574 123.481 279.443 122.207 280.803 120.734L283.736 121.684C284.447 122.951 283.998 124.231 284.102 125.202C283.433 126.855 282.9 128.297 282.26 129.69C281.927 130.251 281.542 130.78 281.11 131.27C280.711 131.681 280.393 132.164 280.175 132.693C279.639 135.202 277.669 136.746 276.236 138.632C274.898 140.392 274.803 140.321 273.937 143.004L272.332 144.21C270.809 148.477 268.61 151.75 266.459 155.041C265.261 156.873 263.761 158.507 262.98 160.607C262.766 161.045 262.451 161.427 262.061 161.721C261.066 162.638 260.229 163.712 259.584 164.901C258.795 166.159 257.926 167.366 256.983 168.514C255.935 169.876 254.348 169.749 252.576 169.43C251.425 168.723 251.338 167.651 251.773 166.103C252.471 163.618 253.918 161.562 255.32 159.548C256.026 158.534 256.634 157.472 257.276 156.428C257.799 155.535 258.407 154.694 259.09 153.917C260.251 152.638 260.849 150.849 261.49 149.186C262.306 148.289 263.121 147.392 263.983 146.443L262.364 143.043C259.336 142.229 257.857 139.545 256.296 137.201C254.609 134.626 252.698 132.204 250.585 129.965C249.54 126.821 249.54 126.821 250.929 123.899L253.157 123.612C254.173 124.325 255.127 125.121 256.01 125.993C258.341 128.684 260.553 131.478 262.816 134.228C263.001 134.454 263.316 134.623 263.395 134.875C264.154 137.289 266.255 138.42 268.226 139.932Z" fill="white"/>
</svg>
