<svg width="193" height="28" fill="none" xmlns="http://www.w3.org/2000/svg"><path fill="#000" d="M28.902 13.204v-1.149h7.335c1.945 0 3.314 1.017 3.314 2.917 0 1.767-1.193 2.386-2.783 2.784 1.811.132 3.314 1.06 3.314 2.916 0 1.812-1.414 3.314-3.226 3.314h-7.954v-1.149h1.325c.354 0 .62-.309.62-.618v-8.396a.604.604 0 00-.62-.619h-1.325zm3.933 3.933h2.784c1.149 0 1.9-1.06 1.9-2.033 0-.883-.619-1.944-1.591-1.944h-3.093v3.977zm0 5.656h1.635c1.856 0 3.535-.22 3.535-2.253 0-1.061-.751-2.254-1.989-2.254h-3.181v4.507zm16.173-11.135c3.712 0 5.921 2.607 5.921 6.275 0 3.712-2.253 6.451-6.098 6.451-3.314 0-5.921-2.386-5.921-6.23-.044-3.668 1.856-6.496 6.098-6.496zm-.177 11.445c3.005 0 3.712-2.563 3.712-5.17 0-2.563-.707-5.126-3.623-5.126-3.05 0-3.845 2.607-3.845 5.214.044 2.651.751 5.082 3.756 5.082zM68.54 15.37h-1.017c-.177-1.105-.31-2.166-2.165-2.166h-1.193v8.97c0 .487.22.62.663.62h1.237v1.148h-5.789v-1.148h1.326c.353 0 .619-.31.619-.62v-8.97h-1.15c-1.811 0-1.944 1.06-2.165 2.166h-1.06v-3.36h10.65v3.359h.044zm13.478 0H81c-.177-1.105-.31-2.166-2.165-2.166h-1.193v8.97c0 .487.22.62.663.62h1.237v1.148h-5.789v-1.148h1.326c.353 0 .618-.31.618-.62v-8.97H74.55c-1.812 0-1.945 1.06-2.166 2.166h-1.06v-3.36h10.65v3.359h.044zm20.194-2.166v3.933h1.944c.663 0 1.061-.486 1.061-1.016v-1.15h1.016v5.657h-1.016v-.663c0-.795-.133-1.635-1.105-1.635h-1.856v4.419h4.198c1.414 0 1.944-.663 1.989-2.475h1.06v3.668h-11.18v-1.149h1.326c.353 0 .619-.31.619-.618v-8.352c0-.442-.266-.619-.62-.619h-1.325v-1.149h11.003v3.668h-1.06c-.089-1.37-.221-2.519-1.989-2.519h-4.065zm32.921-1.149v1.15c-.707.043-1.281-.09-1.502.618-1.458 4.463-2.917 9.28-3.226 10.207h-1.768l-2.121-6.849-2.386 6.85h-1.635l-3.226-10.385c-.176-.442-.574-.442-1.016-.442h-.442v-1.149h4.905v1.15h-.928c-.309 0-.442.308-.442.53 0 .088.84 2.74 2.254 7.423l.132.707.177-.751 1.989-5.789-.486-1.679c-.177-.442-.575-.442-1.017-.442h-.574v-1.149h5.303v1.15h-1.238c-.309 0-.442.308-.442.53 0 .088.707 2.253 2.254 7.379l.133.751.221-.795c1.06-3.314 2.297-7.247 2.297-7.38 0-.442-.442-.486-1.06-.486h-.575v-1.149h4.419zm7.733-.397c3.712 0 5.922 2.607 5.922 6.275 0 3.712-2.254 6.451-6.098 6.451-3.314 0-5.922-2.386-5.922-6.23-.044-3.668 1.856-6.496 6.098-6.496zm-.132 11.445c3.005 0 3.712-2.563 3.712-5.17 0-2.563-.707-5.126-3.624-5.126-3.049 0-3.844 2.607-3.844 5.214 0 2.651.707 5.082 3.756 5.082zm10.296-.31c.354 0 .619-.31.619-.618v-8.352a.604.604 0 00-.619-.619h-1.326v-1.149h7.513c1.988 0 3.535.972 3.535 3.093 0 1.856-1.149 2.696-2.917 2.917 1.37.22 1.768.663 1.945 2.033l.265 2.165c.044.353.132.53.53.53s.574-.22.574-.618V20.45h1.149v1.238c0 1.104 0 2.518-2.165 2.518-1.149 0-2.077-.53-2.209-1.767l-.31-2.608c-.088-.707-.618-1.325-1.37-1.325h-2.651v3.668c0 .486.221.618.663.618h1.193v1.15h-5.789v-1.15h1.37zm2.607-5.48h3.049c1.149 0 1.989-1.016 1.989-2.12 0-1.06-.796-2.033-1.9-2.033h-3.094v4.154h-.044zm13.611 5.082v-8.572a.605.605 0 00-.619-.619h-1.326v-1.149h5.789v1.15h-1.237c-.442 0-.663.132-.663.618v4.065c2.916-2.784 4.507-4.021 4.507-4.375 0-.132-.088-.309-.309-.309h-1.237v-1.149h5.302v1.15h-1.149c-.53 0-1.237.839-4.109 3.446l4.242 5.7c.398.53 1.149.53 1.591.53v1.105h-5.524v-1.149h1.237c.133 0 .31-.132.31-.309 0-.22-.221-.53-.354-.707l-2.916-3.889-1.591 1.459v2.916c0 .31.221.53.53.53h1.37v1.15h-5.745v-1.15h1.37c.177-.044.531-.22.531-.442zm14.935 1.68h-.972v-4.552h1.061c.53 2.077 1.458 3.535 3.756 3.535 1.237 0 2.695-.618 2.695-2.032 0-.707-.397-1.238-1.06-1.459l-4.331-1.281c-1.591-.486-2.253-1.944-2.253-3.005 0-2.298 1.988-3.491 4.109-3.491 1.238 0 2.298.398 3.27 1.193l.531-.928h.972v4.508h-1.105c-.265-2.077-1.502-3.536-3.624-3.536-1.149 0-2.297.486-2.297 1.812 0 .619.397 1.237 1.104 1.458l4.463 1.37c1.149.354 1.945 1.37 1.945 3.005 0 2.563-1.989 3.712-4.331 3.712-1.502 0-2.386-.31-3.447-1.237l-.486.928zm-97.658-1.282c.353 0 .619-.31.619-.618v-8.352a.604.604 0 00-.62-.619H85.2v-1.149h5.922v1.15h-1.37c-.442 0-.663.132-.663.618v8.97h3.58c1.634 0 1.944-1.237 1.988-2.474h1.06v3.623H85.2v-1.149h1.326zM17.28 8.211c0-.132-.574-.972-.574-.972l-1.06-.044s-1.636.132-3.845.265l-.133-.707v-.089l-.177-.883.177-2.166c.619 0 1.237-.044 1.724-.044.132 0 .265-.53.309-.663 0-.795.22-1.104.265-1.9 0-.132-.221-.397-.265-.53a3.41 3.41 0 00-.663-.088c-3.05 0-5.877-.53-8.926-.354-.133 0-1.06.442-1.06.442s-.045.707-.045.884c0 .84.265 1.723.398 2.563.176.044.618-.044.928-.044.442 0 .928 0 1.37.044.176.176.309.31.309.397 0 .221-.089.928-.044 1.15.044.618-.398 1.9-.663 2.607-1.768.132-3.314.309-4.287.397C.532 8.52.002 9.714.002 10.067c-.044 2.43.619 4.552.884 6.85.265 3.093.442 5.346.707 8.572 0 .221.088 1.591.088 1.591s.707.486 1.017.53c1.856.177 4.065.133 6.142.044 2.033-.044 3.623.487 5.656.31.354-.044 1.326-.044 1.326-.044s.177-.53.177-.84c.265-3.403.309-6.805.662-10.561.177-2.74.884-5.966.62-8.308z" /></svg>