<svg width="24" height="24" fill="none" xmlns="http://www.w3.org/2000/svg"><path fill="#000" d="M16.93 0H7.07C5.2.01 3.41.757 2.086 2.08A7.12 7.12 0 000 7.064v9.872a7.12 7.12 0 002.086 4.985A7.104 7.104 0 007.07 24h9.86a7.104 7.104 0 004.984-2.08A7.12 7.12 0 0024 16.937V7.064a7.124 7.124 0 00-2.088-4.983A7.109 7.109 0 0016.93 0zm4.866 16.931a4.9 4.9 0 01-1.434 3.435 4.89 4.89 0 01-3.432 1.432H7.07a4.893 4.893 0 01-3.445-1.426 4.904 4.904 0 01-1.443-3.44V7.06a4.908 4.908 0 011.444-3.426 4.898 4.898 0 013.43-1.428h9.862a4.893 4.893 0 013.433 1.432 4.904 4.904 0 011.437 3.435l.008 9.858zM11.991 5.464A6.526 6.526 0 007.38 7.386a6.54 6.54 0 00-1.905 4.623A6.533 6.533 0 007.4 16.615a6.521 6.521 0 009.223-.018 6.536 6.536 0 001.906-4.619 6.558 6.558 0 00-1.927-4.606 6.543 6.543 0 00-4.61-1.908zm4.34 6.532a4.33 4.33 0 01-2.664 4.003 4.318 4.318 0 01-1.654.332h-.022a4.32 4.32 0 01-4.334-4.292 4.337 4.337 0 011.267-3.06 4.328 4.328 0 013.055-1.27 4.328 4.328 0 013.054 1.24 4.337 4.337 0 011.297 3.034v.013zM18.473 4.6a.994.994 0 00-.99 1.004.997.997 0 001.993-.008 1.027 1.027 0 00-1.003-.996z" /></svg>