<svg width="29" height="24" fill="none" xmlns="http://www.w3.org/2000/svg"><path fill="#000" d="M29 2.843a12.625 12.625 0 01-3.36.969A6.33 6.33 0 0028.267.446a13.542 13.542 0 01-3.725 1.492A6.185 6.185 0 0022.54.518 6.066 6.066 0 0020.16 0a5.77 5.77 0 00-2.26.447c-.717.3-1.369.741-1.919 1.299a6.035 6.035 0 00-1.286 1.952 6.147 6.147 0 00-.457 2.308v.053c.01.451.061.9.152 1.342a16.67 16.67 0 01-6.748-1.836 17.047 17.047 0 01-5.454-4.46 6.129 6.129 0 00-.805 3.06 6.025 6.025 0 00.683 2.866c.46.88 1.13 1.628 1.949 2.172a5.668 5.668 0 01-2.707-.75v.077a6.103 6.103 0 001.333 3.819 5.855 5.855 0 003.4 2.085 5.52 5.52 0 01-1.534.228c-.369 0-.733-.078-1.098-.078a6.047 6.047 0 002.098 2.988 5.825 5.825 0 003.402 1.192A11.51 11.51 0 011.62 21.38a8.353 8.353 0 01-1.42-.068A16.423 16.423 0 009.264 24C20.15 24 26.07 14.797 26.07 6.81v-.746A17.152 17.152 0 0029 2.844z" /></svg>