<svg width="259" height="266" viewBox="0 0 259 266" fill="none" xmlns="http://www.w3.org/2000/svg">
<g clip-path="url(#clip0_182_437)">
<path d="M20.3448 30.2239C23.4111 27.5846 25.9918 25.3739 28.553 23.1481C28.873 22.8705 29.0718 22.4419 29.4107 22.2019C32.9544 19.6866 36.5099 17.1866 40.0771 14.7019C40.325 14.5033 40.6081 14.3532 40.9117 14.2594C42.7112 13.8571 44.2296 12.8664 45.8609 12.0869C47.9807 11.1061 50.1909 10.3331 52.4604 9.779C57.286 8.54205 62.1562 7.47869 67.0081 6.34451C68.1375 5.14828 69.4012 6.43415 70.6122 6.14716C71.7615 5.88971 72.9383 5.77544 74.1158 5.80692C76.3669 5.94204 78.624 5.67703 80.7824 5.02425C81.7366 4.75766 82.7192 4.60544 83.7094 4.57066C86.6897 4.30246 89.6751 4.08992 92.6554 3.81859C93.385 3.71752 94.109 3.57934 94.8245 3.40446C97.3179 2.91757 99.8001 2.35229 102.311 1.98446C103.003 1.93731 103.697 2.01893 104.359 2.22511C107.152 1.82971 109.253 1.57095 111.336 1.23132C116.462 0.395408 121.626 0.692448 126.784 0.61036C127.716 0.493744 128.636 0.289316 129.529 -4.57764e-05L131.901 0.951209C132.529 0.848443 133.235 0.503252 133.752 0.686852C136.375 1.62177 139.072 1.08282 141.729 1.25702C143.423 1.36794 145.103 1.31534 146.811 1.78405C148.584 2.26969 150.528 1.82038 152.4 1.85672C156.604 1.93881 160.602 3.01279 164.676 3.75158C169.051 4.54551 173.438 5.26055 177.765 6.32079C178.988 6.62032 180.346 6.36654 181.536 6.36654L183.028 7.4004C184.726 7.78891 186.207 8.02706 187.623 8.46945C192.366 9.95706 197.176 11.1752 202.008 12.3351C204.27 12.8783 206.47 13.6867 208.682 14.4236C212.096 15.5615 215.529 16.6532 218.889 17.9327C220.932 18.7824 222.93 19.7365 224.875 20.7914C226.284 21.5026 227.428 22.7158 229.079 22.9846C229.399 23.0408 229.698 23.1833 229.944 23.3969C233.897 26.9404 238.622 29.6085 241.449 34.4184C242.783 36.6875 244.905 38.4971 246.19 40.8213C247.057 41.874 248.119 42.8221 248.758 43.9989C251.203 48.4889 253.153 53.2309 254.573 58.1412C255.099 59.9641 256.261 61.5086 256.604 63.4311C257.218 66.8681 258.435 70.2419 258.675 73.692C259.098 78.9648 259.102 84.2627 258.688 89.5361C258.301 93.831 258.295 98.2418 256.894 102.421C256.837 102.63 256.818 102.848 256.84 103.064C257.015 106.3 256.159 109.389 255.665 112.542C255.38 114.359 254.357 115.806 254.081 117.65C253.667 120.427 253.521 123.327 252.343 126.011C251.41 128.142 251.004 130.507 250.005 132.596C249.7 133.309 249.472 134.052 249.326 134.813C248.918 136.456 248.672 138.135 247.348 139.44C246.859 139.92 246.759 140.795 246.479 141.488C246.305 142.104 246.056 142.696 245.737 143.251C244.019 145.564 242.2 147.803 240.486 150.12C239.158 151.915 237.996 153.833 236.634 155.6C235.877 156.487 235.027 157.291 234.098 157.997C232.813 159.074 231.12 159.67 230.36 161.369C230.069 161.824 229.658 162.19 229.171 162.426C225.163 164.864 221.128 167.256 217.133 169.714C216.447 170.231 215.8 170.796 215.195 171.406C213.398 172.92 211.587 174.419 209.611 176.069C209.82 176.741 210.093 177.62 210.336 178.399L211.675 179.381C211.927 180.412 212.262 181.422 212.679 182.399C214.955 186.614 217.091 190.928 219.698 194.932C221.555 197.782 222.957 200.885 224.92 203.648C225.579 204.577 226.535 205.312 227.116 206.28C228.487 208.571 229.734 210.938 230.99 213.298C231.779 214.777 232.977 216.066 233.042 217.899C233.099 218.442 233.352 218.947 233.755 219.317C235.266 220.677 235.599 222.657 236.524 224.319C237.081 225.467 237.765 226.549 238.562 227.544C238.621 228.179 238.68 228.814 238.751 229.602L240.543 231.073C240.576 231.63 240.619 232.371 240.625 232.468C242.161 235.533 243.362 238.099 244.714 240.582C246.186 243.282 247.568 246.081 249.417 248.513C251.072 250.823 252.268 253.43 252.939 256.191C253.256 257.313 253.644 258.416 254.173 260.069C254.056 261.373 254.752 263.361 253.411 265.194C250.72 266.772 248.3 265.866 246.127 263.919C245.041 262.945 244.13 261.774 243.002 260.542C241.178 259.757 239.773 258.33 238.395 256.571C236.559 254.268 234.528 252.127 232.324 250.173C229.901 247.892 227.638 245.447 225.553 242.854C223.151 239.993 220.919 236.989 218.645 234.019C218.291 233.465 217.985 232.881 217.73 232.275C215.245 230.106 212.522 227.99 210.908 224.837C210.746 224.446 210.506 224.092 210.202 223.796C206.692 220.998 204.354 217.181 201.418 213.885C200.427 212.8 199.525 211.638 198.72 210.408C197.95 209.272 197.026 208.247 195.974 207.363C193.831 205.452 192.062 203.119 190.162 200.941C187.997 198.46 186.015 195.791 183.636 193.539C182.547 192.508 182.109 191.109 180.962 190.179C180.136 189.511 179.573 188.526 178.784 187.798C175.513 184.786 172.691 181.329 169.359 178.377C168.728 177.742 168.135 177.068 167.586 176.36C166.513 177.495 165.224 176.15 163.834 176.486C160.864 177.205 157.773 177.426 154.732 177.85C152.53 176.739 150.608 177.912 149.077 178.432C147.272 178.263 145.902 178.043 144.53 178.026C140.64 177.977 136.749 177.933 132.859 178.042C130.466 178.109 128.202 177.5 125.887 177.141C125.058 176.964 124.22 176.834 123.377 176.751C121.612 176.678 119.863 176.987 118.072 176.786C116.261 176.582 114.401 176.86 112.569 176.776C108.936 176.61 105.31 176.293 101.677 176.125C97.5256 175.933 93.3738 175.949 89.2955 174.863C87.5725 174.404 85.7191 174.653 83.8995 174.284C81.0911 173.717 78.1565 173.791 75.2828 173.519C74.1181 173.429 72.9671 173.21 71.8514 172.864C67.4034 171.389 62.702 170.99 58.2359 169.6C55.8197 168.848 53.1844 168.568 51.4501 166.393C48.4541 166.652 45.9381 165.234 43.4867 164.054C37.7224 161.28 31.8163 158.723 26.6713 154.792C24.4752 153.112 22.1706 151.569 19.5774 149.724C18.8295 147.546 16.5971 146.249 14.4161 144.621C14.3192 144.388 14.195 144.167 14.0459 143.963C10.0975 139.213 8.4949 133.15 5.11739 128.082C4.81998 127.636 4.48178 127.218 4.1963 126.833C3.77466 124.124 3.87129 121.438 2.81029 118.8C1.67245 115.912 1.1374 112.823 1.23793 109.721C1.28374 107.914 1.48576 106.127 0.757933 104.319C0.269784 103.108 1.14129 101.679 0.686396 100.309C0.439526 99.3906 0.264195 98.4543 0.161895 97.5088C0.0916219 97.0889 -0.105364 96.5926 0.0364377 96.2498C0.907325 94.182 0.47185 92.0083 0.678278 89.8897C1.00329 86.5548 1.4111 83.2284 1.90176 79.9107C2.29453 77.2877 2.95902 74.706 3.35807 72.0836C3.93908 68.2612 5.10673 64.5929 5.97323 60.8519C6.84474 57.0859 9.64379 54.0844 9.83139 50.1366C12.035 47.5612 12.0782 43.9958 13.9499 41.2386C14.8145 39.9628 15.1552 38.3419 15.8002 36.9069C16.4635 35.5898 17.3643 34.4062 18.4574 33.4153C19.4055 32.4848 19.866 31.0799 20.3448 30.2239ZM165.015 169.874C166.077 170.222 167.274 170.706 168.511 170.998C171.341 171.597 173.851 173.213 175.566 175.539C176.537 176.693 177.611 177.756 178.777 178.713C180.114 179.944 181.629 181.009 182.831 182.356C185.027 184.819 187.064 187.428 189.145 189.993C190.544 191.718 191.821 193.55 193.304 195.198C195.403 197.528 197.925 199.475 199.606 202.187C199.776 202.465 200.01 202.699 200.287 202.871C203.78 204.921 205.837 208.4 208.539 211.223C211.314 214.121 213.182 217.783 215.954 220.715C217.042 221.868 218.41 222.778 219.39 224.007C222.161 227.48 224.781 231.073 227.494 234.597C228.54 235.955 229.67 237.249 230.773 238.562C231.807 239.791 232.867 240.998 233.896 242.23C234.925 243.463 235.713 245.016 236.981 245.884C239.702 247.745 241.607 250.296 243.646 252.76C243.953 253.13 244.201 253.551 244.895 254.551C245.07 253.087 245.159 252.333 245.173 252.219C242.692 248.293 240.482 244.936 238.425 241.488C237.282 239.573 236.719 237.235 235.323 235.564C232.06 231.652 231.049 226.491 227.775 222.634C225.864 217.736 222.843 213.451 220.013 209.09C219.086 207.663 218.575 205.957 217.46 204.76C214.009 201.054 212.209 196.35 209.531 192.185C208.963 191.302 208.746 190.194 208.174 189.314C205.606 185.357 203.478 181.22 202.52 176.241L205.572 174.345C205.587 173.337 206.199 172.779 207.109 172.198C210.252 170.192 213.301 168.041 216.384 165.942C216.912 165.582 217.446 165.227 217.949 164.834C219.967 163.258 221.984 161.681 223.982 160.08C225.318 159.01 226.617 157.896 227.942 156.812C228.85 156.07 229.762 155.327 230.694 154.619C233.894 152.193 236.279 149.062 238.431 145.727C239.529 144.025 240.632 142.325 242.056 140.126C242.008 140.321 242.018 139.853 242.226 139.502C244.215 136.156 244.754 132.311 246.038 128.725C247.342 125.09 247.607 121.276 248.548 117.591C249.251 114.825 250.054 112.083 250.851 109.185C251.378 104.817 251.717 100.23 252.589 95.7455C252.899 94.1532 252.659 92.492 253.221 91.0294C254.036 88.9027 253.861 86.7308 253.614 84.6523C253.363 82.5249 253.905 80.4577 253.614 78.3698C253.349 77.0187 253.182 75.65 253.116 74.2748C253.132 72.195 252.971 70.2068 251.74 68.6189V64.893C249.155 58.7759 246.707 52.9871 244.496 47.7548C243.208 46.0962 242.417 44.7759 241.333 43.7733C240.416 42.9267 239.262 42.475 238.737 41.1046C238.317 40.0074 237.27 39.1538 236.519 38.1782C235.234 36.5076 234.141 34.6423 232.642 33.1935C230.595 31.3361 228.447 29.5928 226.208 27.9712C224.015 26.2794 221.331 25.4283 219.051 23.8355C216.5 22.0515 213.43 21.3654 210.45 20.5965C208.911 20.1998 207.277 20.154 205.755 19.7122C200.861 18.2898 195.967 16.8761 190.963 15.8817C189.616 15.6141 188.127 15.4186 187.024 14.6999C184.353 12.9623 180.96 14.126 178.376 12.3057C175.139 12.5563 172.153 11.1715 168.991 10.8644C167.433 10.7128 165.943 9.77538 164.389 9.66885C159.98 9.36556 155.731 7.58531 151.223 8.26645C150.905 8.34445 150.571 8.31758 150.27 8.18995C148.979 7.34777 147.543 7.75139 146.169 7.61917C145.116 7.51954 144.068 7.35213 143.023 7.18607C140.885 6.84707 138.765 6.7475 137.211 7.39229C134.104 7.00316 131.481 6.49559 128.843 6.39407C126.094 6.28817 123.298 6.88596 120.578 6.61651C116.394 6.15392 112.162 6.43144 108.075 7.4362C106.086 7.95387 103.992 7.90161 102.031 7.28566C99.6112 8.46935 96.9772 8.81287 94.3012 9.01025C93.249 9.08733 92.2087 9.32355 91.1577 9.43509C88.6756 9.70328 86.0503 10.5498 83.7439 10.0229C81.3803 9.48333 79.5884 9.94954 77.5159 11.0737C75.9817 10.8113 74.4352 10.6264 72.8823 10.5197C71.3382 10.4778 69.7865 10.7234 67.4618 10.9033L61.4384 13.4316C59.8361 13.3769 58.2471 13.7393 56.8273 14.4831C54.9248 15.4225 52.9232 16.1468 50.8597 16.6425C48.167 17.177 45.5747 18.1298 43.1774 19.4661C37.8705 22.6236 32.8409 26.2204 28.7883 30.989C28.5272 31.2961 28.0472 31.4062 27.7247 31.6782C27.1299 32.1274 26.5832 32.6368 26.0934 33.1984C24.3754 35.3841 22.7127 37.6124 20.6679 40.2993C20.3354 41.4272 19.952 43.1629 18.6162 44.576C17.9461 45.2847 17.7936 46.4954 17.4535 47.4955C17.3776 48.0164 17.2571 48.5298 17.0934 49.0301C15.7605 51.4273 14.5989 53.9156 13.6173 56.4763C12.4012 59.4209 11.3868 62.4446 10.5811 65.5265C9.91841 67.8642 9.41302 70.2436 9.06838 72.6487C8.83435 74.8839 8.32116 77.0388 7.92211 79.2282C7.35176 82.3538 6.78888 85.4913 6.47077 88.6482C6.28666 91.0165 6.26007 93.3944 6.39111 95.7661C6.46578 98.0382 6.70481 100.306 6.89869 102.574C7.14966 105.549 7.42829 108.522 7.69118 111.496C7.65929 111.924 7.69162 112.355 7.78715 112.774C8.94415 115.422 9.44551 118.245 9.92614 121.051C10.5291 124.573 12.3939 127.592 13.5597 130.885C14.7479 134.436 16.7703 137.652 19.4576 140.263C20.6824 141.429 21.818 142.688 23.0735 143.987C23.2304 144.67 23.4167 145.48 23.5272 145.962C25.0788 146.691 26.4517 147.11 27.5603 147.9C30.6894 150.129 33.7093 152.51 36.6413 154.731L38.9384 154.88C40.1933 155.776 41.2203 156.848 42.4733 157.334C45.6237 158.554 48.2502 160.968 51.7595 161.366C52.1416 161.41 52.481 161.781 52.8518 161.979C54.3677 162.787 55.8774 163.608 57.4102 164.381C58.6921 165.029 60.0034 165.619 61.7264 166.438C62.9104 165.164 64.5981 166.187 66.1561 166.596C68.1896 167.131 70.4139 167.154 72.2241 168.476C72.5008 168.678 72.9814 168.602 73.3667 168.657C76.9431 169.196 80.5063 169.886 84.1586 169.752C84.7995 169.758 85.4389 169.815 86.0704 169.924C88.9102 170.287 91.7393 170.781 94.5898 171.001C98.8652 171.332 103.156 171.453 107.437 171.715C107.924 171.783 108.398 171.925 108.842 172.136C110.177 172.02 111.101 171.909 112.03 171.864C114.249 171.754 116.585 172.08 118.661 171.488C121.765 170.604 124.661 171.362 127.637 171.705C129.004 171.862 130.359 172.288 131.721 172.295C139.14 172.336 146.551 172.304 153.971 171.78C157.618 171.517 161.005 170.367 165.015 169.874Z" fill="white"/>
<path d="M189.04 62.6478C191.123 63.203 193.075 62.7506 194.973 61.9635C196.668 61.2598 198.341 60.4966 200.016 59.7635L206.278 53.8482H209.347C210.865 55.4906 210.065 57.0114 209.067 58.2453C207 60.6618 204.695 62.866 202.189 64.8248C199.061 67.4134 195.283 68.5443 191.836 70.2136C191.181 70.099 190.502 69.7643 189.966 69.9204C185.762 71.1435 181.787 70.3766 177.785 68.9511C176.119 68.3577 174.274 68.2416 172.499 67.9828C171.824 67.9243 171.144 67.9185 170.468 67.9654C168.837 66.7328 168.723 65.0923 168.438 63.5871C168.136 63.532 167.81 63.3928 167.744 63.4718C165.966 65.5904 163.446 66.6401 161.131 67.9385C159.448 68.851 157.552 69.2985 155.638 69.2349C153.91 69.2054 152.181 69.2286 150.711 69.2286C147.34 67.5016 143.46 67.0587 141.712 63.2131C139.605 64.4519 137.672 65.5234 135.807 66.7021C133.244 68.2417 130.486 69.4314 127.607 70.2393C126.988 70.4031 126.349 70.4763 125.71 70.4567C121.386 70.4749 117.063 70.4662 113.053 70.4662L109.295 68.5983L107.245 63.812L103.494 64.8147C101.317 66.6839 99.5503 68.6703 97.3687 69.953C94.6707 71.5383 91.9181 73.3036 88.4929 73.0899C85.8294 72.9238 83.186 73.0855 80.488 72.6513C77.5905 72.1876 76.2095 70.2368 74.523 68.4259C74.1597 68.0355 73.8685 67.5775 73.4299 67.001C73.3728 66.3117 73.5479 65.3386 73.1922 64.6293C70.9177 60.0963 72.9782 56.2155 74.949 52.3424C76.01 50.2551 77.2781 48.2732 78.4081 46.3206C80.6505 45.4295 82.7047 44.5585 84.8023 43.8085C85.5822 43.5296 86.5591 43.2326 87.2825 43.4619C90.5879 44.509 93.8851 45.3619 96.4187 48.2531C98.0633 50.133 97.7602 51.9081 97.8474 53.8763C95.7185 56.6441 92.6001 57.9131 89.6806 59.4208C85.6079 59.7197 81.5427 60.7435 77.3929 58.9652L76.4008 60.1458C76.9919 61.9686 77.5754 63.7689 78.1577 65.5623L81.2359 67.0799C82.8761 67.382 84.3355 67.8776 85.7937 67.8719C88.6799 67.8606 91.5266 67.4152 93.9454 65.6099C94.4417 65.2396 94.8238 64.6504 95.3671 64.4192C97.8913 63.3596 99.822 61.4673 101.85 59.7604C103.304 58.5347 104.697 57.5008 106.507 57.5547C107.829 55.0689 108.851 52.5712 110.37 50.4256C111.427 48.9007 112.79 47.6131 114.374 46.6457C115.958 45.6782 117.727 45.0523 119.567 44.8079C121.122 44.5948 122.846 45.469 124.47 45.929C125.873 46.3262 126.422 47.6082 126.906 48.7725C127.474 50.2567 127.948 51.7754 128.325 53.3193C128.457 53.7352 128.429 54.1853 128.247 54.5819C126.886 56.683 126.043 59.2553 123.33 60.1784C123.021 60.2567 122.735 60.4042 122.492 60.6095C120.224 62.9781 117.247 63.2412 114.239 63.4467C114.011 63.5132 113.795 63.6158 113.599 63.7507C113.584 65.1167 114.907 65.2327 115.595 65.2508C119.317 65.3492 123.045 65.2508 126.77 65.1606C127.292 65.0538 127.79 64.8495 128.236 64.5584C130.953 63.3021 133.701 62.1034 136.367 60.7455C137.395 60.0995 138.362 59.3612 139.256 58.5397C140.079 56.9838 140.177 55.2011 140.164 53.3695C140.108 49.6914 140.294 46.0135 140.72 42.3597C141.227 38.2804 142.671 34.5408 144.183 30.8105C144.677 29.5898 145.703 28.584 146.259 27.2957L149.633 24.6639H153.842L156.585 26.4185C157.212 27.8027 157.902 29.3385 158.9 31.5442C158.244 34.364 157.43 37.8593 156.617 41.3552L156.805 41.3896C156.172 42.9712 155.557 44.5617 154.896 46.1314C154.707 46.7486 154.387 47.3179 153.958 47.8006C152.476 49.0864 152.139 50.8629 151.582 52.6801C149.538 54.8665 147.764 57.2896 146.298 59.8976L149.655 62.8984C150.572 62.7299 151.6 62.468 152.637 62.3715C153.662 62.2975 154.693 62.3304 155.711 62.4699C159.648 61.5557 162.837 59.2741 165.696 56.4737C166.269 56.0374 166.743 55.4838 167.085 54.8501C168.819 49.9066 172.197 45.9283 174.857 41.5331C175.539 40.5578 176.358 39.6857 177.288 38.9434C179.555 36.8994 182.42 36.9525 184.365 39.3462C185.759 41.0619 187.195 43.0019 187.746 45.0716C188.301 47.1552 189.084 49.1942 189.508 51.3555C190.249 54.9108 190.107 58.5933 189.095 62.0813C189.059 62.268 189.04 62.4577 189.04 62.6478ZM179.703 44.2126C175.248 49.8134 172.379 55.6485 169.789 61.7581C174.369 62.9888 178.636 65.0051 182.851 61.736L184.175 58.9565C184.891 53.4203 183.25 48.7751 179.703 44.2126ZM150.788 31.1789C147.587 35.5218 145.718 40.6991 145.407 46.0824C146.256 47.2034 145.921 48.6384 145.219 50.136L146.302 51.264C146.726 50.5064 147.063 49.9845 147.319 49.4268C147.56 48.7251 147.841 48.0375 148.161 47.3676C149.035 45.9345 150.127 44.6236 150.908 43.146C151.758 41.5511 152.456 39.8799 152.993 38.1545C153.545 36.3529 153.803 34.4623 154.2 32.5643L152.796 30.5848L150.788 31.1789ZM121.256 50.3892L115.451 52.6526C114.832 53.5481 114.305 54.2191 113.882 54.9517C113.473 55.6604 113.171 56.4305 112.748 57.3329C115.827 58.264 118.406 56.9618 120.89 56.0632C122.297 55.5532 124.147 54.8164 124.519 52.788C124.177 52.353 123.794 51.9519 123.375 51.5904C122.69 51.153 121.983 50.7515 121.256 50.3874V50.3892ZM79.0405 53.9378C83.1157 54.7794 87.0517 54.0801 91.3672 51.7509L86.7091 49.7539C83.4784 49.5277 80.7572 50.6448 79.0418 53.9358L79.0405 53.9378Z" fill="white"/>
<path d="M73.9802 138.066L73.0667 136.208C70.6284 135.909 68.125 135.094 65.8097 135.462C63.4437 135.838 61.1215 135.641 58.5559 136.079C58.0721 135.558 57.567 135.014 57.1723 134.59V131.806C58.9116 130.685 60.9537 130.123 63.0226 130.198C65.395 130.275 67.7811 130.343 70.1453 130.183C72.5095 130.024 74.6052 131.143 76.879 131.374C77.3502 131.422 77.7794 131.875 78.1339 132.088C78.5486 134.434 78.9358 136.622 79.3562 138.997C79.2307 140.012 79.0757 141.266 78.8919 142.752C78.7178 142.913 78.583 143.112 78.4978 143.334C77.6965 146.513 75.2282 148.441 73.0027 150.506C72.187 151.258 70.9999 151.613 69.974 152.135C69.4294 152.442 68.8607 152.704 68.2736 152.92C66.9736 153.332 65.6591 153.71 64.3333 154.03C63.3085 154.29 62.2657 154.474 61.2137 154.581C60.0352 154.71 58.847 154.726 57.6655 154.629C56.2042 154.476 54.7655 154.113 52.5895 153.704L47.6327 151.667C46.3264 150.394 44.872 148.999 43.4464 147.576C42.5046 146.722 41.8126 145.628 41.4443 144.412C40.9805 142.955 40.438 141.523 39.8192 140.125C38.2349 132.47 39.4428 125.443 43.9547 118.699C46.3634 118.334 48.055 116.198 50.14 114.051C52.9823 113.491 56.0781 112.86 59.1833 112.28C60.4934 112.034 61.693 112.759 63.1876 112.367C64.9275 111.912 66.9686 112.531 68.8666 112.779C70.3335 112.971 71.7817 113.311 73.2618 113.484C75.7571 114.535 78.334 115.552 79.6159 118.453C79.1396 118.676 78.6748 119.088 78.2186 119.073C76.5145 119.018 74.8172 118.789 73.1131 118.691C71.9511 118.622 70.7863 118.618 69.6239 118.678C68.7832 118.724 67.9298 119.107 67.1179 119.023C64.7964 118.784 62.4887 119.118 60.1766 119.129C58.4003 119.137 56.6258 119.627 54.8646 119.9L47.9452 124.95L46.2944 128.935C44.9969 134.304 45.1619 139.076 48.3794 143.603C50.2279 144.674 51.9834 146.402 54.4455 147.108C57.5408 148.069 60.8401 148.168 63.9876 147.394C65.6986 146.955 67.4342 146.781 69.0944 145.798C71.4253 144.42 72.3137 142.267 73.3509 140.096C73.6066 139.434 73.8169 138.756 73.9802 138.066Z" fill="white"/>
<path d="M223.905 132.964C222.7 135.636 221.8 137.903 219.884 139.517C218.195 140.939 216.854 142.908 214.728 143.647C212.665 144.364 210.787 145.666 208.485 145.731C207.857 145.847 207.253 146.07 206.7 146.391C203.956 147.571 201.003 148.189 198.016 148.208C194.884 148.203 191.746 148.145 188.621 148.308C186.475 148.417 184.919 147.349 183.408 146.167C182.994 145.818 182.674 145.37 182.48 144.864C182.285 144.359 182.221 143.813 182.294 143.276C182.517 140.511 181.924 137.689 182.908 134.972C183.002 134.55 183.023 134.114 182.971 133.685C182.94 128.804 183.982 124.062 184.801 119.288C184.926 118.201 184.988 117.108 184.986 116.014C185.741 115.609 186.454 115.13 187.115 114.584C188.595 113.1 190.419 112.767 192.385 112.696C194.075 112.634 195.761 112.494 197.443 112.302C198.457 112.302 199.475 112.249 200.485 112.316C201.621 112.392 202.747 112.64 203.883 112.701C206.016 112.732 208.143 112.93 210.245 113.295C212.744 113.755 215.119 114.735 217.214 116.172C219.309 117.61 221.078 119.472 222.404 121.637C222.818 122.377 223.063 123.2 223.121 124.046C223.446 127.164 223.678 130.291 223.905 132.964ZM217.945 133.575V124.803C215.946 121.892 212.887 119.876 209.421 119.187C207.34 118.755 205.185 118.686 203.066 118.422C201.49 118.228 199.924 117.887 198.343 117.8C196.638 117.707 194.971 117.769 193.253 117.318C191.788 116.866 190.216 116.903 188.774 117.425C188.937 118.252 189.003 119.095 188.969 119.937C188.41 123.313 188.796 126.731 188.179 130.143C187.559 133.571 187.858 137.165 187.731 141.419L188.72 142.522C192.246 142.522 195.163 142.503 198.081 142.528C199.896 142.57 201.704 142.291 203.422 141.704C205.712 140.897 208.052 140.231 211.014 139.304C212.741 137.492 216.075 136.514 217.946 133.575H217.945Z" fill="white"/>
<path d="M125.737 128.234C124.12 130.18 126.006 132.335 125.769 134.486C121.715 143.184 123.727 142.246 113.277 148.899C107.397 150.998 102.416 150.853 97.4321 148.755C96.7394 147.945 96.0471 147.137 95.3553 146.328C95.0114 145.925 94.7523 145.335 94.3162 145.146C92.0028 144.144 91.1595 141.951 90.3344 139.939C89.5188 137.96 88.865 135.819 89.488 133.531C89.6225 132.717 89.636 131.887 89.5282 131.069C90.6808 128.683 91.6452 126.677 92.6209 124.678C92.757 124.272 92.9772 123.899 93.2671 123.584C95.765 121.641 97.9308 119.232 101.279 118.552C105.347 117.703 109.544 117.678 113.621 118.479C114.455 118.628 115.339 118.501 116.135 118.615C121.018 120.061 123.841 123.53 125.737 128.234ZM120.043 133.26C120.043 132.361 120.001 131.607 120.051 130.859C120.172 129.061 119.322 127.867 117.855 126.926C114.279 124.627 110.182 124.088 106.201 124.386C103.03 124.625 99.6432 124.917 97.0694 126.443L94.9631 130.549C95.1193 132.7 95.2705 134.783 95.4255 136.918C97.9403 139.996 100.8 142.662 104.693 143.789L110.062 142.912C111.802 141.802 113.751 140.505 115.752 139.296C118.013 137.93 118.894 135.624 120.043 133.26Z" fill="white"/>
<path d="M168.182 125.033C168.826 126.463 169.527 127.79 170.023 129.185C170.479 130.467 170.713 131.828 171.09 133.338C170.435 135.916 169.749 138.697 168.026 141.063C165.969 143.888 163.495 146.13 159.994 147.097C159.147 147.33 158.445 147.716 157.556 147.305C157.187 147.16 156.778 147.145 156.399 147.265C154.56 147.871 152.559 147.757 150.802 146.946L149.063 147.572C143.908 146.463 139.26 143.697 135.828 139.699C135.547 138.754 135.216 137.748 134.95 136.725C134.422 134.708 134.134 132.647 134.977 130.672C136.339 127.471 137.168 123.96 139.978 121.549C140.402 121.07 140.929 120.693 141.519 120.444C143.991 119.895 146.256 118.643 148.86 118.516C152.597 118.4 156.329 118.864 159.923 119.892C161.226 120.346 162.453 120.994 163.563 121.813C165.087 122.783 166.535 123.875 168.182 125.033ZM142.139 126.625C141.639 127.653 141.221 128.719 140.891 129.813C140.567 130.938 140.549 132.129 140.838 133.264C141.126 134.399 141.712 135.436 142.534 136.271C145.565 139.545 149.498 140.167 153.508 140.444C155.901 140.609 158.344 140.046 160.505 139.835C165.418 135.203 164.465 136.243 165.769 132.74C165.58 131.339 165.427 130.196 165.227 128.707C164.122 127.874 162.866 126.906 161.588 125.969C159.725 124.726 157.563 124.002 155.326 123.873C153.739 123.707 152.079 123.891 150.453 123.677C150.134 123.674 149.817 123.718 149.512 123.809C148.261 124.038 147.011 124.273 145.717 124.514L142.139 126.625Z" fill="white"/>
<path d="M131.882 85.0878C133.13 81.9547 135.799 81.4534 138.444 80.9998C139.58 80.8036 140.721 81.043 141.89 80.4721C142.627 80.1124 143.772 80.4332 144.695 80.6375C147.371 81.2321 150.029 81.922 152.977 82.6426L156.573 84.7469C157.132 86.0854 157.712 87.427 158.253 88.783C159.15 91.0263 158.535 93.3091 158.002 95.4346C157.432 98.1087 156.534 100.702 155.327 103.156C153.772 106.087 151.36 107.856 148.95 109.785C139.015 113.285 129.021 105.642 130.411 96.3488L133.022 88.3907C132.674 87.3743 132.294 86.2734 131.882 85.0878ZM151.953 89.5217C147.538 88.9709 143.435 86.7446 139.071 88.8858C136.584 94.0867 136.577 97.4505 139.046 102.082L143.641 104.276C145.551 104.401 147.396 104.25 148.451 102.138C148.671 101.699 149.289 101.472 149.631 101.072C150.224 100.501 150.709 99.8273 151.063 99.084C151.843 96.7993 152.459 94.4596 153.139 92.1367L151.953 89.5217Z" fill="white"/>
<path d="M49.9349 55.6635C54.039 54.0412 58.3131 54.3051 62.8458 54.4868L64.223 57.0327L63.2705 60.1106L60.3215 62.0789C58.3307 61.2812 56.4828 63.1072 54.1613 62.4505C52.2552 61.9116 49.9926 62.6285 47.8518 62.7914C47.3475 63.0721 46.9078 63.4553 46.5609 63.9161C46.214 64.377 45.9676 64.9053 45.8377 65.4671C45.2228 67.4833 44.3682 69.4188 43.2922 71.232C42.4583 72.6544 41.1821 73.8181 40.2472 74.9253L37.078 73.8526C36.9155 73.3544 36.6231 72.4582 36.3125 71.5076C36.9867 69.2909 37.862 67.1402 38.9277 65.0823C39.8563 63.4625 40.1349 61.4823 40.7999 59.6983C42.3146 55.6378 43.2112 51.3179 45.7819 47.6929C46.1916 43.9094 49.2171 41.3453 50.3289 37.7961C50.2172 37.4333 50.0723 36.9621 49.9086 36.4313C51.9427 34.9838 53.8369 33.7411 56.3391 33.6546C59.3251 33.5519 62.308 33.2844 65.2846 33.0068C66.7629 32.8689 68.2179 32.4916 69.6955 32.3375C70.4736 32.3295 71.2508 32.3938 72.017 32.5293L73.186 35.5371L72.2938 37.5805C66.6675 40.1428 60.7024 39.1896 54.8038 39.3977C54.5328 39.711 54.0722 39.9999 54.0057 40.3602C53.2289 44.548 51.3704 48.3947 50.241 52.4659C50.0369 53.5059 49.9188 54.5609 49.8878 55.6202L49.6023 56.1304L49.9349 55.6635Z" fill="white"/>
<path d="M121.574 84.4687L118.621 86.1575C115.601 84.7162 112.705 85.4969 109.616 86.3184L108.209 88.0574C108.719 90.9599 110.747 92.3083 113.04 92.9093C115.182 93.4701 116.835 94.7691 118.75 95.5655C121.009 98.6654 119.484 102.127 120.061 105.442L117.939 108.923C114.037 111.765 109.68 112.424 104.64 111.732C102.326 110.758 99.5679 109.643 100.044 105.56L101.569 104.24C102.979 104.311 104.759 103.968 106.134 104.562C108.792 105.71 111.268 105.598 114.05 104.551C114.364 103.836 114.63 103.101 114.846 102.351C115.003 101.415 115.104 100.471 115.15 99.524C114.517 99.2063 113.713 98.7569 112.872 98.391C112.095 98.0526 111.279 97.8052 110.482 97.5138C106.941 96.2242 104.61 93.7371 103.213 89.8063V87.165C103.72 86.5534 104.331 85.8166 104.943 85.0785C105.062 84.3459 105.181 83.614 105.313 82.8082L108.242 81.2799C109.661 80.928 111.098 80.6541 112.547 80.4596C115.998 80.2133 119.117 80.8969 121.574 84.4687Z" fill="white"/>
</g>
<defs>
<clipPath id="clip0_182_437">
<rect width="259" height="266" fill="white"/>
</clipPath>
</defs>
</svg>
