<svg width="288" height="248" viewBox="0 0 288 248" fill="none" xmlns="http://www.w3.org/2000/svg">
<g clip-path="url(#clip0_182_449)">
<path d="M57.5692 232.108C57.8243 232.24 57.9813 232.322 58.1925 232.432C58.5981 233.617 59.0724 234.83 59.4209 236.077C59.6793 237.003 59.7751 237.975 59.9452 238.935L60.4969 239.22C60.4015 239.956 60.3024 240.727 60.2102 241.44C59.3456 242.161 59.1689 243.387 58.0741 243.815C57.4247 243.732 56.7603 243.647 56.094 243.561C55.4526 242.982 55.0968 242.093 54.264 241.798C53.3659 239.491 52.4024 237.246 51.9617 234.528C51.7585 233.9 50.8224 233.281 50.8641 232.214C50.2739 231.436 49.957 230.486 49.9628 229.51C49.8971 228.598 48.8697 228.069 49.0593 227.08C48.0464 225.525 47.93 223.601 46.9673 222.026C46.9631 221.161 46.2973 220.616 45.9232 219.871C45.5903 218.85 45.5677 217.714 44.9653 216.671C44.4787 215.828 44.5489 214.679 43.6924 213.97L42.1521 208.764L41.6244 208.371C40.9839 206.631 40.3047 204.776 39.6165 202.922C39.5016 202.504 39.3313 202.105 39.1103 201.733C38.5147 200.865 38.1331 199.868 37.9968 198.825C37.7062 197.025 37.0506 195.291 37.0354 193.441C36.9941 192.909 36.9144 192.38 36.797 191.86C36.8907 190.812 37.293 189.816 37.9529 188.999C38.6032 188.188 39.1478 187.292 39.7453 186.437C40.3982 185.398 41.2646 184.511 42.2872 183.834C42.868 183.445 43.3534 182.931 43.7073 182.328C44.1301 181.697 45.0879 181.399 45.436 180.752C45.7842 180.106 46.6207 180.079 46.8179 179.346C46.8761 179.227 46.9627 179.123 47.0701 179.044C47.1774 178.966 47.3023 178.914 47.434 178.895C48.7354 178.856 49.4881 177.494 50.8068 177.537L53.3651 175.663C55.4132 175.465 57.3495 174.907 59.3831 174.832C61.587 174.751 63.7273 174.812 65.7469 175.835C65.9929 175.939 66.2529 176.006 66.5184 176.034C67.3492 176.791 68.2238 177.498 69.1378 178.153C70.4657 179.013 71.471 180.29 71.9961 181.783C72.0655 182.12 72.1998 182.44 72.3914 182.726C73.3966 183.69 73.3778 185.151 74.1553 186.226C74.3619 186.616 74.4554 187.056 74.4254 187.497C74.4529 188.81 74.4262 190.123 74.4209 191.259L73.2894 193.524L72.8698 195.9L70.3168 199.638C71.4875 200.59 72.8603 200.973 73.7224 201.552C75.4568 202.063 76.9852 202.283 78.2733 202.961C79.423 203.566 80.6225 204.044 81.7714 204.636C82.691 205.11 83.6767 205.4 84.5575 206.018C85.4665 206.657 86.6212 206.945 87.5757 207.348C88.4165 207.987 88.7439 209.051 89.84 209.299C89.9599 209.694 90.0853 210.105 90.2257 210.566L90.8843 210.938C90.9939 211.496 91.1079 212.079 91.2002 212.548C91.1329 212.759 91.0361 212.96 90.9128 213.145C89.6029 214.414 87.8718 214.769 86.208 215.335C85.5997 215.006 85.0095 214.645 84.4398 214.252C83.8333 213.79 83.1118 213.828 82.4475 213.624C81.9494 213.458 81.4648 213.254 80.9982 213.013C80.1578 212.546 79.2806 212.149 78.3754 211.827C77.4884 211.558 76.723 210.884 75.902 210.396C75.0463 209.799 74.0431 209.45 73.0027 209.386C71.9427 208.285 70.4041 207.972 69.2191 207.055C68.4424 206.485 67.5985 206.013 66.7067 205.65C66.1366 205.47 65.5481 205.356 64.9525 205.31L64.3742 206.128C63.7528 206.333 62.9737 206.531 62.7025 207.394C62.0455 207.614 61.3547 207.792 61.3344 208.617L60.146 208.863C59.3139 209.472 58.4734 210.116 57.6024 210.717C56.8881 211.211 56.2253 211.75 55.2763 211.881C54.7192 211.958 54.2241 212.483 53.6825 212.817L51.4736 213.239C51.3991 213.505 51.2698 213.703 51.3215 213.821C52.5105 216.525 53.2027 219.421 54.5309 222.071C54.7063 222.564 54.8353 223.072 54.9162 223.589C55.3327 225.091 55.6606 226.637 56.4081 228.008C56.7895 228.71 57.0005 229.464 57.352 230.15C57.6772 230.782 57.4999 231.361 57.5692 232.108ZM48.4285 207.394C49.302 207.164 49.7772 206.602 50.3867 206.272L52.4442 205.859C53.5483 205.371 54.1687 204.506 55.2054 204.426C55.4771 203.61 56.4192 203.889 56.9108 203.376C57.3752 202.97 57.8728 202.603 58.3984 202.281C58.9669 201.864 59.7204 201.549 60.0498 200.987C60.8042 199.702 62.0892 199.089 63.1198 198.2C64.0832 196.942 64.7443 195.467 66.0767 194.705L67.9635 191.064C67.9725 190.898 67.9907 190.732 68.0178 190.568C68.2206 189.612 68.4432 188.584 67.9947 187.714C67.3979 186.556 67.2492 185.184 66.3116 184.194C66.1299 184.002 65.9983 183.699 65.779 183.617C64.6144 183.18 64.2329 181.958 63.2067 181.146L59.0917 180.502L54.3863 181.456C53.7095 181.951 53.0643 182.413 52.4314 182.891C51.5866 183.527 50.5551 184.034 49.9573 184.855C49.1015 186.034 47.9341 186.771 46.8728 187.667C46.6056 187.893 46.2167 188.088 46.1144 188.379C45.7234 189.489 44.5492 189.768 43.8337 190.728C43.0363 192.336 43.0363 192.336 42.9305 194.142C43.322 195.118 43.6248 195.931 43.9744 196.724C44.2187 197.283 44.6611 197.786 44.7765 198.362C44.9081 199.017 45.3516 199.438 45.6101 199.983C45.9513 200.592 46.1943 201.25 46.33 201.934C46.4084 202.587 46.9675 202.874 47.1308 203.445C47.4887 204.688 47.9338 205.906 48.4295 207.393L48.4285 207.394Z" fill="white"/>
<path d="M159.877 67.0301C160.349 66.8745 160.843 66.7978 161.34 66.8032C162.897 67.0442 164.469 67.1636 166.043 67.1602C167.538 67.2431 168.996 67.6519 170.317 68.3578C172.376 69.3164 174.508 70.1074 176.693 70.7234C177.203 70.8497 177.694 71.0436 178.152 71.2999C180.452 72.7336 183.091 73.5452 185.266 75.2104C185.574 75.3742 185.902 75.4979 186.242 75.5783C187.214 75.9674 188.212 76.307 189.143 76.777C189.984 77.2015 190.678 77.9223 191.682 78.0161C193.815 79.6615 196.356 80.6814 198.408 82.4712C198.738 82.8009 199.135 83.0555 199.573 83.2176C200.01 83.3797 200.477 83.4454 200.941 83.4103C201.182 82.9636 201.463 82.4423 201.692 82.0165C201.395 80.8029 201.127 79.7082 200.858 78.6131C200.175 78.0644 200.374 77.1313 199.931 76.4769C199.584 75.9649 199.244 75.4485 198.961 75.0237C198.582 73.5796 198.229 72.234 197.869 70.8617C197.57 70.6589 197.284 70.4649 196.895 70.2007L196.893 69.0469C196.625 68.8461 196.357 68.6457 195.975 68.359C195.681 67.4003 195.26 66.4853 194.723 65.6384C194.141 64.8773 193.735 63.9974 193.532 63.0616C193.378 62.0576 192.692 61.3499 192.472 60.389C192.286 59.5816 191.545 58.9169 191.164 58.1335C190.709 57.1993 190.382 56.204 189.988 55.2404C189.496 54.0417 188.994 52.8461 188.367 51.339C188.439 50.9376 188.442 50.5266 188.376 50.1239C188.29 49.8699 188.257 49.6013 188.278 49.3342C188.299 49.0671 188.374 48.8072 188.499 48.5702L192.463 47.04C193.241 47.4159 194.098 47.83 194.927 48.2301C195.258 49.0652 195.071 50.1795 196.216 50.2329C196.645 51.502 197.176 52.7342 197.805 53.9173C198.151 54.4204 198.439 54.9613 198.663 55.5293C199.05 56.6811 199.602 57.7795 199.676 58.9953C200.253 60.193 201.444 61.0361 201.507 62.4726C202.237 63.5622 202.773 64.7694 203.092 66.0409C203.142 66.2061 203.101 66.4248 203.195 66.5476C204.345 68.051 204.518 69.9401 205.23 71.6179C205.263 71.6961 205.226 71.8139 205.272 71.876C206.611 73.6924 206.583 75.9949 207.451 77.9878C207.859 78.9243 207.928 80.0085 208.226 81.3695C208.03 82.8279 208.489 84.7019 207.692 86.8232L205.053 90.1644L201.258 91.4259C199.824 91.2238 198.344 91.0146 197.059 90.8326C195.868 90.0631 194.888 89.3188 193.81 88.7652C192.896 88.2964 192.293 87.3726 191.135 87.227C190.206 87.1102 189.323 86.6219 188.113 86.1869C188.042 86.1056 187.758 85.7773 187.332 85.2877C186.404 85.0077 185.527 84.58 184.734 84.0211C183.872 83.4589 182.733 83.3199 181.881 82.7469C181.036 82.1305 180.134 81.5964 179.187 81.1521C178.229 80.7435 177.51 79.9685 176.472 79.6175C175.524 79.2975 174.739 78.4953 173.724 77.7977L171.996 77.4536C171.808 77.2799 171.554 77.0408 171.296 76.807C171.234 76.7451 171.161 76.6964 171.08 76.6638C168.256 75.7511 165.72 74.0794 162.65 73.4392L161.81 73.8469C161.342 75.1383 161.391 76.4835 161.117 77.6676C161.259 78.5517 161.598 79.3714 161.458 80.0976C161.268 81.0812 162.004 81.76 161.97 82.6372C162.748 82.8513 162.546 83.6412 162.784 84.1444C163.052 84.881 163.241 85.6436 163.349 86.4197C164.057 87.8162 164.923 89.1623 165.421 90.6329C165.761 91.5303 166.222 92.3768 166.792 93.1487C167.038 93.5145 167.453 93.8592 167.502 94.2496C167.695 95.7911 169.138 96.7397 169.317 98.276C169.377 98.791 169.596 99.2867 169.697 99.798C169.988 101.069 170.47 102.288 171.127 103.414C172.23 105.294 172.963 107.367 173.286 109.522C173.309 109.686 173.224 109.865 173.152 110.227C172.652 110.617 172.046 111.113 171.416 111.575C170.853 111.988 170.262 112.365 169.807 112.675C169.553 112.704 169.452 112.748 169.382 112.718C168.749 112.448 168.122 112.165 167.477 111.879C167.658 110.714 166.306 110.411 166.279 109.411C165.411 108.484 165.177 107.224 164.709 106.119C164.198 105.017 163.753 103.886 163.378 102.732C163.14 101.912 162.995 101.025 162.366 100.336C162.17 100.048 162.043 99.7182 161.996 99.3732C161.663 98.0232 160.96 96.8142 160.525 95.5034C160.484 95.3805 160.231 95.3281 160.07 95.2371L160.086 93.9303C159.828 93.0795 158.96 92.5311 158.963 91.5695C158.162 90.972 157.892 90.0015 157.636 89.1681C157.366 88.2902 156.834 87.6218 156.448 86.8259C156.292 85.7091 155.967 84.6221 155.486 83.6022C154.716 82.036 154.899 80.2035 154.577 78.5011C154.911 77.6642 154.279 76.9871 154.189 76.2777C154.249 75.5383 154.817 74.9899 154.602 74.2082C154.506 73.8567 154.806 73.3919 154.943 72.9838C155.303 71.9046 155.673 70.8286 155.984 69.9142C156.28 69.322 156.797 69.495 157.161 69.2033C157.85 68.6506 158.36 67.7827 159.399 67.7001C159.557 67.6862 159.69 67.3014 159.877 67.0301Z" fill="white"/>
<path d="M97.1593 182.716L96.4004 184.826C95.898 185.376 95.3337 185.442 94.503 185.056C93.9963 184.365 93.3147 183.553 92.77 182.656C92.3114 181.823 91.8983 180.966 91.5323 180.089C91.454 179.933 91.3962 179.768 91.3606 179.598C91.2667 178.638 91.0972 177.687 90.8537 176.754C90.507 175.837 90.2746 174.88 90.1615 173.907C89.8633 173.441 89.5322 172.923 89.1626 172.346C89.1579 171.879 89.1522 171.359 89.148 170.99C88.1809 169.971 88.1499 168.776 88.0603 167.655L87.572 167.308L87.6257 166.271L85.6282 160.98L85.882 160.123C85.035 158.733 84.5898 157.135 84.596 155.509C83.7099 154.073 84.2907 152.398 83.815 150.873C83.4937 150.378 83.1582 149.86 83.0338 149.669C82.592 148.048 82.2534 146.79 81.9061 145.534C81.6802 144.875 81.4927 144.204 81.3443 143.524C81.2245 142.751 81.3463 141.934 81.1767 141.178C81.0259 140.507 80.5566 139.904 80.8466 139.161C80.047 137.124 80.1387 134.867 79.2903 132.748C79.3361 131.911 79.3397 131.072 79.3011 130.235C79.2256 129.366 79.7644 128.46 79.2481 127.65C78.709 126.806 79.3934 125.887 78.9182 125.181C79.1155 124.661 79.254 124.246 79.4283 123.846C79.7528 122.942 80.1574 122.069 80.6374 121.238C81.1606 120.46 81.9036 119.835 82.4037 119.011C82.6439 118.754 82.9288 118.542 83.2446 118.387C83.8889 117.923 84.7692 118.052 85.3902 117.454C86.0039 116.93 86.6513 116.446 87.3282 116.007C88.6369 116.175 89.97 116.099 91.1492 116.83C92.7659 116.939 94.134 117.808 95.5856 118.379C96.826 118.856 97.8799 119.72 98.5903 120.844L100.724 122.002C101.38 123.541 103.209 124.078 103.978 125.506C104.68 125.875 105.299 126.198 105.919 126.522C107.466 128.533 109.668 129.973 110.744 132.17C111.198 132.431 111.498 132.603 111.838 132.797C111.91 133.016 111.99 133.262 112.105 133.614C112.427 133.817 112.727 134.055 112.999 134.323C113.305 134.751 113.717 135.094 114.194 135.317C114.652 135.531 115.098 135.772 115.528 136.038C116.203 137.281 117.767 137.924 118.658 139.238C119.687 139.541 120.116 140.471 120.689 141.232C121.857 142.782 122.948 144.391 124.151 145.912C124.621 146.506 124.533 147.412 125.391 147.849L124.573 149.782L121.754 151.847L119.984 151.66C120.006 151.426 119.935 151.193 119.787 151.009C119.639 150.826 119.426 150.708 119.192 150.68L118.846 149.478C118.387 149.09 117.814 148.88 117.453 148.329C116.826 147.372 116.108 146.473 115.406 145.565C114.608 144.533 113.956 143.394 112.761 142.679C112.192 142.339 111.845 141.624 111.317 140.981C110.714 140.705 110.007 140.38 109.393 140.099C109.18 140.152 108.975 140.23 108.781 140.333C108.035 140.928 107.124 141.357 106.752 142.339C106.679 142.501 106.556 142.634 106.4 142.72C104.906 143.538 104.266 145.277 102.771 146.093C102.123 147.423 100.834 148.076 99.7565 148.952C99.6064 149.045 99.4688 149.156 99.3469 149.283C97.6172 151.714 94.8894 152.931 92.6705 154.765C92.2491 155.037 91.7968 155.257 91.3232 155.421C91.3248 155.504 91.2946 155.608 91.3333 155.675C92.0163 156.784 91.5328 158.093 91.9563 159.246C92.3439 160.301 92.8419 161.317 92.8147 162.498C92.7752 163.111 92.8716 163.727 93.0969 164.3C93.4778 165.125 93.4989 166.004 93.7221 166.846C93.9199 167.595 93.8745 168.415 94.4426 169.07C94.6477 169.307 94.5991 169.748 94.7476 170.056C95.4081 171.428 95.4273 172.945 95.7343 174.392C96.0217 175.746 96.5046 177.043 96.4914 178.493C96.4784 179.876 96.9107 181.259 97.1593 182.716ZM86.3237 126.328C86.473 126.934 86.5614 127.553 86.5878 128.177C86.5452 129.826 86.7462 131.472 87.1845 133.063C87.4162 133.995 87.4877 134.96 87.3961 135.916C87.3987 136.697 87.5029 137.474 87.7059 138.229C87.7636 138.563 88.0209 138.913 87.9594 139.208C87.7162 140.374 88.7212 141.377 88.3481 142.538C89.0737 144.657 89.4435 146.885 90.2894 148.937C90.5107 148.997 90.7461 148.978 90.9542 148.882C91.1622 148.786 91.3297 148.62 91.4271 148.412C91.6884 147.952 91.8594 147.427 92.3549 147.175C93.425 146.63 93.8877 145.529 94.662 144.716C94.9558 144.407 95.0925 143.914 95.4244 143.682C96.5128 142.923 97.0031 141.591 98.1562 140.912C98.5666 139.548 100.083 139.206 100.764 138.039C101.434 136.889 102.741 136.345 103.745 135.505C103.925 135.306 104.079 135.084 104.205 134.846L102.705 132.798L101.41 132.402C101.316 132.156 101.185 131.926 101.02 131.72C100.233 131.044 99.2831 130.508 98.6454 129.719C97.8451 128.81 96.9722 127.966 96.0355 127.198C94.7078 126.101 93.2428 125.183 91.6778 124.466C91.2805 124.225 90.9121 123.939 90.5796 123.614L88.1767 123.242L87.0426 124.073L86.3237 126.328Z" fill="white"/>
<path d="M258.562 53.4437C258.661 53.643 258.778 53.8793 258.967 54.2626C258.85 55.4232 258.69 56.7359 259.096 58.023C259.15 58.1919 259.159 58.3716 259.124 58.5451C258.763 60.1202 259.052 61.6818 259.157 63.255C259.207 64.0051 259.469 64.838 258.881 65.5322L258.835 69.1847C258.875 69.6182 258.865 70.0547 258.808 70.486C258.357 72.3144 258.666 74.141 258.762 76.0657L258.144 77.4802C258.512 79.6862 258.754 81.9477 258.268 84.2587L258.727 85.3276C258.824 86.6203 258.359 87.9808 258.208 89.5495C258.606 90.9391 258.644 92.4067 258.318 93.8137C258.146 94.7451 258.283 95.7326 258.255 96.6941C258.207 98.3541 258.14 100.013 258.075 101.826L254.739 104.27C254.254 103.944 253.76 103.61 253.24 103.263C253.202 102.136 252.163 101.519 251.723 100.38L252.001 97.8518C251.689 96.7501 251.865 95.4634 251.141 94.2855C251.195 93.5778 251.256 92.7926 251.31 92.083C251.141 91.7702 251.016 91.5371 250.914 91.3474C251.033 87.8986 250.453 84.5237 250.481 81.0807L251.086 79.5589C249.959 77.2028 250.641 74.6564 250.542 72.161C249.658 71.7671 249.565 71.7553 248.169 71.8821C247.576 71.5989 246.867 71.2602 246.071 70.8791C244.658 71.307 243.432 70.5716 242.135 69.8906L240.204 70.1508C238.407 69.3445 236.497 68.8215 234.542 68.6005C233.399 68.49 232.298 68.1143 231.325 67.5033C229.294 67.5415 227.296 67.4866 225.658 65.9949C225.42 65.7777 225.023 65.7391 224.708 65.6003C224.075 65.3234 223.446 65.0337 222.863 64.7721C222.763 64.3255 222.689 63.9927 222.615 63.659C222.147 63.2898 221.679 62.9212 221.186 62.5352L221.303 60.8484L222.362 59.4952L224.797 58.1535C226.955 58.1995 229.079 58.7168 231.018 59.6692C231.431 59.6019 231.851 59.5927 232.266 59.6419C233.948 60.1303 235.659 60.5121 237.389 60.7851C238.211 61.4036 239.215 61.3436 240.148 61.569C241.755 61.9574 243.333 62.4702 245.28 63.034C246.363 62.8684 247.472 62.9877 248.496 63.3801C248.53 63.559 248.564 63.732 248.632 64.0926L250.946 64.4357C251.185 64.3284 251.38 64.1429 251.499 63.9099C251.618 63.6769 251.654 63.4101 251.602 63.1534C251.519 62.0354 251.256 60.9155 251.699 59.8147C251.446 56.4143 251.834 53.0025 251.5 49.4453L251.977 48.3187C252.15 45.179 252.313 42.2193 252.483 39.1428L255.03 37.2773C255.657 37.543 256.285 37.8093 256.811 38.0317C257.106 38.8691 257.192 39.748 257.664 40.2886C257.891 40.5418 258.056 40.844 258.146 41.1714C258.237 41.4989 258.251 41.8428 258.186 42.1761C258.06 43.2245 258.125 44.2875 258.38 45.3129C258.942 47.9139 258.727 50.5268 258.562 53.4437Z" fill="white"/>
<path d="M119.059 91.3438L118.459 88.038C117.356 86.503 116.746 84.6683 116.712 82.7791L119.355 80.8429C119.591 80.7929 119.836 80.8021 120.068 80.8695C120.3 80.937 120.512 81.0607 120.685 81.2297C121.683 82.0553 122.957 82.6438 123.078 84.1774C123.552 84.4169 124.1 84.6941 124.161 85.2271C124.229 85.8063 124.729 86.0296 124.9 86.4879C125.052 86.8952 125.356 87.3018 125.343 87.7012C125.324 88.3131 125.898 88.4825 126.049 88.9514C126.263 89.6083 126.536 90.2447 126.863 90.8531C127.238 91.3887 127.531 91.9778 127.73 92.6004C127.817 93.0233 127.991 93.4277 128.23 94.159C128.763 94.8863 129.515 95.8685 130.216 96.885C130.707 97.5959 131.244 98.2452 131.444 99.1765C131.598 99.8949 132.252 100.511 132.7 101.162C133.341 102.094 134.174 102.921 134.171 104.056L134.817 104.384C135.338 106.073 136.32 107.608 136.807 109.357C137.021 109.942 137.386 110.46 137.866 110.858C138.427 111.344 138.87 111.953 139.161 112.637C139.425 113.271 139.944 113.774 140.05 114.525C140.187 114.941 140.402 115.327 140.684 115.662C141.008 116.185 141.523 116.665 141.636 117.228C141.781 117.958 142.235 118.493 142.463 119.14C142.659 119.858 142.799 120.589 142.883 121.327C143.127 121.55 143.443 121.839 143.908 122.265C143.98 122.458 144.102 122.862 144.279 123.24C144.433 123.533 144.604 123.817 144.791 124.09C144.724 125.551 145.138 126.964 144.393 128.657C143.254 129.949 141.547 129.74 139.821 129.314C138.889 128.483 137.67 128.013 137.072 126.414L136.719 124.455C136.403 124.024 135.949 123.373 135.462 122.749C135.055 122.226 135.1 121.439 134.455 121.065L134.501 119.674C133.952 118.923 133.348 118.16 132.811 117.352C132.042 116.193 131.76 114.779 130.83 113.683C129.973 112.673 129.747 111.333 129.241 110.138C129.107 109.819 128.947 109.512 128.764 109.218C128.207 108.337 127.492 107.575 127.326 106.445C127.244 105.897 126.51 105.47 126.346 104.908C125.761 102.901 124.361 101.414 123.211 99.7719C122.777 99.1516 122.585 98.4271 122.117 97.8178C121.694 97.2659 121.413 96.6175 121.302 95.9308C121.226 95.401 120.685 95.3842 120.603 94.9348C120.487 94.5154 120.344 94.1041 120.173 93.7038C120.069 93.2814 119.941 92.8655 119.788 92.4583C119.573 92.0696 119.329 91.6971 119.059 91.3438Z" fill="white"/>
</g>
<defs>
<clipPath id="clip0_182_449">
<rect width="283.817" height="98.9059" fill="white" transform="translate(0.266602 168.089) rotate(-36.2265)"/>
</clipPath>
</defs>
</svg>
