<svg version="1.1" id="レイヤー_1" xmlns="http://www.w3.org/2000/svg" xmlns:xlink="http://www.w3.org/1999/xlink" x="0" y="0" viewBox="0 0 128 143" xml:space="preserve" enable-background="new 0 0 128 143"><style>.st1{fill:#bcb9b7}.st4{fill:#fff}</style><defs><path id="SVGID_1_" d="M0 0h128v143H0z"/></defs><clipPath id="SVGID_00000054963325762549716630000003333936893052296331_"><use xlink:href="#SVGID_1_" overflow="visible"/></clipPath><g clip-path="url(#SVGID_00000054963325762549716630000003333936893052296331_)"><path class="st1" d="M28.3 30L46.6 0l9.2 19.8M99.7 30L81.4 0l-9.2 19.8"/><path class="st1" d="M64 143c35.3 0 64-28.7 64-64 0-35.4-28.7-64-64-64S0 43.7 0 79s28.7 64 64 64z"/><defs><filter id="Adobe_OpacityMaskFilter" filterUnits="userSpaceOnUse" x="4.7" y="16.3" width="73.3" height="73.4"><feColorMatrix values="1 0 0 0 0 0 1 0 0 0 0 0 1 0 0 0 0 0 1 0"/></filter></defs><mask maskUnits="userSpaceOnUse" x="4.7" y="16.3" width="73.3" height="73.4" id="mask0_182_273_00000155113458866273211540000009997934221592347020_"><path d="M95.6 23.3L81.4 0l-7.3 15.7c-6.7-1.1-13.5-1.1-20.2 0L46.6 0 32.4 23.3C20.1 30.3 10.5 41.1 5 54.1s-6.5 27.5-2.9 41.2c3.6 13.7 11.6 25.8 22.8 34.4 11.2 8.7 25 13.3 39.1 13.3 14.1 0 27.9-4.7 39.1-13.3 11.2-8.6 19.2-20.7 22.8-34.4 3.6-13.7 2.6-28.2-2.9-41.2-5.5-13-15.2-23.8-27.4-30.8z" fill="#fff" filter="url(#Adobe_OpacityMaskFilter)"/></mask><g mask="url(#mask0_182_273_00000155113458866273211540000009997934221592347020_)"><path class="st4" d="M41.4 68.2c8.3 0 15.1-6.7 15.1-15.1S49.7 38 41.4 38s-15.1 6.7-15.1 15.1 6.8 15.1 15.1 15.1zM15.2 79.4c-.3 0-.7-.1-1-.3-.3-.2-.5-.5-.6-.8-.1-.3-.2-.7-.1-1 .1-.3.2-.6.5-.9l9.7-9.7c.2-.2.3-.3.6-.4.2-.1.4-.1.7-.1s.5 0 .7.1c.2.1.4.2.6.4.2.2.3.4.4.6.1.2.1.4.1.7 0 .2-.1.5-.2.7-.1.2-.2.4-.4.6L16.5 79c-.4.2-.8.4-1.3.4zM57.8 40c-.3 0-.7-.1-1-.3-.3-.2-.5-.5-.6-.8-.1-.3-.2-.7-.1-1 .1-.3.2-.6.5-.9l9.7-9.7c.2-.2.4-.3.6-.4s.4-.1.7-.1c.2 0 .5 0 .7.1.2.1.4.2.6.4.2.2.3.4.4.6.1.2.1.4.1.7 0 .2 0 .5-.1.7-.1.2-.2.4-.4.6L59 39.5c-.3.3-.7.5-1.2.5zM31 89.2c-.2 0-.3 0-.4-.1l-.6-.3c-.2-.1-.3-.3-.4-.5-.1-.2-.2-.4-.2-.6V87L33 73.7l.3-.6c.1-.2.3-.3.5-.5.2-.1.4-.2.6-.2h.7l.6.3c.2.1.3.3.4.5.1.2.2.4.2.7 0 .2 0 .5-.1.7l-3.6 13.3c-.1.4-.3.7-.6.9-.3.2-.6.4-1 .4zm17.2-55.5c-.2 0-.3 0-.4-.1l-.6-.3c-.2-.1-.3-.3-.4-.5-.1-.2-.2-.4-.2-.6v-.7l3.5-13.3c.1-.2.1-.4.3-.6.1-.2.3-.3.5-.5.2-.1.4-.2.7-.2h.7l.6.3c.2.1.3.3.4.5.1.2.2.4.2.7 0 .2 0 .5-.1.7l-3.5 13.3c-.1.4-.3.7-.6.9-.4.3-.7.4-1.1.4zm1.3 56.1c-.4 0-.8-.1-1.1-.4-.3-.2-.5-.6-.6-.9l-3.6-13.3c-.1-.2-.1-.5-.1-.7 0-.2.1-.5.2-.7.1-.2.3-.4.4-.5l.6-.3c.2-.1.5-.1.7 0 .2 0 .5.1.7.2.2.1.4.3.5.5l.3.6 3.6 13.3c.1.2.1.4 0 .7 0 .2-.1.4-.2.6-.1.2-.3.4-.4.5l-.6.3c-.1 0-.2.1-.4.1zM36.7 33.2c-.4 0-.8-.1-1.1-.4-.3-.2-.5-.6-.6-.9l-3.6-13.3c-.1-.2-.1-.5-.1-.7 0-.2.1-.5.2-.7.1-.2.3-.4.4-.5l.6-.3c.2-.1.5-.1.7 0 .2 0 .5.1.7.2.2.1.4.3.5.5l.3.6L38.4 31c.1.2.1.4 0 .7 0 .2-.1.4-.2.6-.1.2-.3.4-.4.5l-.6.3c-.2 0-.3.1-.5.1zM65.9 81c-.5 0-.9-.2-1.2-.5L55 70.8c-.3-.3-.5-.8-.5-1.2 0-.5.2-.9.5-1.2.3-.3.8-.5 1.2-.5.5 0 .9.2 1.2.5l9.7 9.7c.2.2.4.6.5.9s0 .7-.1 1c-.1.3-.4.6-.6.8-.3.1-.7.2-1 .2zM26.5 38.4c-.5 0-.9-.2-1.2-.5l-9.7-9.7c-.3-.3-.5-.8-.5-1.2 0-.5.2-.9.5-1.2.3-.3.8-.5 1.2-.5.5 0 .9.2 1.2.5l9.7 9.7c.2.2.4.6.5.9.1.3 0 .7-.1 1-.1.3-.4.6-.6.8-.3.1-.6.2-1 .2zm49.2 26.8c-.2 0-.3 0-.4-.1L62 61.6l-.6-.3c-.2-.1-.3-.3-.4-.5-.1-.2-.2-.4-.2-.6v-.7l.3-.6c.1-.2.3-.3.5-.4.2-.1.4-.2.6-.2h.7l13.3 3.6c.4.1.8.4 1 .7.2.3.3.8.3 1.2-.1.4-.3.8-.6 1.1-.4.2-.8.3-1.2.3zM20.3 48c-.2 0-.3 0-.4-.1L6.6 44.4l-.6-.3c-.2-.1-.3-.3-.4-.5-.1-.2-.2-.4-.2-.6v-.7l.3-.6c.1-.2.3-.3.5-.4.2-.2.4-.3.6-.3h.7l13.3 3.6c.4.1.8.4 1 .7.2.3.3.8.3 1.2-.1.4-.3.8-.6 1.1-.4.2-.8.4-1.2.4zM63 50.2c-.4 0-.8-.2-1.1-.4-.3-.3-.5-.7-.6-1.1-.1-.4 0-.8.3-1.2.2-.3.6-.6 1-.7l13.3-3.6c.4-.1.9 0 1.3.2s.7.6.8 1c.1.4.1.9-.2 1.3-.2.4-.6.7-1 .8l-13.3 3.6c-.2.1-.3.1-.5.1zM6.4 63c-.4 0-.8-.2-1.1-.4-.3-.3-.5-.7-.6-1.1-.1-.4 0-.8.3-1.2.2-.3.6-.6 1-.7L19.3 56c.4-.1.9 0 1.3.2s.7.6.8 1c.1.4.1.9-.2 1.3-.2.4-.6.7-1 .8L6.9 62.9c-.2.1-.3.1-.5.1z"/></g><path class="st1" d="M45 61.6v49.1c0 .7.2 1.3.5 1.9.3.6.8 1.1 1.3 1.5l26.9 18.5c.7.5 1.5.7 2.3.7.8 0 1.6-.3 2.3-.7l26.9-18.5c.5-.4 1-.9 1.3-1.5.3-.6.5-1.2.5-1.9V61.6c0-.5-.1-1.1-.3-1.6-.2-.5-.5-.9-.9-1.3s-.8-.7-1.3-.9-1-.3-1.6-.3H49c-.5 0-1.1.1-1.6.3-.5.2-.9.5-1.3.9s-.7.8-.9 1.3c-.1.6-.2 1.1-.2 1.6z"/><path class="st4" d="M75.9 135.5c-1.3 0-2.5-.4-3.5-1.1l-26.9-18.5c-.8-.6-1.5-1.3-2-2.2-.5-.9-.7-1.9-.7-2.9V61.6c0-1.7.7-3.2 1.8-4.4 1.2-1.2 2.8-1.8 4.4-1.8h53.8c1.7 0 3.2.7 4.4 1.8 1.2 1.2 1.8 2.8 1.8 4.4v49.1c0 1-.2 2-.7 2.9-.5.9-1.2 1.7-2 2.2l-26.9 18.5c-1 .8-2.2 1.2-3.5 1.2zM49 59.7c-.5 0-1 .2-1.4.6-.4.4-.6.9-.6 1.4v49.1c0 .3.1.6.2.9.1.3.4.5.6.7l26.9 18.5c.3.2.7.3 1.1.3.4 0 .8-.1 1.1-.3l26.9-18.5c.3-.2.5-.4.6-.7.1-.3.2-.6.2-.9V61.6c0-.5-.2-1-.6-1.4-.4-.4-.8-.6-1.4-.6H49z"/><path class="st4" d="M58.9 86.4c-.9-.5-1.7-1.3-2.2-2.2-.5-1-.8-2.2-.8-3.3v-9.6H59v9.4c0 .9.3 1.9.8 2.6.3.3.7.6 1.1.7.4.2.9.3 1.3.3s.9-.1 1.3-.3c.4-.2.8-.4 1.1-.7.6-.7.9-1.7.8-2.6v-9.4h3.1v9.6c0 1.2-.2 2.3-.8 3.3-.5 1-1.3 1.7-2.2 2.2-1 .5-2.2.8-3.4.8-1 0-2.1-.3-3.2-.8zm19.3-15.2c1.1 0 2.2.2 3.1.7.8.4 1.5 1 2 1.8s.7 1.7.7 2.6c0 .9-.2 1.8-.7 2.6-.5.8-1.2 1.4-2 1.8-1 .5-2.1.7-3.1.6h-2.1v5.6H73V71.2h5.2zm0 7.2c.7 0 1.4-.2 2-.6.2-.2.4-.4.5-.7.1-.3.2-.6.2-.8 0-.3-.1-.6-.2-.8-.1-.3-.3-.5-.5-.7-.6-.4-1.3-.7-2-.6h-2.1v4.3h2.1zM96 71.2v2.9h-5.5v3.7h5.3v2.9h-5.3v6.2h-3.1V71.2H96zM64.6 101c.8.4 1.5 1.1 2 1.9.5.8.7 1.8.7 2.8 0 1-.2 1.9-.7 2.8-.5.8-1.2 1.5-2 2-.9.5-2 .7-3.1.7-1 0-1.9-.2-2.8-.6-.8-.4-1.5-.9-2.1-1.7-.5-.7-.8-1.5-.9-2.4H59c.1.5.4 1 .9 1.3.4.4 1 .5 1.6.5.4 0 .7 0 1-.2.3-.1.6-.3.9-.6.3-.2.4-.5.6-.9.1-.3.2-.7.2-1 0-.7-.2-1.4-.7-1.9-.2-.3-.5-.4-.8-.6-.3-.1-.7-.2-1-.2-.4 0-.8.1-1.2.2-.4.2-.7.4-1 .7l-2.6-1.1 1.9-7.8h8.1v2.9H61l-.6 2.4c.4-.1.9-.2 1.3-.2 1 .3 2 .5 2.9 1zm7.6 9.2c-1-.7-1.8-1.7-2.2-2.8-1.1-2.8-1.1-5.9 0-8.7.5-1.1 1.2-2.1 2.2-2.8 1-.6 2.1-1 3.2-1 1.2 0 2.3.3 3.2 1 1 .7 1.8 1.7 2.2 2.8 1.1 2.8 1.1 5.9 0 8.7-.5 1.1-1.2 2.1-2.2 2.8-1 .6-2.1 1-3.2 1s-2.2-.4-3.2-1zm4.8-2.6c.5-.5.9-1.1 1.1-1.8.5-1.8.5-3.8 0-5.6-.2-.7-.6-1.3-1.1-1.8-.4-.4-1-.6-1.6-.6-.6 0-1.1.2-1.6.6-.5.5-.9 1.1-1.1 1.8-.5 1.8-.5 3.8 0 5.6.2.7.6 1.3 1.1 1.8.4.4 1 .6 1.6.6.6 0 1.2-.2 1.6-.6zm14.1-5.7h4.3v2.7h-4.3v4.3h-2.7v-4.3h-4.3v-2.7h4.3v-4.3h2.7v4.3z"/></g></svg>